<svg width="30" height="30" viewBox="0 0 30 30" fill="none" xmlns="http://www.w3.org/2000/svg">
<path d="M5.54939 5.55036C5.7233 5.3762 5.92984 5.23804 6.1572 5.14377C6.38455 5.0495 6.62826 5.00098 6.87439 5.00098C7.12051 5.00098 7.36422 5.0495 7.59158 5.14377C7.81893 5.23804 8.02547 5.3762 8.19939 5.55036L14.9994 12.3479L21.7994 5.55036C21.9734 5.37636 22.18 5.23834 22.4073 5.14417C22.6346 5.05 22.8783 5.00153 23.1244 5.00153C23.3705 5.00153 23.6141 5.05 23.8415 5.14417C24.0688 5.23834 24.2754 5.37636 24.4494 5.55036C24.6234 5.72436 24.7614 5.93093 24.8556 6.15828C24.9498 6.38562 24.9982 6.62929 24.9982 6.87536C24.9982 7.12144 24.9498 7.3651 24.8556 7.59245C24.7614 7.81979 24.6234 8.02636 24.4494 8.20036L17.6519 15.0004L24.4494 21.8004C24.8008 22.1518 24.9982 22.6284 24.9982 23.1254C24.9982 23.6223 24.8008 24.0989 24.4494 24.4504C24.098 24.8018 23.6214 24.9992 23.1244 24.9992C22.6274 24.9992 22.1508 24.8018 21.7994 24.4504L14.9994 17.6529L8.19939 24.4504C7.84797 24.8018 7.37136 24.9992 6.87439 24.9992C6.37741 24.9992 5.9008 24.8018 5.54939 24.4504C5.19797 24.0989 5.00055 23.6223 5.00055 23.1254C5.00055 22.6284 5.19797 22.1518 5.54939 21.8004L12.3469 15.0004L5.54939 8.20036C5.37523 8.02645 5.23706 7.81991 5.14279 7.59255C5.04852 7.3652 5 7.12149 5 6.87536C5 6.62924 5.04852 6.38553 5.14279 6.15817C5.23706 5.93082 5.37523 5.72428 5.54939 5.55036Z" fill="#A10000"/>
</svg>
