<svg width="452" height="369" viewBox="0 0 452 369" fill="none" xmlns="http://www.w3.org/2000/svg">
<path d="M91.7469 241.009C91.7469 241.009 82.6653 232.483 79.173 230.218C75.6807 227.953 67.8475 224.838 64.922 224.555C61.9965 224.273 48.3112 228.236 48.3112 228.236C48.3112 228.236 28.1146 226.443 24.717 228.803C21.3194 231.163 21.6022 233.616 23.0187 235.409C24.4341 237.202 29.9086 236.636 35.9478 236.73C41.9881 236.824 43.5928 237.39 43.5928 237.39L34.8153 246.733L57.5599 253.056L71.4333 252.536L76.4357 258.827L91.7469 241.009Z" fill="#FFBF9D"/>
<path d="M22.5049 219.903L23.0536 240.028L24.0277 242.529L33.9548 254.632L58.1754 253.036L38.8795 245.518L32.0183 240.304L29.365 231.705C29.365 231.705 30.1892 218.44 22.5049 219.903Z" fill="#FFBF9D"/>
<path d="M24.2068 242.99H18.308C18.308 242.99 10.6119 230.332 3.5678 234.631L5.18633 237.132C5.18633 237.132 2.012 235.696 0 238.366L19.415 255.398H20.3083L40.9962 254.065L24.2068 242.99Z" fill="#FFBF9D"/>
<path d="M27.7207 246.837C27.7143 246.897 27.0965 246.867 26.0511 246.907C25.0217 246.965 23.4936 247.032 21.9633 247.728L21.7655 247.818L21.6368 247.637C21.0392 246.793 20.2991 245.883 19.5398 244.935C17.968 242.995 16.5462 241.241 15.352 239.766C14.2875 238.436 13.6335 237.612 13.6888 237.56C13.7452 237.507 14.5087 238.244 15.6508 239.512C16.794 240.778 18.3349 242.561 19.9715 244.587C20.7361 245.543 21.4593 246.451 22.0686 247.353L21.7432 247.262C23.4415 246.542 24.9983 246.566 26.0522 246.591C27.1167 246.642 27.7282 246.781 27.7207 246.837Z" fill="#FF9A6C"/>
<path d="M69.6836 235.136C69.7335 235.316 66.4156 235.99 62.8574 238.025C59.2886 240.045 57.0139 242.551 56.8852 242.416C56.8352 242.371 57.3425 241.694 58.3187 240.739C59.2928 239.787 60.7667 238.581 62.5841 237.544C64.4036 236.511 66.1934 235.86 67.5099 235.511C68.8296 235.161 69.6708 235.07 69.6836 235.136Z" fill="#FF9A6C"/>
<path d="M50.3323 229.922C50.4419 230.037 49.1041 231.479 47.5536 233.335C45.9978 235.186 44.8121 236.756 44.6802 236.669C44.5569 236.589 45.5512 234.859 47.1293 232.98C48.7032 231.097 50.2324 229.815 50.3323 229.922Z" fill="#FF9A6C"/>
<path d="M30.1089 249.65C30.0941 249.663 29.9356 249.504 29.6453 249.189C29.3209 248.827 28.9073 248.366 28.3968 247.797C27.846 247.168 27.1952 246.424 26.4465 245.57C26.0658 245.132 25.6617 244.666 25.2342 244.174C24.8131 243.68 24.3282 243.168 23.9209 242.538C23.1073 241.298 22.549 239.685 22.5416 237.929C22.5086 236.214 22.4725 234.385 22.4353 232.461C22.3715 228.6 22.3013 224.363 22.2279 219.906L22.2236 219.662L22.4523 219.631C22.6543 219.603 22.8734 219.574 23.0935 219.544C24.5217 219.384 26.0498 219.885 27.0091 220.933C27.9757 221.959 28.5159 223.231 28.8828 224.468C29.5868 226.975 29.7006 229.439 29.6113 231.72L29.6006 231.633C30.5832 234.895 31.4595 237.801 32.1965 240.249L32.1316 240.155C34.2116 241.781 35.8961 243.097 37.1191 244.052C37.6593 244.488 38.0974 244.841 38.443 245.119C38.7408 245.367 38.8907 245.503 38.8801 245.517C38.8694 245.531 38.6982 245.423 38.3792 245.202C38.0176 244.944 37.5604 244.616 36.9957 244.213C35.7472 243.291 34.0287 242.02 31.9061 240.451L31.8593 240.416L31.8413 240.356C31.0713 237.918 30.1579 235.024 29.1317 231.774L29.12 231.736L29.121 231.686C29.1891 229.47 29.0572 227.021 28.3671 224.617C28.0119 223.427 27.4855 222.231 26.6145 221.312C25.7478 220.382 24.4515 219.956 23.1446 220.093C22.9425 220.12 22.7415 220.148 22.5565 220.172L22.7819 219.897C22.8394 224.354 22.8936 228.59 22.9425 232.452C23.102 236.274 22.5044 239.916 24.2463 242.327C24.6185 242.929 25.0811 243.436 25.4979 243.946C25.9137 244.448 26.3083 244.924 26.6783 245.37C27.3993 246.247 28.0278 247.012 28.5574 247.658C29.0359 248.254 29.423 248.737 29.7272 249.117C29.992 249.456 30.1228 249.639 30.1089 249.65Z" fill="#FF9A6C"/>
<path d="M20.308 255.396C20.3155 255.423 19.8933 255.445 19.2765 255.102C18.6597 254.772 17.8739 254.143 16.9987 253.282C15.244 251.562 13.1108 248.933 10.9148 245.927C8.71988 242.916 6.85994 240.104 5.55299 238.045C4.90005 237.014 4.38748 236.171 4.04612 235.58C3.70476 234.988 3.53354 234.65 3.56651 234.63C3.59841 234.61 3.83024 234.909 4.22796 235.463C4.68949 236.124 5.24034 236.911 5.88053 237.828C7.2683 239.829 9.17609 242.599 11.3625 245.599C13.551 248.595 15.6215 251.244 17.2783 253.008C18.1046 253.89 18.832 254.547 19.3871 254.917C19.939 255.298 20.3134 255.345 20.308 255.396Z" fill="#FF9A6C"/>
<path d="M55.6488 242.405L44.9614 241.684L41.7668 232.927L41.1777 227.039C40.8895 224.16 38.483 221.89 35.5915 221.932C35.5575 221.932 35.5224 221.933 35.4873 221.934L36.0871 236.367L38.282 245.332L46.9659 250.454H57.5842L55.6488 242.405Z" fill="#FFBF9D"/>
<path d="M55.6478 242.405L44.9604 241.684L41.7659 232.927L41.1767 227.039C40.8885 224.16 38.482 221.89 35.5905 221.932C35.5565 221.932 35.5214 221.933 35.4863 221.934L36.0861 236.367L38.281 245.332L46.965 250.454" fill="#FFBF9D"/>
<path d="M46.966 250.456C46.9565 250.473 46.7406 250.367 46.3386 250.151C45.8888 249.901 45.3092 249.579 44.5903 249.18C43.0229 248.281 40.8524 247.034 38.1832 245.503L38.113 245.462L38.0928 245.381C37.4473 242.81 36.6859 239.775 35.8458 236.429L35.8394 236.405L35.8383 236.38C35.6501 232.041 35.4364 227.133 35.2109 221.948L35.1992 221.673L35.481 221.66C35.5778 221.656 35.6863 221.661 35.7937 221.664C38.481 221.683 40.7684 223.78 41.2969 226.176C41.449 226.782 41.4756 227.375 41.5362 227.939C41.5915 228.511 41.6468 229.077 41.7021 229.635C41.8105 230.753 41.9158 231.843 42.0179 232.903L42.0041 232.843C43.1728 236.103 44.232 239.056 45.1508 241.617L44.9753 241.485C48.223 241.742 50.8752 241.951 52.7894 242.102C53.6635 242.183 54.3686 242.249 54.912 242.299C55.3969 242.35 55.651 242.387 55.65 242.406C55.6489 242.426 55.3916 242.429 54.9045 242.414C54.359 242.39 53.6518 242.36 52.7745 242.323C50.8571 242.216 48.2017 242.067 44.9487 241.885L44.819 241.878L44.7732 241.753C43.8268 239.202 42.7357 236.261 41.5309 233.013L41.5202 232.984L41.517 232.951C41.4075 231.892 41.2948 230.802 41.1799 229.685C41.1225 229.127 41.0651 228.561 41.0066 227.989C40.9428 227.413 40.912 226.835 40.7737 226.303C40.2835 224.122 38.2002 222.229 35.7841 222.215C35.6863 222.212 35.5906 222.206 35.498 222.211L35.7671 221.922C35.9723 227.108 36.168 232.016 36.3392 236.356L36.3328 236.307C37.1347 239.664 37.861 242.707 38.4767 245.285L38.3863 245.163C41.0183 246.758 43.159 248.055 44.7041 248.992C45.4017 249.428 45.9632 249.78 46.3992 250.052C46.7789 250.302 46.9756 250.439 46.966 250.456Z" fill="#FF9A6C"/>
<path d="M284.575 72.1182C275.414 37.2049 266.957 -3.42229 215.912 0.229515C215.912 0.229515 184.454 6.28254 169.516 29.4982C160.729 43.1547 153.115 102.023 151.601 148.518C151.601 148.525 151.601 148.533 151.601 148.54C151.539 150.433 152.327 163.63 152.274 165.483L287.394 176.731H311.736C311.736 176.731 310.21 152.065 302.874 128.14C295.736 104.869 287.819 84.4763 284.575 72.1182Z" fill="#263238"/>
<path d="M209.121 13.5318L212.314 10.4883L246.825 24.3968C251.817 24.6733 255.769 28.7239 255.921 33.7231L255.618 146.167C255.662 153.791 254.133 160.395 249.53 166.473L244.683 172.871C233.632 187.462 210.899 186.261 202.149 170.185C201.537 169.062 201.113 168.076 200.929 167.278C200.744 166.276 200.471 165.616 200.416 164.763C199.388 155.716 199.33 147.872 199.33 147.872C198.715 137.94 198.512 133.865 198.511 133.957C198.511 133.957 177.374 131.528 171.659 104.395C168.818 90.9014 169.354 72.3382 170.153 54.0675C171.258 28.7824 188.797 13.5073 209.121 13.5318Z" fill="#FFBF9D"/>
<path d="M218.004 72.1053C218.032 73.961 219.626 75.4679 221.564 75.4743C223.498 75.4817 225.048 73.9865 225.021 72.1308C224.993 70.2752 223.399 68.7662 221.465 68.7598C219.526 68.7534 217.977 70.2507 218.004 72.1053Z" fill="#263238"/>
<path d="M181.97 73.0467C181.998 74.9023 183.592 76.4092 185.529 76.4167C187.464 76.4241 189.014 74.9289 188.987 73.0732C188.959 71.2176 187.365 69.7086 185.43 69.7022C183.493 69.6937 181.942 71.192 181.97 73.0467Z" fill="#263238"/>
<path d="M173.761 61.2926C174.219 61.7286 176.778 59.6294 180.553 59.4486C184.321 59.2158 187.189 61.0193 187.575 60.5355C187.767 60.3206 187.282 59.5178 186.032 58.6989C184.801 57.8843 182.732 57.1357 180.382 57.2633C178.032 57.3941 176.098 58.3597 175.006 59.3019C173.89 60.2515 173.537 61.098 173.761 61.2926Z" fill="#263238"/>
<path d="M211.2 60.0084C211.701 60.3945 214.034 58.0432 217.768 57.4775C221.491 56.8575 224.529 58.357 224.864 57.8369C225.031 57.603 224.472 56.8533 223.139 56.1695C221.83 55.4846 219.698 54.9518 217.372 55.3209C215.047 55.6931 213.223 56.8511 212.233 57.9018C211.223 58.9588 210.958 59.8383 211.2 60.0084Z" fill="#263238"/>
<path d="M198.879 89.1614C198.886 88.9465 196.519 88.6583 192.693 88.3627C191.724 88.3106 190.802 88.166 190.606 87.5162C190.345 86.8303 190.695 85.7722 191.106 84.628C191.895 82.2501 192.721 79.7575 193.589 77.1457C197.023 66.4987 199.458 57.7616 199.029 57.6276C198.598 57.4925 195.465 66.0137 192.031 76.6618C191.208 79.2864 190.419 81.7876 189.67 84.1813C189.36 85.2947 188.795 86.5687 189.36 87.9895C189.656 88.6966 190.389 89.1837 191.016 89.3198C191.643 89.4772 192.185 89.4602 192.664 89.4644C196.501 89.4783 198.875 89.3762 198.879 89.1614Z" fill="#263238"/>
<path d="M198.511 133.956C198.511 133.956 216.97 134.22 234.65 122.35C234.65 122.35 226.39 141.744 198.887 140.558L198.511 133.956Z" fill="#FF9A6C"/>
<path d="M210.677 96.8356C209.615 95.551 207.92 94.8448 206.273 94.7502C203.898 94.6141 202.229 94.914 200.961 96.7771C200.367 97.8054 200.418 99.391 200.695 99.8259C200.972 100.262 200.765 100.272 201.189 100.578C202.721 101.685 204.488 102.396 206.315 102.818C208.142 103.241 210.253 102.804 211.201 101.32C212.042 100.002 211.739 98.1191 210.677 96.8356Z" fill="#FF9A6C"/>
<path d="M210.293 42.6682C210.777 43.6338 214.031 42.6416 218.02 42.5715C222.007 42.4109 225.355 43.2106 225.735 42.2195C225.9 41.7484 225.204 40.8774 223.778 40.0894C222.364 39.3014 220.205 38.6772 217.813 38.7442C215.423 38.8154 213.337 39.563 212.013 40.4308C210.678 41.2996 210.078 42.2078 210.293 42.6682Z" fill="#263238"/>
<path d="M174.305 54.4636C175.011 55.2867 177.567 54.268 180.692 54.0691C183.808 53.7607 186.495 54.3552 187.059 53.4289C187.305 52.9801 186.845 52.1422 185.647 51.3893C184.467 50.6374 182.526 50.0727 180.381 50.245C178.236 50.4215 176.413 51.2914 175.37 52.2241C174.309 53.1588 173.991 54.0606 174.305 54.4636Z" fill="#263238"/>
<path d="M255.232 81.7095C255.232 81.7095 240.707 85.222 220.09 40.826C213.072 25.7137 199.442 10.4886 199.442 10.4886L212.23 8.64355C212.23 8.64355 250.352 19.3831 250.993 19.8638C251.634 20.3444 260.611 39.5797 260.611 39.5797L255.232 81.7095Z" fill="#263238"/>
<path d="M250.467 79.9321C250.37 77.8957 252.483 72.9752 254.479 72.5605C259.808 71.4534 269.512 71.4003 270.286 85.0366C271.344 103.678 252.41 100.894 252.346 100.362C252.297 99.9469 250.803 86.9667 250.467 79.9321Z" fill="#FFBF9D"/>
<path d="M257.641 92.9777C257.719 92.9128 257.978 93.1861 258.54 93.4073C259.09 93.621 260.021 93.7391 260.971 93.319C262.899 92.4853 264.381 89.2642 264.28 85.8985C264.231 84.1991 263.784 82.604 263.107 81.3002C262.46 79.9688 261.524 79.0659 260.523 78.9468C259.524 78.7746 258.855 79.4073 258.656 79.9443C258.436 80.4803 258.575 80.8461 258.479 80.8823C258.43 80.9322 258.061 80.593 258.167 79.8157C258.223 79.4403 258.416 78.9883 258.835 78.6044C259.261 78.2152 259.908 77.9929 260.603 78.028C262.048 78.0472 263.415 79.2956 264.16 80.7259C264.983 82.1594 265.526 83.9502 265.58 85.858C265.674 89.6215 263.951 93.2457 261.3 94.1772C260.009 94.593 258.891 94.2602 258.302 93.8518C257.7 93.4264 257.578 93.0149 257.641 92.9777Z" fill="#FF9A6C"/>
<path d="M213.079 97.5891C213.023 98.0677 209.838 97.9975 206.056 98.7291C202.266 99.4225 199.325 100.645 199.098 100.221C198.867 99.8521 201.661 97.8529 205.749 97.0968C209.83 96.3152 213.161 97.1606 213.079 97.5891Z" fill="#263238"/>
<path d="M358.768 242.06C358.768 242.06 374.381 228.685 378.906 228.329C383.43 227.972 395.33 230.184 395.33 230.184C395.33 230.184 402.847 230.249 406.582 229.782C412.208 229.079 416.057 229.665 418.313 230.353C419.44 230.696 420.849 233.499 417.534 235.408C416.13 236.217 402.479 237.14 402.479 237.14L436.637 246.897L432.199 250.557C431.609 251.043 430.875 251.321 430.112 251.349L380.929 253.093L378.677 258.591L358.768 242.06Z" fill="#FFBF9D"/>
<path d="M396.049 242.069H412.002C412.002 242.069 417.598 234.639 419.622 231.543C421.391 228.837 423.526 228.041 425.387 228.68C425.87 228.846 426.265 229.208 426.518 229.652C426.895 230.31 426.905 231.115 426.547 231.783L419.534 244.877L423.21 243.635C423.21 243.635 430.575 236.424 432.004 234.758C433.433 233.091 438.671 226.066 443.315 231.186L436.885 238.329L443.315 233.805C443.315 233.805 448.434 229.4 451.173 234.639L432.056 250.759" fill="#FFBF9D"/>
<path d="M379.442 235.46C379.437 235.444 379.655 235.37 380.079 235.241C380.507 235.126 381.127 234.882 381.978 234.804C383.648 234.521 386.201 234.567 389.143 235.55C390.606 236.046 392.164 236.743 393.744 237.667C394.531 238.134 395.333 238.64 396.134 239.2C396.532 239.483 396.935 239.771 397.344 240.063C397.728 240.338 398.208 240.705 398.524 240.869C402.56 241.184 407.181 241.455 412.021 241.796L411.796 241.891C413.286 240.118 414.762 238.188 416.186 236.17C416.742 235.385 417.272 234.593 417.791 233.805C418.303 233.019 418.791 232.203 419.359 231.448C419.921 230.693 420.527 229.973 421.237 229.362C421.586 229.05 421.977 228.781 422.397 228.56C422.836 228.357 423.257 228.156 423.862 228.236L423.768 228.229C424.611 228.145 425.572 228.235 426.284 228.834C426.996 229.451 427.19 230.382 427.12 231.219L427.116 231.263L427.09 231.31C424.052 236.76 421.408 241.502 419.357 245.181L419.373 245.143C418.909 246.713 417.646 247.633 416.558 248.119C415.431 248.61 414.382 248.708 413.554 248.755C412.719 248.792 412.079 248.761 411.648 248.738C411.217 248.714 410.993 248.69 410.994 248.673C410.994 248.656 411.22 248.647 411.65 248.639C412.081 248.629 412.72 248.631 413.542 248.564C414.357 248.489 415.382 248.36 416.444 247.867C417.478 247.38 418.64 246.476 419.033 245.05L419.038 245.03L419.049 245.011C421.064 241.311 423.66 236.543 426.644 231.063L426.614 231.153C426.667 230.471 426.485 229.672 425.944 229.231C425.408 228.779 424.603 228.677 423.822 228.76L423.8 228.762L423.728 228.752C423.449 228.715 422.994 228.85 422.643 229.039C422.275 229.236 421.917 229.48 421.591 229.774C420.929 230.347 420.344 231.042 419.801 231.775C418.748 233.258 417.772 234.929 416.638 236.49C415.202 238.524 413.722 240.455 412.209 242.248L412.12 242.352L411.983 242.343C407.111 241.985 402.578 241.707 398.413 241.338C397.805 241.045 397.503 240.739 397.068 240.441C396.664 240.148 396.266 239.859 395.873 239.574C395.085 239.011 394.3 238.504 393.529 238.035C391.98 237.105 390.457 236.401 389.027 235.891C386.153 234.881 383.658 234.781 382.002 235C381.16 235.047 380.539 235.257 380.106 235.34C379.676 235.434 379.448 235.476 379.442 235.46Z" fill="#FF9A6C"/>
<path d="M443.313 231.185C443.342 231.211 443.118 231.521 442.69 232.063C442.261 232.604 441.629 233.374 440.837 234.317C439.255 236.205 437.041 238.787 434.57 241.615C432.056 244.399 429.966 247.121 428.129 248.802C427.224 249.652 426.424 250.271 425.827 250.632C425.228 250.994 424.857 251.114 424.846 251.086C424.825 251.045 425.159 250.862 425.706 250.455C426.252 250.046 426.998 249.394 427.855 248.522C429.595 246.796 431.615 244.063 434.141 241.263C436.617 238.429 438.881 235.884 440.541 234.06C441.37 233.147 442.05 232.416 442.527 231.919C443.007 231.423 443.284 231.16 443.313 231.185Z" fill="#FF9A6C"/>
<path d="M434.563 231.934C434.618 231.987 433.874 232.854 432.625 234.212C431.378 235.57 429.626 237.419 427.667 239.439C426.062 241.095 424.565 242.607 423.368 243.79L423.327 243.831L423.28 243.846C420.91 244.591 419.36 244.992 419.329 244.867C419.326 244.836 419.69 244.695 420.353 244.444C421.162 244.149 422.089 243.811 423.139 243.428L423.052 243.483C424.199 242.251 425.665 240.71 427.271 239.054C429.23 237.035 431.026 235.229 432.345 233.94C433.664 232.651 434.507 231.881 434.563 231.934Z" fill="#FF9A6C"/>
<path d="M305.839 162.706C305.839 162.706 328.768 168.614 331.017 199.777C332.298 217.531 322.849 274.565 322.849 274.565L356.708 239.79L386.884 260.786C386.884 260.786 345.832 310.98 336.357 318.526C326.884 326.071 311.797 338.21 306.885 337.225C301.973 336.24 301.973 313.604 301.973 313.604V188.611L305.839 162.706Z" fill="#FF725E"/>
<path d="M141.013 166.521C141.013 166.521 120.613 173.227 121.446 213.072C122.278 252.915 121.624 266.332 121.624 266.332L91.0539 233.98L65.6582 261.99C65.6582 261.99 94.0687 304.199 113.952 324.714C132.686 344.044 149.338 327.257 154.751 313.668C159.137 302.657 162.661 260.806 162.661 260.806L141.013 166.521Z" fill="#FF725E"/>
<g opacity="0.3">
<path d="M307.622 234.487C309.463 222.829 309.953 210.121 304.631 199.42C291.557 231.733 292.145 268.832 296.825 303.066L307.186 332.678C313.712 312.834 307.506 291.697 307.65 270.953C307.732 259.171 305.781 246.146 307.622 234.487Z" fill="black"/>
</g>
<path d="M136.764 191.891C136.764 191.891 150.401 283.606 153.04 291.637C155.68 299.667 155.68 323.335 155.68 323.335C155.68 323.335 141.367 349.978 140.488 368.502L312.839 368.856L301.641 292.754C301.256 289.913 301.23 281.167 301.385 278.306C302.11 264.903 303.145 236.151 306.986 218.482C311.453 197.937 305.44 162.777 305.44 162.777L253.958 150.097C241.773 167.606 211.372 167.842 199.38 150.097L141.279 166.521L136.764 191.891Z" fill="#FF725E"/>
<path d="M305.019 289.112C304.989 289.088 305.174 288.798 305.533 288.294C305.892 287.789 306.433 287.075 307.117 286.204C308.499 284.481 310.461 282.105 313.032 279.872C315.602 277.634 318.312 276.103 320.33 275.186C321.344 274.733 322.176 274.395 322.765 274.2C323.351 273.997 323.681 273.903 323.695 273.938C323.816 274.156 318.475 275.868 313.393 280.29C310.867 282.486 308.873 284.799 307.418 286.453C305.976 288.125 305.083 289.162 305.019 289.112Z" fill="#263238"/>
<path d="M145.424 287.17C145.32 287.2 144.919 285.305 143.617 282.505C142.336 279.716 139.992 276.052 136.404 273.008C132.815 269.963 128.817 268.25 125.857 267.44C122.883 266.613 120.948 266.526 120.96 266.418C120.962 266.385 121.445 266.377 122.314 266.446C123.183 266.514 124.437 266.69 125.957 267.061C128.984 267.784 133.097 269.474 136.763 272.585C140.429 275.694 142.768 279.475 143.975 282.343C144.588 283.781 144.968 284.99 145.176 285.838C145.386 286.685 145.457 287.163 145.424 287.17Z" fill="#263238"/>
<path d="M146.526 237.472C146.504 237.503 146.228 237.351 145.745 237.048C145.26 236.748 144.583 236.278 143.766 235.669C142.133 234.45 139.987 232.608 137.846 230.348C135.707 228.086 133.959 225.877 132.741 224.249C131.527 222.617 130.834 221.568 130.892 221.524C130.956 221.476 131.76 222.442 133.05 224.007C134.343 225.569 136.128 227.725 138.248 229.968C140.369 232.207 142.449 234.073 144.008 235.361C145.568 236.649 146.576 237.401 146.526 237.472Z" fill="#263238"/>
<path d="M266.84 287.114C266.848 287.12 266.8 287.191 266.7 287.325C266.577 287.484 266.427 287.676 266.246 287.911C265.83 288.412 265.264 289.195 264.429 290.11C262.818 291.994 260.319 294.581 256.967 297.485C253.622 300.397 249.362 303.542 244.39 306.647C239.42 309.755 233.728 312.791 227.637 315.714C221.537 318.627 215.642 321.208 210.308 323.606C204.971 325.999 200.194 328.213 196.245 330.198C192.293 332.178 189.15 333.889 187.009 335.124C185.928 335.724 185.113 336.232 184.544 336.55C184.284 336.696 184.071 336.815 183.897 336.914C183.749 336.993 183.672 337.03 183.666 337.021C183.661 337.013 183.729 336.961 183.866 336.866C184.033 336.755 184.235 336.62 184.484 336.456C185.035 336.107 185.833 335.569 186.898 334.939C189.01 333.645 192.13 331.879 196.067 329.85C200.002 327.816 204.769 325.561 210.098 323.141C215.423 320.717 221.308 318.122 227.397 315.215C233.475 312.298 239.155 309.285 244.12 306.213C249.087 303.145 253.349 300.048 256.712 297.187C260.081 294.335 262.612 291.8 264.267 289.967C265.124 289.076 265.714 288.317 266.157 287.84C266.357 287.619 266.52 287.438 266.654 287.289C266.77 287.168 266.833 287.108 266.84 287.114Z" fill="#263238"/>
<path d="M140.889 367.06C140.881 367.06 140.88 366.984 140.884 366.835C140.892 366.661 140.901 366.443 140.914 366.168C140.952 365.55 141.007 364.686 141.076 363.576C141.382 361.33 141.857 358.03 143.022 353.991C145.249 345.893 149.62 334.746 156.289 322.357L156.257 322.497C155.572 312.518 154.539 301.373 153.345 289.652C151.072 267.519 148.686 247.517 146.945 233.042C146.069 225.828 145.359 219.98 144.864 215.903C144.625 213.902 144.439 212.338 144.31 211.242C144.254 210.73 144.211 210.328 144.178 210.027C144.151 209.753 144.142 209.612 144.151 209.611C144.161 209.61 144.188 209.749 144.234 210.02C144.28 210.319 144.342 210.717 144.42 211.227C144.575 212.32 144.796 213.88 145.077 215.875C145.614 219.948 146.383 225.788 147.333 232.994C149.173 247.459 151.621 267.455 153.894 289.596C155.089 301.321 156.105 312.472 156.76 322.464L156.766 322.538L156.729 322.605C150.046 334.929 145.614 346.032 143.314 354.074C142.112 358.088 141.593 361.363 141.236 363.597C141.133 364.699 141.053 365.56 140.996 366.173C140.967 366.448 140.944 366.665 140.926 366.837C140.908 366.985 140.895 367.06 140.889 367.06Z" fill="#263238"/>
<path d="M309.11 194.037C309.12 194.037 309.126 194.191 309.131 194.491C309.132 194.818 309.134 195.26 309.136 195.826C309.122 196.999 309.156 198.731 309.045 200.957C308.922 205.413 308.464 211.849 307.674 219.777C306.893 227.707 305.742 237.123 304.579 247.586C303.421 258.048 302.26 269.572 301.893 281.707C301.5 293.849 302.688 305.397 304.247 315.798C305.779 326.211 307.584 335.525 308.983 343.366C310.409 351.202 311.457 357.567 312.049 361.983C312.369 364.188 312.548 365.909 312.676 367.075C312.735 367.637 312.779 368.078 312.813 368.402C312.841 368.701 312.85 368.855 312.841 368.856C312.831 368.857 312.803 368.705 312.757 368.408C312.71 368.086 312.646 367.648 312.565 367.089C312.402 365.927 312.188 364.213 311.835 362.014C311.178 357.61 310.072 351.263 308.597 343.437C307.149 335.607 305.303 326.299 303.742 315.874C302.154 305.466 300.945 293.873 301.34 281.692C301.708 269.528 302.887 257.993 304.073 247.53C305.264 237.064 306.456 227.656 307.286 219.738C308.126 211.821 308.642 205.397 308.832 200.948C308.975 198.726 308.976 196.997 309.026 195.825C309.048 195.259 309.065 194.818 309.076 194.491C309.089 194.19 309.101 194.037 309.11 194.037Z" fill="#263238"/>
<g opacity="0.3">
<path d="M144.655 213.684C141.576 242.502 145.261 273.225 154.647 300.645L144.655 213.684Z" fill="black"/>
</g>
<g opacity="0.3">
<path d="M251.265 315.292C238.205 327.287 225.102 337.539 209.038 343.248C221.148 344.278 233.366 339.646 242.73 331.896C252.092 324.147 258.752 315.977 263.041 304.605L251.265 315.292Z" fill="black"/>
</g>
<path d="M236.39 328.505C236.288 328.391 244.412 320.939 254.535 311.861C264.661 302.781 272.949 295.514 273.051 295.629C273.153 295.743 265.03 303.193 254.905 312.274C244.782 321.351 236.492 328.619 236.39 328.505Z" fill="#263238"/>
<path d="M265.275 103.444C265.275 107.123 262.292 110.106 258.613 110.106C254.933 110.106 251.95 107.123 251.95 103.444C251.95 99.7642 254.933 96.7812 258.613 96.7812C262.292 96.7812 265.275 99.7642 265.275 103.444Z" fill="#455A64"/>
<path d="M304.949 191.015C302.985 174.727 301.02 158.438 299.056 142.149L256.893 129.423C256.078 158.518 250.986 191.194 243.666 219.365C259.204 224.404 275.805 226.132 292.048 224.402C292.765 216.532 293.484 208.663 294.202 200.794C295.256 206.725 296.309 212.656 297.363 218.588C301.789 216.108 304.397 211.17 305.28 206.174C306.163 201.178 305.556 196.053 304.949 191.015Z" fill="#263238"/>
<path d="M271.95 224.535C271.95 224.535 271.983 224.324 272.073 223.92C272.171 223.496 272.309 222.902 272.488 222.128C272.864 220.534 273.411 218.219 274.113 215.247C275.491 209.264 277.534 200.613 279.523 189.818C281.523 179.034 283.472 166.078 284.112 151.586C284.75 137.119 283.866 121.045 279.86 104.788C275.914 88.5312 269.012 73.8282 260.311 62.2496C259.209 60.814 258.163 59.3614 256.983 58.047C255.825 56.7166 254.745 55.349 253.54 54.1261C252.952 53.5019 252.368 52.8808 251.788 52.2662C251.188 51.6707 250.592 51.0794 250.001 50.4934C248.833 49.3056 247.614 48.2081 246.446 47.0979C241.712 42.7177 237.089 38.8681 232.955 35.2535C228.815 31.6453 225.123 28.3104 222.068 25.1882C221.29 24.4225 220.587 23.6345 219.886 22.9018C219.179 22.1723 218.528 21.446 217.925 20.7303C217.314 20.022 216.73 19.3436 216.173 18.697C215.648 18.0249 215.147 17.3858 214.674 16.7796C213.699 15.5897 212.959 14.438 212.277 13.4724C211.582 12.5132 211.069 11.6539 210.658 10.9552C210.253 10.2725 209.941 9.74719 209.718 9.37286C209.509 9.01448 209.415 8.8252 209.415 8.8252C209.415 8.8252 209.543 8.99642 209.767 9.34523C210 9.71211 210.327 10.2268 210.753 10.8968C211.177 11.5837 211.705 12.4324 212.412 13.3788C213.107 14.3327 213.858 15.4706 214.843 16.6478C215.321 17.2465 215.826 17.8792 216.357 18.5439C216.919 19.184 217.507 19.8551 218.121 20.5559C218.729 21.2641 219.384 21.983 220.094 22.705C220.8 23.4303 221.505 24.2098 222.287 24.9691C225.355 28.0626 229.059 31.3699 233.211 34.9568C237.359 38.5512 241.998 42.3827 246.757 46.7598C247.933 47.8689 249.158 48.9653 250.334 50.1542C250.928 50.7412 251.528 51.3325 252.132 51.9291C252.716 52.5459 253.304 53.1669 253.896 53.7933C255.109 55.0194 256.199 56.3912 257.366 57.7258C258.554 59.0445 259.609 60.5014 260.719 61.9434C269.488 73.5645 276.438 88.3344 280.398 104.655C284.42 120.976 285.289 137.108 284.623 151.608C283.954 166.135 281.96 179.105 279.909 189.891C277.869 200.688 275.766 209.328 274.324 215.297C273.593 218.28 273.008 220.591 272.599 222.155C272.396 222.923 272.241 223.513 272.131 223.934C272.02 224.333 271.95 224.535 271.95 224.535Z" fill="#455A64"/>
</svg>
