<svg width="104" height="104" viewBox="0 0 104 104" fill="none" xmlns="http://www.w3.org/2000/svg">
<circle cx="52" cy="52" r="51" fill="white" stroke="#21A401" stroke-width="2"/>
<path d="M35.6997 33.1338C35.6997 33.1338 30.0094 36.3447 29.8649 36.9996C29.7204 37.6544 30.0094 44.5867 29.7904 45.097C29.5713 45.6073 26.5094 50.2025 26.5094 52.6096C26.5094 55.0167 26.4371 68.0751 26.4371 68.0751L22.2891 75.5877L32.3555 79.2345L37.3888 71.5751C37.3888 71.5751 40.7443 68.5854 41.4736 67.8561L40.2949 32.917L35.6997 33.1338Z" fill="white" stroke="#21A401" stroke-linecap="round" stroke-linejoin="round"/>
<path d="M33.0752 38.6768C33.0752 38.6768 35.7736 39.4806 36.722 40.429" stroke="#21A401" stroke-linecap="round" stroke-linejoin="round"/>
<path d="M33.876 43.491C33.876 43.491 34.6798 43.2652 36.134 43.4187" stroke="#21A401" stroke-linecap="round" stroke-linejoin="round"/>
<path d="M33.7223 21.8184C33.7223 21.8184 40.7901 70.0011 40.8962 71.7217C41.0024 73.4424 41.1107 75.5762 41.1107 75.5762C41.1107 75.5762 49.784 73.4356 55.4585 72.6859C61.133 71.9362 79.9789 70.3307 79.9789 70.3307C79.9789 70.3307 75.1601 37.2433 74.5189 32.8468C73.8776 28.4504 71.8408 15.1797 71.8408 15.1797C71.8408 15.1797 51.4979 16.9997 45.1798 16.9997C41.1288 17.0259 37.0851 17.3482 33.0811 17.9639L33.7223 21.8184Z" fill="white" stroke="#21A401" stroke-linecap="round" stroke-linejoin="round"/>
<path d="M41.8086 21.6153C42.3077 21.5769 42.5493 21.8163 42.6103 22.2927L42.6441 22.5547C42.6893 22.9047 42.5945 23.1327 42.3348 23.2321C42.6351 23.2953 42.7751 23.5256 42.8203 23.8666L42.8835 24.3634C42.8904 24.4963 42.9291 24.6256 42.9964 24.7405L42.6374 24.7698C42.5723 24.6519 42.5353 24.5205 42.529 24.386L42.4635 23.8847C42.4183 23.5234 42.2377 23.4331 41.9396 23.4466L41.6912 23.4647L41.8674 24.8195L41.5128 24.8466L41.0996 21.6718L41.8086 21.6153ZM41.9125 23.1282C42.1925 23.1056 42.3483 23.0018 42.3054 22.6563L42.2648 22.3492C42.2286 22.0624 42.1044 21.9202 41.8403 21.9405L41.497 21.9676L41.6483 23.1485L41.9125 23.1282Z" fill="#21A401"/>
<path d="M44.1931 22.8587L44.2337 23.1793L43.457 23.238L43.6037 24.3671L44.5567 24.2926L44.5996 24.6177L43.2921 24.7171L42.8789 21.5264L44.1863 21.4248L44.2292 21.75L43.2763 21.8222L43.4163 22.9129L44.1931 22.8587Z" fill="#21A401"/>
<path d="M46.0253 22.0707L46.0637 22.3575L45.7272 22.3823L45.6888 22.0775C45.6505 21.7907 45.515 21.6258 45.2553 21.6462C44.9956 21.6665 44.9076 21.8471 44.9437 22.1339L45.1695 23.8207C45.2079 24.1097 45.3479 24.2723 45.603 24.2542C45.8582 24.2362 45.9508 24.051 45.9147 23.7642L45.8605 23.3488L46.1969 23.3239L46.2488 23.7213C46.3098 24.2046 46.1247 24.541 45.6347 24.5771C45.1447 24.6133 44.8805 24.3129 44.8195 23.8297L44.605 22.1791C44.544 21.6958 44.7292 21.3594 45.2147 21.3233C45.7001 21.2871 45.9643 21.5852 46.0253 22.0707Z" fill="#21A401"/>
<path d="M46.3189 22.0469C46.2557 21.5592 46.4567 21.2272 46.9422 21.1889C47.4276 21.1505 47.7122 21.4485 47.7754 21.9363L47.9899 23.5869C48.0509 24.0702 47.8522 24.4089 47.3622 24.445C46.8722 24.4811 46.5944 24.1831 46.5334 23.6998L46.3189 22.0469ZM46.8834 23.6908C46.9218 23.9821 47.0664 24.1424 47.3193 24.1221C47.5722 24.1018 47.676 23.9234 47.6376 23.6321L47.4118 21.9453C47.3734 21.6585 47.2335 21.4937 46.9738 21.514C46.7141 21.5343 46.6193 21.715 46.6576 22.0018L46.8834 23.6908Z" fill="#21A401"/>
<path d="M49.5972 24.2359L49.2562 24.2608L48.4027 21.7633L48.7301 24.3059L48.423 24.3308L48.0098 21.1379L48.5043 21.1017L49.3556 23.6104L49.5317 21.0159L50.0262 20.9775L50.4372 24.1772L50.1007 24.2043L49.7711 21.6346L49.5972 24.2359Z" fill="#21A401"/>
<path d="M51.9722 24.0544L51.6312 24.0814L50.7777 21.5818L51.1051 24.1266L50.7957 24.1492L50.3848 20.9585L50.8793 20.9202L51.7306 23.4289L51.9044 20.8411L52.399 20.8027L52.8122 23.9956L52.4757 24.0205L52.1438 21.4531L51.9722 24.0544Z" fill="#21A401"/>
<path d="M54.0763 22.1L54.117 22.4206L53.3402 22.4793L53.487 23.6083L54.4399 23.5338L54.4828 23.859L53.1754 23.9583L52.7734 20.7745L54.0809 20.6729L54.1238 20.998L53.1709 21.0703L53.3109 22.1609L54.0763 22.1Z" fill="#21A401"/>
<path d="M55.1219 23.8165L54.8058 23.8413L54.3926 20.6484L54.8442 20.6146L55.8784 22.8726L55.5781 20.5649L55.8897 20.54L56.3029 23.7262L55.9348 23.7533L54.79 21.2423L55.1219 23.8165Z" fill="#21A401"/>
<path d="M56.9981 20.4498C57.4926 20.4114 57.7591 20.6936 57.8223 21.1859L58.03 22.7959C58.0933 23.2836 57.9058 23.602 57.4113 23.6404L56.6662 23.6969L56.2529 20.5062L56.9981 20.4498ZM57.3639 23.3175C57.6191 23.2972 57.7207 23.1278 57.6823 22.8365L57.47 21.1949C57.4339 20.9036 57.2894 20.7433 57.032 20.7727L56.6503 20.802L56.9778 23.3469L57.3639 23.3175Z" fill="#21A401"/>
<path d="M58.734 22.8885L58.6956 23.5411L58.3682 23.5659L58.5646 20.3392L59.0772 20.3008L60.0978 23.4463L59.7433 23.4734L59.5469 22.823L58.734 22.8885ZM58.734 22.5814L59.4407 22.525L58.8446 20.7185L58.734 22.5814Z" fill="#21A401"/>
<path d="M60.8366 23.3762L60.4686 20.5084L59.8815 20.5536L59.8408 20.2307L61.365 20.1133L61.4079 20.4362L60.8208 20.4813L61.1911 23.3491L60.8366 23.3762Z" fill="#21A401"/>
<path d="M61.9658 20.0664L62.3768 23.2593L62.0223 23.2864L61.6113 20.0958L61.9658 20.0664Z" fill="#21A401"/>
<path d="M62.402 20.8106C62.3388 20.3229 62.5375 19.9909 63.023 19.9525C63.5085 19.9141 63.7953 20.2122 63.8585 20.7L64.0707 22.3506C64.134 22.8338 63.933 23.1703 63.443 23.2087C62.953 23.2471 62.6775 22.9445 62.6143 22.4612L62.402 20.8106ZM62.9665 22.4545C63.0027 22.7458 63.1472 22.9061 63.4024 22.8858C63.6575 22.8654 63.7569 22.6871 63.7185 22.3958L63.4927 20.709C63.4543 20.42 63.3143 20.2574 63.0569 20.2777C62.7994 20.298 62.7024 20.4787 62.7385 20.7654L62.9665 22.4545Z" fill="#21A401"/>
<path d="M64.8192 23.0714L64.5008 23.0962L64.0898 19.9033L64.5415 19.8694L65.5734 22.1275L65.2753 19.8198L65.5892 19.7949L66.0002 22.9878L65.6344 23.0149L64.4873 20.4972L64.8192 23.0714Z" fill="#21A401"/>
<path d="M49.5907 28.9065L49.1797 25.7136L49.5319 25.6865L49.9023 28.5565L50.8055 28.4865L50.8484 28.8094L49.5907 28.9065Z" fill="#21A401"/>
<path d="M52.0222 26.9238L52.0628 27.2422L51.2861 27.3032L51.4328 28.4322L52.3858 28.3599L52.4287 28.6828L51.1212 28.7844L50.708 25.5915L52.0154 25.4922L52.0583 25.8151L51.1054 25.8896L51.2454 26.978L52.0222 26.9238Z" fill="#21A401"/>
<path d="M53.2252 28.6284L52.8504 25.7584L52.2633 25.8036L52.2227 25.4807L53.7469 25.3633L53.7898 25.6862L53.2027 25.7313L53.573 28.5991L53.2252 28.6284Z" fill="#21A401"/>
<path d="M54.8679 28.4992L54.4976 25.6315L53.9127 25.6767L53.8721 25.3537L55.3963 25.2363L55.4369 25.5592L54.8521 25.6044L55.2224 28.4721L54.8679 28.4992Z" fill="#21A401"/>
<path d="M56.9545 26.5442L56.9952 26.8626L56.2206 26.9236L56.3652 28.0526L57.3181 27.9781L57.361 28.3033L56.0535 28.4026L55.6426 25.212L56.9477 25.1104L56.9906 25.4355L56.0377 25.5078L56.1777 26.5962L56.9545 26.5442Z" fill="#21A401"/>
<path d="M57.9835 25.0391C58.4825 25.0008 58.7241 25.2401 58.7851 25.7166L58.8189 25.9762C58.8641 26.3262 58.7693 26.5566 58.5096 26.6537C58.8099 26.7192 58.9499 26.9472 58.9951 27.2882L59.0583 27.785C59.0655 27.9185 59.1042 28.0485 59.1712 28.1643L58.8122 28.1914C58.7471 28.0734 58.7101 27.9421 58.7038 27.8075L58.6383 27.3062C58.5931 26.9472 58.4125 26.8546 58.1144 26.8682L57.866 26.8885L58.0422 28.2433L57.6876 28.2704L57.2744 25.0798L57.9835 25.0391ZM58.0873 26.5498C58.3673 26.5295 58.5254 26.4256 58.4802 26.0779L58.4396 25.773C58.4034 25.4862 58.2793 25.344 58.0151 25.3643L57.6718 25.3892L57.8231 26.5701L58.0873 26.5498Z" fill="#21A401"/>
<path d="M63.3045 41.7651L71.5374 40.8867C71.1784 39.4776 70.93 38.4796 70.93 38.4028C70.93 38.2176 69.4126 37.888 68.7216 37.7457C68.5862 37.5199 68.3152 37.1134 68.2 37.0683H68.1684L68.1436 36.7702C68.2224 36.65 68.2776 36.5159 68.3062 36.3751C68.3397 36.1372 68.3473 35.8965 68.3287 35.657C68.392 35.5734 68.83 34.9931 68.8142 34.677C68.8137 34.6106 68.7965 34.5453 68.7642 34.4873C68.7318 34.4293 68.6853 34.3804 68.6291 34.3451C68.5865 34.3235 68.5397 34.3117 68.4921 34.3106C68.4444 34.3094 68.3971 34.3189 68.3536 34.3383L68.2678 34.3812L68.2 33.4576C68.454 33.431 68.7015 33.3607 68.9316 33.2499C68.961 33.2273 68.9587 33.2138 68.9587 33.2047C68.8621 33.0439 68.7409 32.8992 68.5997 32.7757C68.8097 32.7396 69.5187 32.5883 69.5232 32.2134C69.5148 32.1275 69.4846 32.0452 69.4357 31.9741C69.3867 31.903 69.3205 31.8455 69.2433 31.807C68.9678 31.6286 68.5387 31.527 68.3739 31.6015C68.2091 31.676 68.0058 31.7483 67.8771 31.7912C67.9765 31.6828 68.1278 31.4954 68.1029 31.3396C68.0985 31.3112 68.0873 31.2844 68.0705 31.2612C68.0536 31.2381 68.0314 31.2192 68.0058 31.2063C67.8306 31.139 67.6402 31.1215 67.4557 31.1558C67.2711 31.19 67.0997 31.2748 66.9603 31.4005C66.836 31.5155 66.7226 31.6417 66.6216 31.7776C66.4219 31.6447 66.1834 31.5826 65.9442 31.6015C65.6326 31.6218 65.4 31.7483 65.3887 31.8499C65.3867 31.8663 65.3909 31.8828 65.4005 31.8962C65.4102 31.9096 65.4245 31.9189 65.4407 31.9221C65.4908 31.9366 65.5371 31.962 65.5761 31.9967C65.4113 32.0644 64.8084 32.3489 64.7813 32.796C64.7802 32.8111 64.7802 32.8261 64.7813 32.8412V32.9112C64.7813 32.9225 64.7813 32.936 64.7813 32.9518C64.7813 32.9676 64.7813 32.9518 64.7813 32.9676V33.0263V33.0399V33.0918C64.7813 33.0918 64.7813 33.1076 64.7813 33.1144C64.7802 33.1302 64.7802 33.146 64.7813 33.1618V33.1867C64.7813 33.2047 64.7813 33.2228 64.7926 33.2409V33.2589L64.8061 33.3334V33.3538L64.8197 33.4125V33.4396C64.8197 33.4576 64.8197 33.4757 64.831 33.4938V33.5186C64.831 33.5434 64.831 33.5683 64.8491 33.5909L64.8694 33.6744V33.697C64.8694 33.7173 64.8807 33.7376 64.8852 33.7602V33.7851C64.8852 33.8054 64.8852 33.828 64.9032 33.8505V33.8686C64.9191 33.9251 64.9349 33.9838 64.9507 34.038V34.0538L64.971 34.1238V34.1396C64.971 34.1667 64.9868 34.1915 64.9936 34.2163C65.0094 34.2728 65.0274 34.3292 65.0432 34.3812C65.0432 34.406 65.0591 34.4331 65.0681 34.4557L65.1584 34.7425C65.1584 34.7425 65.1584 34.7425 65.1471 34.7425L65.1336 34.7221L65.1178 34.7063L65.0974 34.6815C65.0909 34.6761 65.0848 34.67 65.0794 34.6634L65.0681 34.6521L65.05 34.6363L65.0365 34.6251C64.9991 34.5937 64.9551 34.5712 64.9078 34.5596C64.8768 34.5512 64.8442 34.5504 64.8128 34.5571C64.7814 34.5637 64.7521 34.5777 64.7271 34.598C64.6828 34.6348 64.6478 34.6817 64.6251 34.7347C64.6023 34.7877 64.5924 34.8453 64.5961 34.9028C64.5981 35.1655 64.6989 35.4178 64.8784 35.6096C65.018 35.71 65.1786 35.7772 65.3481 35.806C65.3481 35.9392 65.4203 36.5896 65.7591 36.8583L65.82 37.3663C65.643 37.5545 65.4771 37.7528 65.3232 37.9602C65.2668 38.0415 65.2465 38.0754 65.2465 38.1341C64.5691 38.4322 63.2549 39.0373 63.2887 39.2134C63.3858 39.2834 63.3587 40.3131 63.3045 41.7651Z" fill="#21A401"/>
<path d="M72.8059 39.3926C72.8117 39.0091 72.7036 38.6324 72.4953 38.3103C72.287 37.9881 71.9878 37.735 71.6357 37.5829C71.2835 37.4307 70.8941 37.3865 70.5168 37.4556C70.1395 37.5247 69.7911 37.7042 69.5158 37.9714C69.2405 38.2385 69.0505 38.5812 68.97 38.9563C68.8895 39.3314 68.9219 39.7219 69.0633 40.0785C69.2047 40.4351 69.4487 40.7418 69.7644 40.9597C70.0801 41.1777 70.4533 41.2971 70.8369 41.303C71.0916 41.3068 71.3446 41.2605 71.5814 41.1666C71.8182 41.0727 72.0342 40.9331 72.2171 40.7557C72.3999 40.5783 72.546 40.3666 72.6471 40.1327C72.7481 39.8989 72.8021 39.6474 72.8059 39.3926Z" fill="#92E3A9" stroke="#21A401" stroke-linecap="round" stroke-linejoin="round"/>
<path d="M70.0723 39.0089L70.9687 40.0499L72.73 36.8818" stroke="#21A401" stroke-width="3" stroke-linecap="round" stroke-linejoin="round"/>
<path d="M43.7471 36.081L60.6894 34.541" stroke="#21A401" stroke-linecap="round" stroke-linejoin="round"/>
<path d="M44.0527 38.5439L60.995 37.0039" stroke="#21A401" stroke-linecap="round" stroke-linejoin="round"/>
<path d="M52.207 40.2962L61.3025 39.4697" stroke="#21A401" stroke-linecap="round" stroke-linejoin="round"/>
<path d="M44.3604 41.0095L50.5407 40.4473" stroke="#21A401" stroke-linecap="round" stroke-linejoin="round"/>
<path d="M44.6709 43.4726L61.6132 41.9326" stroke="#21A401" stroke-linecap="round" stroke-linejoin="round"/>
<path d="M56.0381 45.5049L72.391 43.9355" stroke="#21A401" stroke-linecap="round" stroke-linejoin="round"/>
<path d="M45.1299 46.5531L54.8034 45.625" stroke="#21A401" stroke-linecap="round" stroke-linejoin="round"/>
<path d="M66.2471 47.9568L72.8542 47.3223" stroke="#21A401" stroke-linecap="round" stroke-linejoin="round"/>
<path d="M45.5928 49.9419L64.3731 48.1377" stroke="#21A401" stroke-linecap="round" stroke-linejoin="round"/>
<path d="M68.375 51.1871L73.3179 50.7129" stroke="#21A401" stroke-linecap="round" stroke-linejoin="round"/>
<path d="M54.0205 52.5657L66.6973 51.3486" stroke="#21A401" stroke-linecap="round" stroke-linejoin="round"/>
<path d="M46.0566 53.33L52.8444 52.6797" stroke="#21A401" stroke-linecap="round" stroke-linejoin="round"/>
<path d="M68.3916 54.6187L73.7771 54.1016" stroke="#21A401" stroke-linecap="round" stroke-linejoin="round"/>
<path d="M46.5156 56.7184L65.1582 54.9277" stroke="#21A401" stroke-linecap="round" stroke-linejoin="round"/>
<path d="M54.2109 59.4131L74.2423 57.4893" stroke="#21A401" stroke-linecap="round" stroke-linejoin="round"/>
<path d="M46.9785 60.1072L51.6166 59.6602" stroke="#21A401" stroke-linecap="round" stroke-linejoin="round"/>
<path d="M62.2393 62.0757L74.7038 60.8789" stroke="#21A401" stroke-linecap="round" stroke-linejoin="round"/>
<path d="M47.4434 63.4957L60.5311 62.2402" stroke="#21A401" stroke-linecap="round" stroke-linejoin="round"/>
<path d="M73.0283 64.4711L75.1645 64.2656" stroke="#21A401" stroke-linecap="round" stroke-linejoin="round"/>
<path d="M60.6895 65.6562L71.1556 64.6514" stroke="#21A401" stroke-linecap="round" stroke-linejoin="round"/>
<path d="M47.9023 66.8853L58.8562 65.833" stroke="#21A401" stroke-linecap="round" stroke-linejoin="round"/>
<path d="M34.3135 51.2255C34.3135 51.2255 35.5532 47.1406 36.138 45.3161C36.7228 43.4916 37.0864 42.0329 37.5245 40.5019C37.9625 38.9709 37.7503 35.6154 37.7503 34.9584C37.7503 34.3013 41.6906 34.5203 42.2009 34.5925C42.7112 34.6648 44.0977 43.2748 43.6596 45.0248C43.2216 46.7748 41.6274 48.2335 41.6274 49.2542C41.6274 50.2748 41.5528 52.2461 41.5528 52.6842C41.5528 53.1222 42.648 57.4261 42.7203 59.3206C42.7925 61.2152 41.6996 64.0626 41.4806 64.3539C41.2616 64.6452 36.1561 70.7736 36.1561 70.7736" fill="white"/>
<path d="M34.3135 51.2255C34.3135 51.2255 35.5532 47.1406 36.138 45.3161C36.7228 43.4916 37.0864 42.0329 37.5244 40.5019C37.9625 38.9709 37.7503 35.6154 37.7503 34.9584C37.7503 34.3013 41.6906 34.5203 42.2009 34.5925C42.7112 34.6648 44.0977 43.2748 43.6596 45.0248C43.2216 46.7748 41.6274 48.2335 41.6274 49.2542C41.6274 50.2748 41.5528 52.2461 41.5528 52.6842C41.5528 53.1222 42.648 57.4261 42.7203 59.3206C42.7925 61.2152 41.6996 64.0626 41.4806 64.3539C41.2616 64.6452 36.1561 70.7736 36.1561 70.7736" stroke="#21A401" stroke-linecap="round" stroke-linejoin="round"/>
<path d="M38.1787 39.4809C38.1787 39.4809 39.8565 38.7516 41.2429 39.3341C41.2429 39.3341 41.3897 35.9064 40.5858 34.958" stroke="#21A401" stroke-linecap="round" stroke-linejoin="round"/>
<path d="M37.3779 42.5455C38.2164 42.7054 39.0837 42.6029 39.8618 42.252" stroke="#21A401" stroke-linecap="round" stroke-linejoin="round"/>
<path d="M37.5967 41.8127C37.5967 41.8127 39.1277 40.9388 40.8054 41.5869" stroke="#21A401" stroke-linecap="round" stroke-linejoin="round"/>
<path d="M40.443 41.0117C40.0943 40.8663 39.7186 40.7976 39.3411 40.81C38.9636 40.8225 38.5932 40.9159 38.2549 41.0839" stroke="#21A401" stroke-linecap="round" stroke-linejoin="round"/>
<path d="M23.3343 72.2503C23.3343 72.2503 27.9385 71.7151 31.6892 74.1787C35.4398 76.6422 36.5147 79.7448 36.5147 79.7448L33.4098 86.1713C33.4098 86.1713 28.0469 80.9235 24.4069 79.6387C20.7669 78.3538 20.2295 78.2477 20.2295 78.2477L23.3343 72.2503Z" fill="white" stroke="#21A401" stroke-linecap="round" stroke-linejoin="round"/>
<path d="M16.6445 81.1777C19.5529 87.9 24.5862 93.7778 32.0626 98.3639L36.3755 85.669C36.3755 85.669 33.3768 79.8884 29.8429 77.96C26.3091 76.0316 20.3139 75.2842 20.3139 75.2842L16.6445 81.1777Z" fill="#21A401" stroke="#21A401" stroke-linecap="round" stroke-linejoin="round"/>
<path d="M42.5127 31.4611L70.5444 29.3047" stroke="#92E3A9" stroke-linecap="round" stroke-linejoin="round"/>
</svg>
