<svg width="98" height="98" viewBox="0 0 98 98" fill="none" xmlns="http://www.w3.org/2000/svg">
<circle cx="48.7881" cy="48.7881" r="47.7881" fill="white" stroke="#9747FF" stroke-width="2"/>
<path d="M19.2276 48.3658C19.2405 48.1181 19.3118 47.877 19.4355 47.662C19.5592 47.447 19.7318 47.2643 19.9395 47.1286L56.4461 26.0481C56.6664 25.9375 56.9095 25.8799 57.156 25.8799C57.4025 25.8799 57.6455 25.9375 57.8658 26.0481L58.6771 26.5125C58.8847 26.6479 59.0575 26.8302 59.1816 27.0448C59.3056 27.2594 59.3773 27.5002 59.391 27.7477V55.7361C59.3769 55.9837 59.3049 56.2246 59.181 56.4394C59.057 56.6543 58.8844 56.8371 58.6771 56.9732L22.1705 78.0538C21.9499 78.1635 21.7069 78.2205 21.4606 78.2205C21.2143 78.2205 20.9713 78.1635 20.7508 78.0538L19.9395 77.5893C19.7318 77.4536 19.559 77.2708 19.435 77.0559C19.3109 76.841 19.2392 76.5999 19.2256 76.3522L19.2276 48.3658Z" fill="#BA68C8"/>
<path d="M57.8801 26.0483L39.8418 17.0027C39.6262 16.87 39.386 16.7824 39.1357 16.7451C38.8853 16.7078 38.63 16.7216 38.3851 16.7856C38.1403 16.8497 37.9109 16.9627 37.7109 17.1178C37.5109 17.273 37.3444 17.467 37.2214 17.6882L19.4346 47.6622L20.3777 48.2058L58.807 26.5958L57.8801 26.0483Z" fill="#BA68C8"/>
<path opacity="0.1" d="M57.8801 26.0483L39.8418 17.0027C39.6262 16.87 39.386 16.7824 39.1357 16.7451C38.8853 16.7078 38.63 16.7216 38.3851 16.7856C38.1403 16.8497 37.9109 16.9627 37.7109 17.1178C37.5109 17.273 37.3444 17.467 37.2214 17.6882L19.4346 47.6622L20.3777 48.2058L58.807 26.5958L57.8801 26.0483Z" fill="black"/>
<path opacity="0.1" d="M19.2256 48.3636V76.352C19.2393 76.5997 19.3113 76.8407 19.4357 77.0553C19.5601 77.2699 19.7334 77.4522 19.9415 77.5872L20.7528 78.0536C20.8179 78.0882 20.8857 78.1174 20.9556 78.1408C21.051 78.1733 21.1496 78.1957 21.2497 78.2078C21.4374 78.2325 21.628 78.2256 21.8135 78.1875C21.8601 78.1875 21.9068 78.1652 21.9514 78.151C21.9801 78.142 22.0079 78.1304 22.0346 78.1165C21.9809 78.1403 21.9229 78.1526 21.8642 78.1526C21.8055 78.1526 21.7475 78.1403 21.6938 78.1165C21.6177 78.0662 21.5569 77.9958 21.5182 77.9131C21.4796 77.8305 21.4646 77.7387 21.4748 77.648V49.6596C21.4675 49.5325 21.4992 49.4062 21.5655 49.2975C21.6318 49.1888 21.7296 49.1029 21.846 49.0512L21.4748 48.8362L19.4467 47.668C19.3158 47.8777 19.2398 48.1169 19.2256 48.3636Z" fill="black"/>
<path opacity="0.1" d="M59.2303 27.119L42.776 53.4504L41.9647 53.2922C41.3439 53.1711 40.7014 53.2299 40.1129 53.4617C39.5243 53.6934 39.0142 54.0885 38.6426 54.6003L37.6448 55.9754L21.8253 49.0452L20.3711 48.2056L58.8085 26.5957C58.9841 26.7388 59.1278 26.917 59.2303 27.119Z" fill="black"/>
<path d="M58.8073 26.5959C58.7088 26.5211 58.6051 26.4533 58.4969 26.3931L40.7973 17.5463C40.5811 17.411 40.3396 17.3212 40.0875 17.2825C39.8355 17.2437 39.5781 17.2569 39.3313 17.321C39.0845 17.3852 38.8534 17.4991 38.6521 17.6557C38.4508 17.8123 38.2836 18.0084 38.1607 18.2319L20.3779 48.2058L58.8073 26.5959Z" fill="#BA68C8"/>
<path opacity="0.2" d="M59.0628 56.6263C59.2609 56.3759 59.3777 56.0708 59.3974 55.7521L42.7666 53.4502L59.0628 56.6263Z" fill="black"/>
<path opacity="0.2" d="M37.647 55.9756L21.6247 78.0641C21.57 78.0092 21.5279 77.943 21.5013 77.8701C21.4747 77.7973 21.4642 77.7196 21.4706 77.6423V77.3381L37.647 55.9756Z" fill="black"/>
<path d="M58.97 43.7435C58.6617 43.999 58.3088 44.1288 57.9032 44.5243C57.6466 44.8159 57.3229 45.0408 56.9601 45.1794C56.4916 45.364 56.0515 45.3092 54.7535 45.1024C53.1634 44.8468 52.4799 44.5811 51.7944 43.995C50.9933 43.3115 49.2025 41.2509 48.3344 40.4396C47.4197 39.5838 46.1582 39.9144 46.1582 39.9144C46.5482 41.1835 47.1281 42.3863 47.8781 43.4819C48.5717 44.4696 49.8677 45.4147 50.4558 45.9035C51.3928 46.6843 51.8918 46.9926 53.9544 47.1467C55.51 47.2644 55.7169 47.3029 56.9966 47.2644C57.457 47.2502 57.745 47.2461 58.4974 47.1832C58.8253 47.164 59.1498 47.1075 59.4649 47.0149C59.8216 46.9323 60.1636 46.7955 60.4789 46.6093C60.8908 46.3419 61.2229 45.9685 61.4403 45.5283C61.5606 45.2872 61.6218 45.0209 61.6188 44.7515C61.6164 44.4805 61.5172 44.2193 61.3389 44.0153C61.305 43.9723 61.2602 43.9394 61.2091 43.9199C61.1117 43.9023 61.0112 43.9234 60.9292 43.9788C60.4404 44.2303 59.9496 44.573 59.4405 44.7697C59.0085 44.936 58.682 44.9928 58.7124 44.9056C58.7428 44.8184 59.0045 44.7393 59.2722 44.4371C59.5399 44.1349 59.6068 43.7151 59.4344 43.5853C59.2621 43.4555 59.2803 43.488 58.97 43.7435Z" fill="#B16668"/>
<path d="M45.7891 39.9081C46.2793 39.6725 46.8356 39.6124 47.3649 39.7378C48.1762 39.9669 48.811 40.4922 49.5756 41.3116C50.3402 42.131 51.6301 43.4614 51.6301 43.4614C51.6301 43.4614 50.9953 45.0697 49.5675 45.6397L46.574 42.8712L45.7891 39.9081Z" fill="#455A64"/>
<path d="M41.3899 79.7656H43.2051V76.6585H41.3899V79.7656Z" fill="#B16668"/>
<path d="M46.4131 77.4409L48.2262 77.5038L48.3175 74.2162L46.4131 74.1533V77.4409Z" fill="#B16668"/>
<path d="M40.619 53.4648C40.619 55.1968 40.9252 65.2767 40.9252 65.2767C40.8826 65.7756 40.4019 66.6619 40.3654 68.4589C40.3107 71.063 41.3146 78.2143 41.3146 78.2143C41.6289 78.3697 41.9736 78.4539 42.3242 78.4609C42.6747 78.4679 43.0225 78.3976 43.3428 78.2548C43.3428 78.2548 44.1662 68.5603 44.4907 65.9825C44.7746 63.7313 45.2553 57.6184 45.2553 57.6184L46.1112 64.9644C45.9011 65.9104 45.8253 66.8813 45.8861 67.8484C45.9712 69.041 46.3059 76.4254 46.3059 76.4254C46.6219 76.6042 46.9735 76.7113 47.3356 76.739C47.6977 76.7667 48.0614 76.7143 48.401 76.5857C48.401 76.5857 49.6807 66.0596 49.703 64.9644C49.7274 63.7171 49.2284 50.9844 49.2284 50.9844L40.619 53.4648Z" fill="#37474F"/>
<path d="M41.8117 40.7134C41.4116 40.8904 41.097 41.2174 40.9355 41.624C40.7497 42.1254 40.6596 42.6572 40.6698 43.1918V46.7492L40.6191 53.4623C43.2233 54.8354 46.5352 54.9266 49.3138 52.8985C49.3138 52.8985 49.1576 44.2566 49.1576 42.843C49.1576 42.7781 49.1576 42.7132 49.1576 42.6401C49.0562 40.612 47.0686 39.2349 45.1115 39.7379L43.4667 40.1617L41.8117 40.7134Z" fill="#F0F0F0"/>
<path d="M48.8966 34.6713C49.2131 33.3304 48.3827 31.9868 47.0418 31.6703C45.7009 31.3539 44.3573 32.1843 44.0408 33.5252C43.7243 34.8661 44.5548 36.2097 45.8957 36.5262C47.2366 36.8426 48.5802 36.0122 48.8966 34.6713Z" fill="#263238"/>
<path d="M42.1582 35.874C42.1582 35.874 42.5638 37.7724 42.7261 38.0847C42.8322 38.2798 43.0106 38.4254 43.223 38.4903L43.1946 37.1558L42.1582 35.874Z" fill="#263238"/>
<path d="M42.665 33.1548C42.524 33.1382 42.3811 33.1541 42.2472 33.2012C42.1132 33.2483 41.9918 33.3254 41.8923 33.4266C41.5597 33.7673 41.7442 34.8321 42.158 35.8746L42.9206 35.9618L42.665 33.1548Z" fill="#263238"/>
<path d="M43.1482 35.9617C42.9961 36.053 42.7791 35.7589 42.5905 35.5561C42.4019 35.3533 41.7792 35.0917 41.4811 35.7366C41.183 36.3816 41.7509 37.2638 42.2356 37.4159C43.0691 37.6775 43.1949 37.1441 43.1949 37.1441L43.2557 40.2431C44.2921 41.5716 47.1701 41.46 45.9714 40.0708V39.1561C46.3434 39.2159 46.7208 39.2356 47.097 39.2149C47.7055 39.1196 48.0949 38.6348 48.2815 37.9716C48.5796 36.9048 48.6871 36.0449 48.4397 33.9478C48.1618 31.6499 45.4887 31.6256 44.0467 32.5281C42.6047 33.4306 43.1482 35.9617 43.1482 35.9617Z" fill="#B16668"/>
<path d="M43.1484 36.2254C43.0714 36.2254 42.7813 35.7427 42.5907 35.5683C42.327 35.329 42.6657 33.1609 42.6657 33.1609C42.5972 32.9729 42.5849 32.7691 42.6303 32.5742C42.6756 32.3794 42.7768 32.202 42.9213 32.0636C43.2823 31.658 43.6737 31.4146 44.7142 31.3599C45.4252 31.3571 46.136 31.3903 46.8437 31.4593C47.872 31.5282 48.2492 31.2767 48.8394 31.1104C49.2917 30.9847 49.3424 32.6133 48.2026 33.1528C48.2026 33.1528 47.8314 33.3921 46.8539 33.5117C45.9524 33.5798 45.0466 33.5628 44.1483 33.461C43.8664 33.4225 43.8056 33.6963 43.6514 34.4467C43.5176 35.0977 43.408 36.2132 43.1484 36.2254Z" fill="#263238"/>
<path d="M42.6669 33.3226L41.7441 32.8257C41.7738 32.7636 41.8158 32.7081 41.8675 32.6627C41.9192 32.6173 41.9796 32.5828 42.045 32.5614C42.1104 32.54 42.1795 32.5321 42.248 32.5381C42.3166 32.5441 42.3832 32.564 42.4439 32.5965C42.5673 32.6655 42.6594 32.7795 42.701 32.9148C42.7426 33.05 42.7304 33.1961 42.6669 33.3226Z" fill="#263238"/>
<path d="M45.9668 39.162C45.9668 39.162 44.5999 38.8861 44.1212 38.6326C43.8399 38.4851 43.609 38.257 43.458 37.9775C43.5314 38.2575 43.6596 38.5202 43.8352 38.7503C44.1841 39.1965 45.9668 39.527 45.9668 39.527V39.162Z" fill="#9A4A4D"/>
<path d="M45.9001 35.6166C45.9001 35.6525 45.8931 35.6881 45.8793 35.7214C45.8655 35.7546 45.8454 35.7848 45.8199 35.8102C45.7945 35.8356 45.7643 35.8558 45.7311 35.8695C45.6979 35.8833 45.6623 35.8904 45.6263 35.8904C45.5904 35.8904 45.5548 35.8833 45.5216 35.8695C45.4883 35.8558 45.4582 35.8356 45.4327 35.8102C45.4073 35.7848 45.3871 35.7546 45.3734 35.7214C45.3596 35.6881 45.3525 35.6525 45.3525 35.6166C45.3525 35.5806 45.3596 35.545 45.3734 35.5118C45.3871 35.4786 45.4073 35.4484 45.4327 35.423C45.4582 35.3975 45.4883 35.3774 45.5216 35.3636C45.5548 35.3499 45.5904 35.3428 45.6263 35.3428C45.6623 35.3428 45.6979 35.3499 45.7311 35.3636C45.7643 35.3774 45.7945 35.3975 45.8199 35.423C45.8454 35.4484 45.8655 35.4786 45.8793 35.5118C45.8931 35.545 45.9001 35.5806 45.9001 35.6166Z" fill="#263238"/>
<path d="M45.6102 34.5845L45.0241 34.9091C44.9815 34.8286 44.9719 34.7347 44.9973 34.6473C45.0226 34.5599 45.081 34.4858 45.16 34.4405C45.1988 34.4197 45.2415 34.4068 45.2854 34.4028C45.3293 34.3987 45.3736 34.4035 45.4157 34.417C45.4577 34.4304 45.4966 34.4522 45.53 34.481C45.5634 34.5098 45.5907 34.545 45.6102 34.5845Z" fill="#263238"/>
<path d="M45.8432 37.5156L46.4699 37.7489C46.4558 37.7905 46.4335 37.829 46.4043 37.8619C46.3751 37.8948 46.3396 37.9215 46.2999 37.9404C46.2602 37.9593 46.217 37.9701 46.1731 37.972C46.1291 37.9739 46.0852 37.967 46.044 37.9517C45.9614 37.9181 45.8947 37.8544 45.8574 37.7734C45.8201 37.6924 45.815 37.6002 45.8432 37.5156Z" fill="#9A4A4D"/>
<path d="M48.2669 34.8052L47.7314 34.3996C47.7568 34.3635 47.7892 34.3329 47.8267 34.3097C47.8641 34.2865 47.9059 34.2711 47.9495 34.2645C47.9931 34.2578 48.0376 34.2601 48.0803 34.2711C48.123 34.2821 48.163 34.3017 48.1979 34.3286C48.2676 34.3845 48.3135 34.4649 48.3263 34.5533C48.3391 34.6418 48.3179 34.7318 48.2669 34.8052Z" fill="#263238"/>
<path d="M48.0983 35.5418C48.0963 35.596 48.0784 35.6484 48.0469 35.6924C48.0153 35.7365 47.9714 35.7702 47.9208 35.7895C47.8701 35.8088 47.8149 35.8127 47.762 35.8008C47.7091 35.7888 47.661 35.7616 47.6235 35.7224C47.586 35.6833 47.5609 35.634 47.5513 35.5806C47.5416 35.5273 47.5479 35.4723 47.5694 35.4225C47.5908 35.3727 47.6265 35.3304 47.6719 35.3008C47.7172 35.2711 47.7703 35.2555 47.8245 35.2559C47.8614 35.2564 47.8977 35.2642 47.9315 35.2789C47.9653 35.2936 47.9958 35.3149 48.0213 35.3415C48.0468 35.3681 48.0667 35.3996 48.0799 35.4339C48.0932 35.4683 48.0994 35.505 48.0983 35.5418Z" fill="#263238"/>
<path d="M46.7051 35.2822L46.7943 36.9311L47.6563 36.637L46.7051 35.2822Z" fill="#9A4A4D"/>
<path d="M43.2069 78.8709V78.6133C43.3793 78.6883 43.7829 80.2358 44.5029 80.8848C45.0748 81.406 45.8556 82.0084 46.0544 82.5905C46.2532 83.1726 44.9673 83.5315 44.4319 83.4362C43.8113 83.3267 42.7343 82.8886 42.4646 82.483C42.1948 82.0774 42.059 81.4791 41.8561 81.183C41.6533 80.8868 41.1301 80.5522 41.0104 80.2094C40.9455 80.0208 41.0226 79.601 41.1138 79.2562C41.2051 78.9114 41.2903 78.5829 41.3998 78.6133V78.8161C41.6575 79.02 41.9779 79.1283 42.3064 79.1224C42.564 79.1244 43.2089 79.0737 43.2069 78.8709Z" fill="#263238"/>
<path d="M48.2468 76.9439C48.3401 76.9439 48.4172 77.0798 48.624 77.3049C48.9351 77.6188 49.2963 77.8786 49.6929 78.0736C50.3723 78.4143 51.6926 78.9376 52.2909 79.2053C52.6641 79.3736 52.6459 79.8259 52.2605 80.0814C51.8752 80.337 50.9422 80.5236 49.8267 80.2741C49.2183 80.1382 48.4233 79.5744 47.9203 79.6048C47.4173 79.6353 46.4783 79.6271 46.1071 79.3716C45.736 79.116 45.886 78.5705 45.9895 78.102C46.1051 77.5889 46.2471 76.7918 46.4174 76.8263V77.0027C46.6344 77.3333 47.7601 77.4672 48.2427 77.2238L48.2468 76.9439Z" fill="#263238"/>
<path d="M45.2471 57.6161C46.1852 57.3241 47.0479 56.8298 47.7741 56.168C47.7741 56.168 47.2874 57.0806 45.8373 57.9304L46.0401 64.3455L45.2471 57.6161Z" fill="#263238"/>
<path d="M80.634 19.1728C80.6036 18.9457 80.419 18.8625 80.2 18.9903L56.3632 32.7553C56.234 32.8372 56.1273 32.9502 56.0529 33.0839L55.2295 32.6073C55.3033 32.4737 55.4101 32.3613 55.5398 32.2807L79.3766 18.5157C79.4974 18.4361 79.6374 18.3902 79.782 18.3829C79.9266 18.3756 80.0705 18.407 80.1988 18.4741C80.327 18.5411 80.4351 18.6413 80.5116 18.7642C80.5881 18.887 80.6304 19.0281 80.634 19.1728Z" fill="#FAFAFA"/>
<path d="M56.2805 76.5553C56.1973 76.5859 56.1109 76.607 56.023 76.6181C55.8477 76.6418 55.6694 76.6114 55.5119 76.5309C55.3908 76.4471 55.2911 76.3361 55.2207 76.2069C55.1503 76.0776 55.1111 75.9337 55.1062 75.7866V33.0414C55.1052 33.0239 55.1052 33.0063 55.1062 32.9887C55.1103 32.9519 55.1164 32.9153 55.1245 32.8792C55.1488 32.7842 55.1856 32.6928 55.234 32.6074L56.0574 33.084C55.9788 33.2148 55.9349 33.3635 55.9297 33.516V76.2612C55.9297 76.464 56.029 76.5755 56.171 76.5755C56.1899 76.5775 56.2089 76.5775 56.2278 76.5755C56.246 76.5705 56.2636 76.5637 56.2805 76.5553Z" fill="#E0E0E0"/>
<path d="M55.9258 33.5181V76.2633C55.9258 76.5431 56.1286 76.6567 56.3639 76.5147L80.2007 62.7518C80.3281 62.6681 80.4342 62.5558 80.5103 62.4237C80.5864 62.2916 80.6304 62.1434 80.6387 61.9912V19.246C80.6387 18.9662 80.4359 18.8526 80.2007 18.9925L56.3639 32.7575C56.2358 32.8406 56.1293 32.9528 56.0532 33.085C55.977 33.2173 55.9333 33.3657 55.9258 33.5181Z" fill="#FAFAFA"/>
<path d="M60.4424 39.016C60.4012 38.9569 60.3832 38.8848 60.3917 38.8132V34.5196C60.3882 34.4277 60.4055 34.3362 60.4424 34.2519C60.4766 34.178 60.5334 34.1169 60.6047 34.0775L60.9555 33.8747C61.0353 33.8301 61.0901 33.824 61.1198 33.8564C61.1609 33.9201 61.1782 33.9963 61.1685 34.0714V38.3609C61.1718 38.4507 61.1551 38.54 61.1198 38.6226C61.0849 38.6961 61.0273 38.7565 60.9555 38.795L60.6047 38.9978C60.5296 39.0404 60.4708 39.0465 60.4424 39.016Z" fill="#BA68C8"/>
<path d="M61.8126 38.2233C61.7725 38.1638 61.7552 38.0918 61.7639 38.0205V33.7188C61.7611 33.6284 61.7777 33.5385 61.8126 33.4551C61.8494 33.3822 61.9074 33.3222 61.9789 33.2827L62.271 33.1164C62.285 33.1013 62.3026 33.0899 62.3222 33.0835C62.3418 33.077 62.3628 33.0756 62.3831 33.0795C62.4033 33.0833 62.4223 33.0923 62.4382 33.1055C62.4541 33.1187 62.4663 33.1357 62.4738 33.155L63.79 35.2541V32.5546C63.7874 32.463 63.804 32.3718 63.8387 32.2869C63.873 32.2136 63.9299 32.1532 64.001 32.1145L64.3539 31.9117C64.4309 31.8651 64.4857 31.859 64.5181 31.8914C64.557 31.956 64.5734 32.0316 64.5648 32.1064V36.398C64.5675 36.4875 64.5516 36.5765 64.5181 36.6596C64.4824 36.7321 64.425 36.7916 64.3539 36.83L64.0578 37.0003C64.0435 37.0154 64.0255 37.0266 64.0057 37.0328C63.9859 37.0389 63.9648 37.04 63.9445 37.0357C63.9241 37.0314 63.9052 37.022 63.8896 37.0084C63.8739 36.9947 63.862 36.9773 63.8549 36.9577L62.5346 34.8708V37.5682C62.5374 37.6584 62.5216 37.7482 62.488 37.8319C62.4528 37.9047 62.3952 37.9644 62.3237 38.0022L61.9708 38.2051C61.8998 38.2537 61.8451 38.2537 61.8126 38.2233Z" fill="#BA68C8"/>
<path d="M66.3518 35.6377C66.3154 35.6044 66.2906 35.5603 66.2808 35.512L65.0923 31.7274C65.084 31.6922 65.0792 31.6562 65.0781 31.6199C65.0746 31.5861 65.0808 31.552 65.0958 31.5215C65.1109 31.491 65.1343 31.4653 65.1633 31.4476L65.7271 31.121C65.7717 31.0967 65.8042 31.0906 65.8285 31.1068C65.8558 31.1305 65.8743 31.1627 65.8812 31.1981L66.6337 33.8692L67.3861 30.33C67.3917 30.2778 67.409 30.2275 67.4368 30.1829C67.4645 30.1383 67.502 30.1006 67.5464 30.0725L68.1102 29.7459C68.1649 29.7135 68.1933 29.7459 68.1933 29.821C68.1927 29.8626 68.188 29.904 68.1791 29.9447L66.9967 35.0982C66.9819 35.1689 66.9573 35.2371 66.9237 35.301C66.8957 35.3472 66.8557 35.385 66.8081 35.4105L66.4654 35.6134C66.4126 35.6438 66.3741 35.6519 66.3518 35.6377Z" fill="#BA68C8"/>
<path d="M68.7497 34.2201C68.7093 34.1606 68.6914 34.0888 68.699 34.0173V29.7237C68.6965 29.6319 68.7138 29.5406 68.7497 29.456C68.7839 29.3821 68.8407 29.321 68.9119 29.2816L69.2628 29.0788C69.3419 29.0342 69.3966 29.0281 69.4291 29.0605C69.4683 29.1249 69.4847 29.2007 69.4757 29.2755V33.565C69.4788 33.6546 69.4629 33.7437 69.4291 33.8267C69.3923 33.8996 69.3343 33.9597 69.2628 33.9991L68.9119 34.2019C68.8369 34.2445 68.7862 34.2506 68.7497 34.2201Z" fill="#BA68C8"/>
<path d="M70.9008 32.9807C70.8607 32.9211 70.8434 32.8491 70.8521 32.7778V29.044L70.0814 29.4902C70.0064 29.5328 69.9537 29.5389 69.9253 29.5105C69.8902 29.449 69.8753 29.3781 69.8827 29.3077V29.04C69.879 28.9501 69.8935 28.8604 69.9253 28.7763C69.9588 28.707 70.0135 28.6502 70.0814 28.6141L72.4016 27.2755C72.4767 27.2309 72.5294 27.2248 72.5598 27.2552C72.5972 27.3203 72.6128 27.3956 72.6045 27.4702V27.7359C72.6073 27.8239 72.5921 27.9115 72.5598 27.9934C72.5255 28.0634 72.4702 28.1208 72.4016 28.1577L71.6309 28.6019V32.3276C71.6345 32.418 71.6179 32.5081 71.5823 32.5913C71.5464 32.6648 71.4882 32.7252 71.416 32.7636L71.0671 32.9665C70.988 33.0009 70.9333 33.0091 70.9008 32.9807Z" fill="#BA68C8"/>
<path d="M73.0635 31.7288C73.0223 31.6697 73.0043 31.5975 73.0128 31.526V27.2324C73.0092 27.1405 73.0266 27.0489 73.0635 26.9647C73.0972 26.891 73.1542 26.8304 73.2258 26.7923L75.1748 25.6646C75.2498 25.622 75.3026 25.616 75.331 25.6444C75.3642 25.7065 75.3783 25.777 75.3715 25.8472V26.1149C75.3748 26.2045 75.361 26.294 75.331 26.3785C75.2974 26.4478 75.2427 26.5046 75.1748 26.5408L73.7896 27.3399V28.4838L74.757 27.924C74.8321 27.8814 74.8828 27.8733 74.9111 27.9037C74.9462 27.9652 74.9611 28.0361 74.9537 28.1065V28.36C74.9575 28.4492 74.943 28.5383 74.9111 28.6217C74.8791 28.6913 74.8249 28.7484 74.757 28.7839L73.7896 29.3437V30.4937L75.1708 29.6966C75.2458 29.652 75.2965 29.6479 75.3249 29.6783C75.3613 29.7438 75.3762 29.819 75.3675 29.8933V30.1529C75.3716 30.2415 75.3571 30.3299 75.3249 30.4125C75.292 30.4806 75.2379 30.5361 75.1708 30.5707L73.2258 31.6943C73.1507 31.7633 73.096 31.7633 73.0635 31.7288Z" fill="#BA68C8"/>
<path d="M60.4829 42.6403L76.0874 33.6354C76.3308 33.4934 76.5275 33.607 76.5275 33.8889V34.2945C76.5187 34.4469 76.4744 34.5951 76.3979 34.7272C76.3215 34.8593 76.2151 34.9716 76.0874 35.0551L60.4889 44.0621C60.2456 44.202 60.0488 44.0884 60.0488 43.8086V43.4029C60.0561 43.2506 60.0992 43.1022 60.1746 42.9697C60.25 42.8372 60.3556 42.7244 60.4829 42.6403Z" fill="#E0E0E0"/>
<path d="M62.9548 45.7152L73.6086 39.5638C73.852 39.4239 74.0487 39.5375 74.0487 39.8173V40.223C74.0404 40.3754 73.9963 40.5238 73.9198 40.656C73.8433 40.7881 73.7367 40.9004 73.6086 40.9835L62.9548 47.1329C62.7114 47.2728 62.5146 47.1592 62.5146 46.8793V46.4737C62.5232 46.3216 62.5676 46.1736 62.644 46.0418C62.7205 45.91 62.8269 45.7981 62.9548 45.7152Z" fill="#E6E6E6"/>
<path d="M62.9554 48.6072L73.6092 42.4579C73.8566 42.3099 74.0595 42.4315 74.0595 42.7155V43.1211C74.0512 43.2736 74.007 43.4219 73.9305 43.5541C73.854 43.6863 73.7474 43.7985 73.6193 43.8817L62.9655 50.033C62.7221 50.173 62.5254 50.0594 62.5254 49.7795V49.3739C62.5316 49.2213 62.5738 49.0723 62.6485 48.939C62.7232 48.8058 62.8284 48.6921 62.9554 48.6072Z" fill="#E6E6E6"/>
<path d="M62.9548 51.5012L73.6086 45.3519C73.852 45.212 74.0487 45.3255 74.0487 45.6054V46.0111C74.0404 46.1635 73.9963 46.3119 73.9198 46.4441C73.8433 46.5762 73.7367 46.6885 73.6086 46.7716L62.9548 52.9209C62.7114 53.0609 62.5146 52.9473 62.5146 52.6674V52.2618C62.5229 52.1093 62.5671 51.961 62.6436 51.8288C62.7201 51.6966 62.8267 51.5844 62.9548 51.5012Z" fill="#E6E6E6"/>
<path d="M60.4829 57.4907L76.0874 48.4837C76.3308 48.3438 76.5275 48.4574 76.5275 48.7373V49.1429C76.5187 49.2953 76.4744 49.4434 76.3979 49.5755C76.3215 49.7076 76.2151 49.8199 76.0874 49.9034L60.4889 58.9104C60.2456 59.0504 60.0488 58.9368 60.0488 58.6569V58.2513C60.0564 58.0993 60.0997 57.9513 60.1751 57.8192C60.2505 57.6871 60.3559 57.5746 60.4829 57.4907Z" fill="#E0E0E0"/>
<path d="M62.9548 60.5775L73.6086 54.4261C73.852 54.2862 74.0487 54.3998 74.0487 54.6796V55.0853C74.0404 55.2377 73.9963 55.3861 73.9198 55.5183C73.8433 55.6504 73.7367 55.7627 73.6086 55.8458L62.9548 62.0033C62.7114 62.1432 62.5146 62.0296 62.5146 61.7498V61.3441C62.522 61.1906 62.5657 61.041 62.6422 60.9077C62.7188 60.7744 62.8259 60.6612 62.9548 60.5775Z" fill="#E6E6E6"/>
<path d="M62.9548 63.4695L73.6086 57.3181C73.852 57.1782 74.0487 57.2897 74.0487 57.5716V57.9772C74.0404 58.1297 73.9963 58.2781 73.9198 58.4102C73.8433 58.5424 73.7367 58.6546 73.6086 58.7378L62.9548 64.8892C62.7114 65.0291 62.5146 64.9155 62.5146 64.6356V64.23C62.5229 64.0775 62.5671 63.9292 62.6436 63.797C62.7201 63.6648 62.8267 63.5526 62.9548 63.4695Z" fill="#E6E6E6"/>
<path d="M62.9548 66.3636L73.6086 60.2123C73.852 60.0723 74.0487 60.1859 74.0487 60.4658V60.8714C74.0404 61.0239 73.9963 61.1722 73.9198 61.3044C73.8433 61.4366 73.7367 61.5488 73.6086 61.632L62.9548 67.7813C62.7114 67.9212 62.5146 67.8077 62.5146 67.5278V67.1221C62.5232 66.97 62.5676 66.8221 62.644 66.6903C62.7205 66.5585 62.8269 66.4466 62.9548 66.3636Z" fill="#E6E6E6"/>
<path d="M54.8062 48.3048C54.4655 48.5076 54.0964 48.5948 53.64 48.9295C53.2344 49.2235 53.06 49.2256 52.6077 49.3351C52.1189 49.4547 48.2431 48.3088 47.5657 47.7126C46.5111 46.7918 44.6432 43.4697 43.9455 42.6726C43.3715 42.0155 42.5745 41.1252 41.8667 41.1211C40.6964 41.476 40.9621 43.2162 41.9397 44.7819C42.7509 46.0779 44.4181 48.6658 46.1582 49.8076C47.0019 50.3613 51.1272 51.3369 52.4191 51.42C52.8105 51.4464 53.5062 51.6228 54.1227 51.6553C54.7272 51.7117 55.3359 51.6074 55.8872 51.3531C56.3324 51.1463 56.7135 50.8233 56.9905 50.4181C57.1421 50.1947 57.2399 49.9393 57.2765 49.6718C57.31 49.4028 57.2475 49.1306 57.1001 48.9031C57.0716 48.8567 57.0318 48.8183 56.9845 48.7915C56.8901 48.7608 56.7875 48.7681 56.6985 48.8118C56.1813 48.9923 55.6479 49.2641 55.1145 49.3878C54.6643 49.4913 54.3316 49.5034 54.3763 49.4223C54.4209 49.3412 54.6886 49.2966 54.9948 49.0349C55.0324 49.0038 55.0677 48.9699 55.1003 48.9335V48.1223C54.9989 48.1775 54.9007 48.2384 54.8062 48.3048Z" fill="#B16668"/>
<path d="M41.7937 40.7158C40.9277 41.1377 40.5768 41.7826 40.9621 43.2206C41.3069 44.5105 42.6293 46.709 43.6697 47.786C43.6697 47.786 45.4484 46.9422 46.3976 45.847C45.4585 44.4111 45.0083 43.5674 44.126 42.3525C43.2438 41.1377 42.321 40.5698 41.7937 40.7158Z" fill="#455A64"/>
</svg>
