<svg width="102" height="101" viewBox="0 0 102 101" fill="none" xmlns="http://www.w3.org/2000/svg">
<circle cx="50.0621" cy="50.0621" r="49.0621" fill="white" stroke="#A10000" stroke-width="2"/>
<path d="M80.4655 14.558L80.4209 14.4259C80.5381 14.385 80.6572 14.3478 80.7762 14.3105L80.8172 14.4426L80.4655 14.558Z" fill="#263238"/>
<path d="M62.4823 29.9061L62.4658 29.8269C62.6018 29.798 62.7368 29.7627 62.8677 29.72L62.8883 29.797C62.7564 29.8408 62.6194 29.8761 62.4823 29.9061ZM63.384 29.6269L63.3562 29.552C63.4829 29.5007 63.6107 29.4451 63.7344 29.3809L63.7673 29.4537C63.6416 29.5168 63.5128 29.5745 63.384 29.6269ZM64.228 29.1991L64.1878 29.1307C64.3042 29.0579 64.4207 28.9788 64.534 28.8964L64.5784 28.9617C64.4629 29.0419 64.3455 29.121 64.228 29.1948V29.1991ZM64.9936 28.6323L64.9442 28.5702C65.0472 28.4815 65.1503 28.3852 65.2533 28.2858L65.3059 28.3446C65.2039 28.4408 65.0988 28.5371 64.9936 28.628V28.6323ZM65.681 27.9628L65.6243 27.9072C65.7171 27.8077 65.8108 27.7007 65.9056 27.5863L65.9633 27.6398C65.8685 27.7499 65.7737 27.858 65.681 27.9585V27.9628ZM66.2993 27.2291L66.2395 27.1778C66.3271 27.0708 66.4126 26.9542 66.4982 26.8398L66.559 26.889C66.4745 27.0002 66.3883 27.1122 66.3003 27.2248L66.2993 27.2291ZM66.8743 26.4569L66.8125 26.4098L67.0598 26.0612L67.1216 26.1082L66.8743 26.4569ZM67.4277 25.6698L67.3648 25.6227L67.6111 25.2719L67.6729 25.319L67.4277 25.6698ZM67.9831 24.8794L67.9213 24.8313C68.0048 24.7158 68.0893 24.6002 68.1748 24.4858L68.2356 24.535C68.1501 24.6494 68.0666 24.7639 67.9831 24.8794ZM68.5592 24.1126L68.4994 24.0612C68.588 23.9543 68.6777 23.8388 68.7694 23.7297L68.8271 23.7821C68.7364 23.8912 68.6468 24.0013 68.5592 24.1126ZM69.1775 23.3821L69.1208 23.3275C69.2187 23.2206 69.3176 23.1136 69.4145 23.0174L69.4691 23.0751C69.3712 23.1682 69.2723 23.2751 69.1765 23.3821H69.1775ZM69.8504 22.7104L69.7999 22.6495C69.903 22.5532 70.0153 22.4602 70.1225 22.3735L70.1709 22.4366C70.0617 22.5265 69.9586 22.6142 69.8494 22.7104H69.8504ZM70.5893 22.1201L70.546 22.0538C70.6614 21.9725 70.7799 21.8933 70.8984 21.8206L70.9386 21.8891C70.8201 21.9618 70.7026 22.0399 70.5882 22.1201H70.5893ZM71.392 21.6324L71.358 21.5607C71.4817 21.4966 71.6105 21.4356 71.7383 21.3789L71.7682 21.4527C71.6404 21.5083 71.5147 21.5693 71.391 21.6324H71.392Z" fill="#263238"/>
<path d="M61.5072 29.7938L61.4941 29.6543C61.6182 29.6431 61.7422 29.6301 61.8662 29.6152L61.883 29.7529L61.5072 29.7938Z" fill="#263238"/>
<path d="M73.6849 18.5515L72.2598 20.9106L74.4998 19.7757L82.4533 18.5459L73.6849 18.5515Z" fill="#A10000"/>
<path opacity="0.1" d="M73.6849 18.5515L72.2598 20.9106L74.4998 19.7757L82.4533 18.5459L73.6849 18.5515Z" fill="black"/>
<path d="M74.6337 20.4182L72.2598 20.9113L74.4998 19.7764L74.6337 20.4182Z" fill="#263238"/>
<path d="M74.5 19.7757L82.4535 18.5459L75.194 23.2882L74.5 19.7757Z" fill="#A10000"/>
<path d="M73.6843 18.5512L70.9922 15.9521L82.4527 18.5456L73.6843 18.5512Z" fill="#A10000"/>
<path d="M37.8776 31.9775H35.4795V85.866H37.8776V31.9775Z" fill="#37474F"/>
<path d="M37.8792 85.8643H39.1797L39.1797 31.9758H37.8792L37.8792 85.8643Z" fill="#455A64"/>
<path d="M37.8774 31.2979H35.2578V31.9751H37.8774V31.2979Z" fill="#263238"/>
<path d="M37.8778 31.9775H39.4053V31.3003H37.8778V31.9775Z" fill="#37474F"/>
<path d="M37.8773 30.6992H35.7861V31.3002H37.8773V30.6992Z" fill="#37474F"/>
<path d="M38.9225 30.6992H37.877V31.3002H38.9225V30.6992Z" fill="#455A64"/>
<path d="M38.7168 29.3466C38.7165 29.614 38.6368 29.8754 38.488 30.0975C38.3391 30.3197 38.1278 30.4928 37.8806 30.5949C37.6334 30.697 37.3615 30.7235 37.0993 30.6711C36.837 30.6187 36.5962 30.4897 36.4072 30.3005C36.2182 30.1113 36.0896 29.8703 36.0376 29.6079C35.9855 29.3456 36.0124 29.0738 36.1149 28.8267C36.2173 28.5797 36.3906 28.3685 36.613 28.22C36.8354 28.0715 37.0968 27.9922 37.3643 27.9922C37.5421 27.9922 37.7181 28.0272 37.8823 28.0953C38.0465 28.1634 38.1957 28.2632 38.3213 28.389C38.447 28.5148 38.5466 28.6641 38.6144 28.8284C38.6823 28.9927 38.7171 29.1688 38.7168 29.3466Z" fill="#37474F"/>
<path d="M27.5664 36.6356V42.4031H21.3506V36.6896C21.3503 36.2882 21.4292 35.8908 21.5826 35.5199C21.736 35.1491 21.961 34.8121 22.2447 34.5282C22.5284 34.2444 22.8652 34.0192 23.236 33.8655C23.6067 33.7119 24.0041 33.6328 24.4055 33.6328H24.5636C25.36 33.6328 26.1238 33.9492 26.6869 34.5123C27.25 35.0754 27.5664 35.8392 27.5664 36.6356Z" fill="#A10000"/>
<path d="M37.3635 36.1668V42.4086H27.5663V36.6412C27.567 36.2464 27.4899 35.8553 27.3393 35.4904C27.1887 35.1254 26.9677 34.7937 26.6888 34.5143C26.4098 34.2349 26.0786 34.0132 25.7139 33.8619C25.3492 33.7107 24.9583 33.6328 24.5635 33.6328H34.837C35.5077 33.6348 36.1504 33.9026 36.624 34.3776C37.0976 34.8526 37.3635 35.496 37.3635 36.1668Z" fill="#A10000"/>
<path opacity="0.1" d="M37.3635 36.1668V42.4086H27.5663V36.6412C27.567 36.2464 27.4899 35.8553 27.3393 35.4904C27.1887 35.1254 26.9677 34.7937 26.6888 34.5143C26.4098 34.2349 26.0786 34.0132 25.7139 33.8619C25.3492 33.7107 24.9583 33.6328 24.5635 33.6328H34.837C35.5077 33.6348 36.1504 33.9026 36.624 34.3776C37.0976 34.8526 37.3635 35.496 37.3635 36.1668Z" fill="#020100"/>
<path opacity="0.1" d="M29.2671 36.524V42.4086H28.8671V36.6412C28.8679 36.2465 28.7908 35.8556 28.6404 35.4908C28.4899 35.1259 28.269 34.7943 27.9903 34.5149C27.7116 34.2355 27.3805 34.0138 27.0161 33.8625C26.6516 33.7111 26.2609 33.6331 25.8662 33.6328H26.376C27.1428 33.6328 27.8781 33.9374 28.4203 34.4796C28.9625 35.0218 29.2671 35.7572 29.2671 36.524Z" fill="#020100"/>
<path opacity="0.1" d="M36.4537 36.5243V42.4089H36.0537V36.6415C36.0537 35.8454 35.7376 35.0819 35.1748 34.5188C34.6121 33.9557 33.8488 33.6392 33.0527 33.6387H33.5625C34.3283 33.6387 35.0629 33.9425 35.6049 34.4835C36.1469 35.0245 36.4522 35.7584 36.4537 36.5243Z" fill="#020100"/>
<g opacity="0.1">
<path d="M31.4421 40.861V39.9308L31.1054 40.608H30.9194L30.5826 39.9308V40.861H30.2217V39.3057H30.6124L31.0161 40.1168L31.4198 39.3057H31.8087V40.861H31.4421Z" fill="#020100"/>
<path d="M32.5217 39.3057H32.8473L33.4054 40.861H33.0333L32.9124 40.5112H32.4287L32.3096 40.861H31.9375L32.5217 39.3057ZM32.8659 40.2638L32.6798 39.7057L32.4938 40.2638H32.8659Z" fill="#020100"/>
<path d="M33.5664 40.861V39.3057H33.9255V40.861H33.5664Z" fill="#020100"/>
<path d="M34.2236 40.861V39.3057H34.5827V40.5447H35.3362V40.861H34.2236Z" fill="#020100"/>
</g>
<path opacity="0.3" d="M27.2484 36.7769V41.9602H21.667V36.8253C21.667 36.4643 21.7382 36.1068 21.8766 35.7734C22.015 35.44 22.2178 35.1371 22.4734 34.8822C22.729 34.6273 23.0324 34.4253 23.3662 34.2878C23.7 34.1503 24.0576 34.0801 24.4186 34.0811H24.56C25.2737 34.083 25.9575 34.3679 26.4614 34.8733C26.9654 35.3786 27.2484 36.0632 27.2484 36.7769Z" fill="#020100"/>
<path d="M20.6611 42.9908L21.3513 42.4141H27.5672L26.942 42.9369C24.9309 44.6243 22.1792 45.9936 20.4918 45.9936H20.0862C18.4285 45.988 18.1885 44.8941 20.6611 42.9908Z" fill="#37474F"/>
<path d="M27.5648 42.4092L26.9416 42.932C24.9304 44.6194 22.1788 45.9887 20.4913 45.9887H20.0504C18.4243 45.972 18.2048 44.8724 20.6606 42.9859L21.349 42.4092H27.5648Z" fill="#37474F"/>
<path d="M27.1053 42.4092L26.482 42.932C24.4783 44.6064 21.7397 45.9776 20.0504 45.9887C18.4243 45.972 18.2048 44.8724 20.6606 42.9859L21.349 42.4092H27.1053Z" fill="#455A64"/>
<path d="M36.4021 44.9692V46.5562L33.1035 42.4092H34.3668L36.4021 44.9692Z" fill="#455A64"/>
<path d="M36.4024 46.5562H35.9373L32.6387 42.4092H33.1056L36.4024 46.5562Z" fill="#37474F"/>
<path d="M31.3027 30.9485V32.4182H29.9576V37.9382C29.9576 38.0616 29.9086 38.1799 29.8213 38.2671C29.7341 38.3543 29.6158 38.4034 29.4925 38.4034C29.3691 38.4034 29.2508 38.3543 29.1636 38.2671C29.0763 38.1799 29.0273 38.0616 29.0273 37.9382V30.5801L29.9576 30.7308L31.3027 30.9485Z" fill="#455A64"/>
<path d="M31.3025 30.9485V32.4182H29.9574V37.9382C29.957 38.0451 29.9198 38.1486 29.852 38.2313C29.7842 38.314 29.69 38.3708 29.5853 38.3922C29.5536 38.3997 29.5211 38.4034 29.4886 38.4033C29.4626 38.4063 29.4364 38.4063 29.4104 38.4033C29.3151 38.3887 29.227 38.3437 29.1593 38.275C29.0724 38.1874 29.0236 38.069 29.0234 37.9457V30.5801L29.9537 30.7308L31.3025 30.9485Z" fill="#455A64"/>
<path d="M29.4864 38.4034H29.1236C29.022 38.4045 28.9237 38.3665 28.8493 38.2972C28.7748 38.228 28.7298 38.1328 28.7236 38.0313V30.5801H29.0213V37.9382C29.0215 38.0616 29.0703 38.1799 29.1571 38.2675C29.2485 38.3485 29.3645 38.3964 29.4864 38.4034Z" fill="#37474F"/>
<path d="M27.2487 36.7773V40.422L26.3185 40.0332L25.7752 39.8043L25.5352 39.7039L25.3789 39.6369L25.2134 39.568L25.1631 39.5476L25.098 39.5197L23.7324 38.9429L24.0208 38.2564L24.0766 38.1262L24.3241 37.542L24.4227 37.3039L24.4636 37.2108L24.6348 36.8015L24.8208 36.3401L25.565 34.5615L26.5399 34.9727C26.8284 35.2906 27.0359 35.6736 27.1445 36.089C27.2089 36.313 27.2439 36.5443 27.2487 36.7773Z" fill="#EBEBEB"/>
<path d="M27.2483 37.726V38.1316L27.226 38.0851V38.0646L27.2092 38.0293C27.2023 38.0179 27.1961 38.0061 27.1906 37.9939L26.9692 37.5381C26.9692 37.5195 26.9506 37.5009 26.9413 37.4804L26.746 37.0711C26.7051 36.9892 26.666 36.9074 26.6269 36.8237L26.6158 36.7976L26.3199 36.1744C26.2474 36.0162 26.173 35.8581 26.1004 35.6981C25.9292 35.326 25.7525 34.9427 25.5869 34.5576C25.7878 34.913 25.9758 35.2739 26.1711 35.633C26.2641 35.819 26.3571 35.9846 26.4502 36.1613L26.7441 36.7195L26.7832 36.7958L26.9078 37.0376L27.0604 37.3372C27.0604 37.352 27.0772 37.3669 27.0846 37.3818L27.2483 37.726Z" fill="#DBDBDB"/>
<path d="M27.2484 38.061V38.0777H27.2261L27.1703 38.0945C26.934 38.167 26.6977 38.2321 26.4596 38.2935L26.3814 38.3121L26.2084 38.3549H26.1879L25.9833 38.4033L25.5833 38.4926C25.3005 38.5521 25.0252 38.6079 24.7331 38.6563H24.6996L24.5266 38.6842C24.2865 38.7252 24.0465 38.7586 23.8047 38.7847C24.0131 38.7159 24.2214 38.6563 24.4317 38.5986L24.6177 38.5503L24.6754 38.5335C24.9656 38.4591 25.2596 38.394 25.5517 38.3289L25.814 38.2731C25.8921 38.26 25.9684 38.2433 26.0466 38.2284C26.1247 38.2135 26.2326 38.1912 26.3293 38.1763L26.4373 38.1577L26.4968 38.1465C26.7126 38.1093 26.9303 38.0759 27.1517 38.0498H27.2186L27.2484 38.061Z" fill="#DBDBDB"/>
<path d="M27.2504 37.1387H22.4355V41.894H27.2504V37.1387Z" fill="white"/>
<path d="M27.2485 39.3334V39.566L27.2038 39.605L27.1183 39.6813C27.1079 39.6895 27.0979 39.6982 27.0885 39.7074L27.0624 39.7316L27.0438 39.7483L26.3238 40.3734L26.2252 40.4571L26.1824 40.4925L26.1396 40.4571L25.7787 40.1427L25.5927 39.9883C25.5555 39.9548 25.5164 39.9232 25.4792 39.8878C25.4693 39.882 25.4604 39.8744 25.4531 39.8655L25.3229 39.7539L25.3062 39.739L25.2764 39.713L25.2466 39.6888C24.9986 39.4792 24.7579 39.2671 24.5248 39.0525L24.428 38.9669L24.2736 38.8292L24.0169 38.6004C23.8308 38.4404 23.6578 38.2785 23.481 38.1148L23.4178 38.059L23.3489 37.9976C23.0438 37.713 22.735 37.4395 22.4336 37.1455C22.7555 37.393 23.0717 37.6553 23.3899 37.9083C23.4141 37.9288 23.4401 37.9474 23.4643 37.9697L23.5443 38.0348L24.0727 38.4683L24.3406 38.6897L24.6141 38.9185L24.7313 39.0171C24.952 39.2019 25.1722 39.388 25.3917 39.5753L25.4401 39.6162L25.5685 39.726L25.6262 39.7744L25.7341 39.8674L26.1787 40.2395C26.4392 40.0162 26.7015 39.7911 26.9638 39.5697L27.042 39.5027C27.0922 39.4599 27.1406 39.4171 27.1927 39.3762L27.2485 39.3334Z" fill="#DBDBDB"/>
<path d="M25.4062 39.6758L25.2872 39.7762C25.1011 39.9344 24.9151 40.0869 24.7104 40.2339C24.4723 40.42 24.2286 40.5911 23.983 40.7642C23.7374 40.9372 23.4881 41.1028 23.2388 41.2646C22.9895 41.4265 22.729 41.5865 22.4648 41.7316C22.6918 41.5325 22.93 41.3465 23.1681 41.1642C23.4062 40.9818 23.6518 40.8069 23.8955 40.6339C24.1393 40.4609 24.3923 40.2935 24.6397 40.1316C24.8407 40.0032 25.0453 39.8749 25.2555 39.7595L25.4025 39.6776L25.4062 39.6758Z" fill="#DBDBDB"/>
<path d="M27.2488 39.8418V39.92L27.0888 39.786L27.0441 39.7488L26.9697 39.6855H26.9827L27.0721 39.7358L27.1279 39.7693L27.2488 39.8418Z" fill="#DBDBDB"/>
<path d="M44.3052 65.876C44.3052 65.876 38.4075 70.8751 38.4019 70.8769C37.2689 71.8276 36.2921 72.6816 35.8289 73.169C35.7088 73.2703 35.6134 73.3975 35.5498 73.5411C35.5498 73.5411 35.5498 73.5504 35.5498 73.5541C35.6038 74.0825 42.9321 83.3588 43.2968 83.6007C43.6614 83.8425 44.3666 82.8193 44.3684 82.2314C44.3703 81.6435 43.1535 76.836 43.1535 76.836L49.001 71.783L44.3052 65.876Z" fill="#EB9481"/>
<path d="M39.6131 69.8477C39.6131 69.8477 38.4075 70.8709 38.4019 70.8728C37.2689 71.8235 36.2921 72.6774 35.8289 73.1649C35.7215 73.2774 35.6278 73.4023 35.5498 73.537C35.5498 73.537 35.5498 73.5463 35.5498 73.55C35.6038 74.0784 42.9321 83.3547 43.2968 83.5965C43.6614 83.8384 44.3666 82.8151 44.3684 82.2272C44.3703 81.6393 43.1535 76.8319 43.1535 76.8319L44.3963 75.8067L39.6131 69.8477Z" fill="#EBEBEB"/>
<path d="M43.2874 83.6039C42.9153 83.3676 35.5943 74.0913 35.5404 73.5573C35.5162 73.3546 36.8055 72.2085 38.4018 70.869L38.4539 70.8262L43.2464 76.7573L43.1441 76.8355C43.1441 76.8355 44.3609 81.6411 44.359 82.2308C44.3571 82.8206 43.6502 83.8439 43.2874 83.6039Z" fill="#A10000"/>
<path d="M43.5629 83.2149C42.3666 81.6223 37.3898 75.306 36.0856 73.8214C36.0745 73.8102 36.0652 73.8214 36.0763 73.8214C37.228 75.427 42.2549 81.7023 43.5387 83.2279C43.5647 83.267 43.5815 83.2484 43.5629 83.2149Z" fill="#263238"/>
<path d="M43.5234 77.3585C43.1513 76.6534 42.4629 75.9744 41.6536 75.8516C41.622 75.8516 41.6146 75.8906 41.6369 75.9055C42.2912 76.3439 42.8969 76.851 43.4434 77.4181C43.4519 77.427 43.4633 77.4324 43.4755 77.4335C43.4877 77.4345 43.4999 77.431 43.5098 77.4237C43.5196 77.4164 43.5264 77.4057 43.5289 77.3937C43.5314 77.3817 43.5295 77.3692 43.5234 77.3585Z" fill="#263238"/>
<path d="M43.6057 78.0128C43.2336 77.3077 42.5452 76.6305 41.7452 76.5059C41.7136 76.5059 41.708 76.5449 41.7303 76.5598C42.3841 76.9982 42.9891 77.5053 43.535 78.0724C43.5438 78.0768 43.5537 78.0786 43.5634 78.0774C43.5732 78.0763 43.5825 78.0723 43.59 78.066C43.5975 78.0596 43.603 78.0512 43.6058 78.0418C43.6086 78.0323 43.6086 78.0223 43.6057 78.0128Z" fill="#263238"/>
<path d="M43.6892 78.67C43.3171 77.963 42.6287 77.2858 41.8194 77.1611C41.7878 77.1611 41.7822 77.2021 41.8045 77.2169C42.4583 77.6547 43.0633 78.1611 43.6092 78.7276C43.6177 78.7356 43.6287 78.7404 43.6403 78.7412C43.652 78.7419 43.6635 78.7386 43.673 78.7318C43.6824 78.725 43.6892 78.7151 43.6922 78.7038C43.6951 78.6925 43.6941 78.6806 43.6892 78.67Z" fill="#263238"/>
<path d="M47.4216 60.0061C47.0495 62.1196 38.5137 70.7169 38.5137 70.7169L44.7611 77.6006C44.7611 77.6006 56.8542 64.9494 56.11 60.3131C55.4532 56.2833 49.0216 40.168 49.0216 40.168L42.0393 40.3317C42.0393 40.3317 47.7918 57.928 47.4216 60.0061Z" fill="#37474F"/>
<path d="M45.4134 75.9107C44.5818 74.9228 44.8348 75.1944 43.992 74.2158C43.579 73.7377 40.8664 70.5954 40.4032 70.2158C40.392 70.2158 40.3753 70.2158 40.3827 70.2344C40.699 70.7423 43.4674 73.8363 43.8878 74.307C44.7492 75.2689 44.5129 74.9842 45.3762 75.9349C45.3778 75.9373 45.3798 75.9395 45.3822 75.9411C45.3846 75.9428 45.3874 75.9439 45.3902 75.9445C45.3931 75.9451 45.396 75.9452 45.3989 75.9446C45.4017 75.9441 45.4045 75.943 45.4069 75.9414C45.4093 75.9398 45.4115 75.9378 45.4131 75.9354C45.4148 75.933 45.4159 75.9303 45.4165 75.9274C45.4171 75.9246 45.4172 75.9216 45.4166 75.9188C45.4161 75.9159 45.415 75.9132 45.4134 75.9107Z" fill="#263238"/>
<path d="M48.6047 59.2853C48.4931 58.7625 48.3666 58.2416 48.2438 57.7225C47.9957 56.6608 47.7309 55.6016 47.4494 54.5448C46.8962 52.4499 46.3002 50.3681 45.6615 48.2992C45.0178 46.2248 44.3405 44.1522 43.5685 42.1206C43.4717 41.8694 43.3731 41.6201 43.2764 41.3764C43.2749 41.3722 43.2718 41.3688 43.2678 41.3669C43.2638 41.365 43.2592 41.3647 43.255 41.3662C43.2508 41.3677 43.2473 41.3708 43.2454 41.3748C43.2435 41.3788 43.2433 41.3834 43.2447 41.3876C43.9201 43.4248 44.6159 45.4564 45.2522 47.5067C45.8885 49.5569 46.4764 51.5997 47.0364 53.6667C47.3173 54.703 47.5796 55.743 47.8382 56.7848C47.9623 57.2971 48.0863 57.8099 48.2103 58.3234C48.3589 58.843 48.4689 59.3728 48.5396 59.9086C48.5705 60.4175 48.4403 60.9233 48.1675 61.3541C47.9164 61.7876 47.6094 62.1988 47.3303 62.6081C46.7517 63.4323 41.2168 69.8974 41.0382 70.0723C41.0233 70.0872 41.0382 70.1076 41.0605 70.0928C41.8047 69.3914 46.508 64.0593 47.1015 63.2369C47.3936 62.8314 47.6801 62.4183 47.961 62.0034C48.2417 61.625 48.4655 61.2076 48.6252 60.7644C48.7473 60.278 48.7402 59.7681 48.6047 59.2853Z" fill="#263238"/>
<path d="M47.5851 40.2012L47.3228 58.7184C46.5377 54.097 42.0391 40.3314 42.0391 40.3314L47.5851 40.2012Z" fill="#263238"/>
<path d="M45.6162 74.5141C45.6162 74.5141 47.2906 81.8183 47.2906 81.822C47.3446 83.3104 47.419 84.5941 47.5213 85.2601C47.5205 85.2638 47.5205 85.2676 47.5213 85.2713C47.5275 85.4296 47.5702 85.5843 47.646 85.7234L47.6553 85.7327C48.1055 86.0155 59.9344 85.9187 60.3381 85.7811C60.7418 85.6434 60.3772 84.4545 59.9158 84.0936C59.4544 83.7327 54.9111 81.742 54.9111 81.742L53.1586 74.4434L45.6162 74.5141Z" fill="#EB9481"/>
<path d="M60.3446 85.7826C59.9335 85.9258 48.112 86.0189 47.6618 85.7361L47.6525 85.7268C47.5755 85.5882 47.5327 85.4332 47.5279 85.2747C47.527 85.2729 47.5266 85.271 47.5266 85.2691C47.5266 85.2672 47.527 85.2653 47.5279 85.2635C47.4274 84.5975 47.3548 83.3044 47.299 81.8272L47.0088 80.5547L54.5921 80.3779L54.9195 81.7435C54.9195 81.7435 59.4609 83.7342 59.926 84.097C60.3911 84.4598 60.7577 85.6393 60.3446 85.7826Z" fill="#EBEBEB"/>
<path d="M60.344 85.7829C59.9328 85.9243 48.1133 86.0173 47.6612 85.7345C47.4863 85.6303 47.3728 83.9094 47.2891 81.8275C47.2891 81.807 47.2891 81.7847 47.2891 81.7624L54.917 81.6191V81.7475C54.917 81.7475 59.4565 83.7364 59.9216 84.0991C60.3868 84.4619 60.7551 85.6396 60.344 85.7829Z" fill="#A10000"/>
<path d="M60.2066 85.3233C58.2141 85.2898 50.1731 85.3437 48.201 85.4609C48.1843 85.4609 48.1843 85.474 48.201 85.474C50.175 85.5502 58.2159 85.4312 60.2066 85.3568C60.2494 85.3549 60.2494 85.3233 60.2066 85.3233Z" fill="#263238"/>
<path d="M55.5575 81.7598C54.7724 81.6184 53.8142 81.7468 53.2207 82.318C53.1965 82.3403 53.2207 82.3719 53.2542 82.3645C54.0011 82.1157 54.7727 81.9485 55.5556 81.8659C55.5626 81.866 55.5695 81.8648 55.576 81.8622C55.5825 81.8596 55.5884 81.8558 55.5934 81.851C55.5984 81.8462 55.6024 81.8404 55.6052 81.834C55.608 81.8276 55.6095 81.8208 55.6096 81.8138C55.6097 81.8068 55.6084 81.7999 55.6059 81.7934C55.6033 81.7869 55.5995 81.781 55.5947 81.776C55.5899 81.771 55.5841 81.767 55.5777 81.7642C55.5713 81.7614 55.5644 81.76 55.5575 81.7598Z" fill="#263238"/>
<path d="M56.1269 82.0968C55.3418 81.9554 54.3836 82.0837 53.7883 82.6549C53.766 82.6772 53.7883 82.7088 53.8218 82.7014C54.5693 82.4528 55.3416 82.2856 56.125 82.2028C56.132 82.2029 56.1389 82.2017 56.1454 82.1991C56.1519 82.1966 56.1578 82.1928 56.1628 82.1879C56.1678 82.1831 56.1718 82.1773 56.1746 82.1709C56.1774 82.1645 56.1789 82.1577 56.179 82.1507C56.1791 82.1437 56.1779 82.1368 56.1753 82.1303C56.1728 82.1239 56.169 82.1179 56.1641 82.1129C56.1593 82.1079 56.1535 82.1039 56.1471 82.1011C56.1407 82.0984 56.1339 82.0969 56.1269 82.0968Z" fill="#263238"/>
<path d="M56.6942 82.4337C55.9091 82.2923 54.9509 82.4206 54.3575 82.9918C54.3333 83.0141 54.3575 83.0458 54.3909 83.0383C55.1379 82.7897 55.9095 82.6225 56.6923 82.5397C56.7064 82.54 56.72 82.5346 56.7301 82.5248C56.7402 82.5151 56.7461 82.5017 56.7463 82.4876C56.7465 82.4736 56.7412 82.46 56.7314 82.4499C56.7217 82.4397 56.7083 82.4339 56.6942 82.4337Z" fill="#263238"/>
<path d="M48.3461 40.1808C48.3461 40.3277 47.7786 46.3203 47.5889 46.4896C47.3991 46.6589 46.1638 47.5259 45.7972 47.7622C45.7972 47.7622 49.388 58.1101 50.3554 61.565C51.7601 66.5752 55.1926 81.6227 55.1926 81.6227L46.9786 81.8088C46.9786 81.8088 44.1452 67.4738 42.9414 62.7017C41.9107 58.6087 38.0372 46.3538 38.0372 46.3538C37.5203 44.3997 37.5726 42.3387 38.1879 40.4133C38.1879 40.4133 48.348 40.1752 48.3461 40.1808Z" fill="#37474F"/>
<path d="M54.8611 80.0322C53.5699 80.0546 53.9402 80.0322 52.649 80.0676C52.0183 80.0862 47.8676 80.2108 47.2815 80.3318C47.2685 80.3318 47.2704 80.3559 47.2815 80.3578C47.875 80.4322 52.022 80.235 52.6527 80.2052C53.942 80.142 53.5718 80.1457 54.8611 80.0694C54.866 80.0694 54.8708 80.0675 54.8742 80.064C54.8777 80.0605 54.8797 80.0558 54.8797 80.0508C54.8797 80.0459 54.8777 80.0412 54.8742 80.0377C54.8708 80.0342 54.866 80.0322 54.8611 80.0322Z" fill="#263238"/>
<path d="M47.946 46.1783C47.1575 46.6356 46.4104 47.161 45.7135 47.7485C45.7104 47.7506 45.7078 47.7533 45.7058 47.7564C45.7038 47.7595 45.7024 47.7629 45.7017 47.7665C45.701 47.7702 45.701 47.7739 45.7018 47.7775C45.7025 47.7811 45.704 47.7846 45.706 47.7876C45.7081 47.7907 45.7108 47.7933 45.7139 47.7953C45.7169 47.7973 45.7204 47.7987 45.724 47.7994C45.7277 47.8001 45.7314 47.8001 45.735 47.7993C45.7386 47.7986 45.7421 47.7971 45.7451 47.7951C46.5005 47.2946 47.2763 46.809 48.0056 46.2695C48.0144 46.2604 48.0199 46.2486 48.0211 46.236C48.0223 46.2233 48.0192 46.2107 48.0122 46.2001C48.0053 46.1895 47.995 46.1816 47.983 46.1776C47.9709 46.1736 47.9579 46.1739 47.946 46.1783Z" fill="#263238"/>
<path d="M47.1851 40.5196C47.1851 40.4917 47.1274 40.4954 47.133 40.5196C47.298 41.4364 47.4166 42.361 47.4883 43.2898C47.5256 43.7177 47.6037 46.1121 46.8428 46.0805C46.7144 46.0805 46.6307 45.9651 46.5767 45.7847C46.537 45.5425 46.527 45.2963 46.5469 45.0517C46.5469 44.5475 46.5172 44.047 46.4707 43.5447C46.392 42.6105 46.2161 41.6871 45.946 40.7893C45.9438 40.784 45.9398 40.7796 45.9347 40.7769C45.9295 40.7743 45.9236 40.7735 45.918 40.7749C45.9123 40.7762 45.9074 40.7796 45.904 40.7843C45.9006 40.789 45.899 40.7947 45.8995 40.8005C46.15 42.0707 46.3036 43.3582 46.359 44.6517C46.3776 45.2749 46.2344 46.2442 46.8874 46.2238C47.5404 46.2033 47.6949 44.5977 47.6986 44.1642C47.6867 42.9322 47.5141 41.7069 47.1851 40.5196Z" fill="#263238"/>
<path d="M46.8702 46.1325C46.834 46.302 46.8079 46.4734 46.792 46.646C46.7659 46.7818 46.7659 46.9213 46.792 47.0571C46.792 47.0813 46.8329 47.0776 46.8441 47.0571C46.8993 46.9244 46.9332 46.7837 46.9446 46.6404C46.9743 46.4804 47.006 46.3223 47.0302 46.1623C47.0292 46.1435 47.0219 46.1256 47.0095 46.1115C46.9971 46.0974 46.9803 46.0879 46.9619 46.0844C46.9434 46.081 46.9243 46.0839 46.9077 46.0926C46.8911 46.1013 46.8778 46.1154 46.8702 46.1325Z" fill="#263238"/>
<path d="M45.8843 75.7134C45.8583 75.5273 45.8285 75.3413 45.7969 75.1459C45.7373 74.7831 45.6666 74.4222 45.6108 74.0594C45.4806 73.332 45.3392 72.6064 45.1922 71.8827C44.9001 70.4389 44.569 68.9989 44.2229 67.5682C44.0257 66.7589 43.8006 65.9589 43.5643 65.1608C43.5476 65.105 43.4694 65.1347 43.4806 65.1887C43.6294 65.9199 43.7745 66.6529 43.942 67.3822C44.1094 68.1115 44.275 68.8352 44.4387 69.5627C44.7587 71.0008 45.0601 72.4445 45.3783 73.8827C45.4694 74.2882 45.5513 74.6957 45.6406 75.1013C45.6852 75.3047 45.7317 75.5075 45.7801 75.7096C45.8285 75.9106 45.8955 76.1078 45.9345 76.3106C45.9345 76.3292 45.9662 76.3199 45.9624 76.3106C45.9197 76.1078 45.9122 75.9087 45.8843 75.7134Z" fill="#263238"/>
<path d="M51.2933 64.6681C50.9882 63.3119 50.5882 61.976 50.1864 60.6458C49.3771 57.9686 48.4357 55.3323 47.498 52.6979L46.6868 50.4207C46.551 50.0486 45.8831 47.9928 45.8031 47.7993C45.8016 47.7951 45.7985 47.7916 45.7945 47.7897C45.7905 47.7878 45.7859 47.7876 45.7817 47.789C45.7775 47.7905 45.7741 47.7936 45.7721 47.7976C45.7702 47.8016 45.77 47.8062 45.7715 47.8104C45.9575 48.5081 46.2329 49.5258 46.4524 50.2179C46.6719 50.91 46.9082 51.576 47.1389 52.2644C47.5891 53.5984 48.0468 54.9304 48.4859 56.27C49.3529 58.9156 50.2143 61.5612 50.9324 64.2533C51.1315 65.0067 51.3324 65.7602 51.5166 66.5193C51.7008 67.2784 51.8626 68.0375 52.0394 68.7965C52.0394 68.817 52.0785 68.8095 52.0766 68.7965C51.8848 67.4081 51.6234 66.0303 51.2933 64.6681Z" fill="#263238"/>
<path d="M46.3536 71.9164C45.842 69.3267 45.2373 66.7536 44.5787 64.1992C43.9201 61.6448 43.1852 59.0792 42.3852 56.5508C41.5852 54.0225 40.7108 51.5183 39.7694 49.0364C39.2995 47.8697 38.8988 46.6763 38.5694 45.4624C38.2717 44.2531 38.1024 42.9434 38.3573 41.7117C38.4207 41.3992 38.5078 41.092 38.6178 40.7927C38.6178 40.7722 38.5936 40.7554 38.5861 40.7759C37.6559 43.1015 38.3517 45.6038 39.1573 47.8457C39.5982 49.0792 40.0652 50.3034 40.5005 51.5387C40.9495 52.8063 41.3793 54.0801 41.7898 55.3601C42.6085 57.8978 43.3712 60.4504 44.0615 63.0253C44.7517 65.6002 45.375 68.1899 45.922 70.7964C46.4689 73.403 46.9582 76.0392 47.442 78.6681C47.5052 79.0104 47.5573 79.3546 47.6094 79.6988C47.6094 79.7174 47.6429 79.7174 47.641 79.6988C47.2708 77.0997 46.8652 74.5025 46.3536 71.9164Z" fill="#263238"/>
<path d="M44.698 29.5427C45.5482 32.6832 47.5445 37.5427 49.2078 37.4832C50.724 37.4237 54.045 34.6534 55.4459 33.7381C56.8468 32.8227 53.5854 29.4218 52.7817 30.0041C51.5408 30.9046 49.6915 32.5046 49.3696 32.4097C48.9696 32.2906 48.4394 31.3269 46.1101 28.5027C45.1464 27.3418 44.3259 28.205 44.698 29.5427Z" fill="#EB9481"/>
<path d="M54.2657 28.6294C54.928 28.3763 55.6685 28.034 56.4127 28.0303C57.1569 28.0266 57.795 28.994 57.8024 29.2749C57.8099 29.5559 57.568 31.3215 56.8257 31.3326C56.0834 31.3438 56.5001 29.9931 56.4685 29.8442C56.4369 29.6954 56.4034 29.4945 56.2638 29.5131C56.1243 29.5317 53.6982 30.7503 53.6982 30.7503L54.2657 28.6294Z" fill="#EB9481"/>
<path d="M54.3145 28.7289C54.3572 28.7289 56.3293 27.8973 57.0735 27.8936C57.8177 27.8898 58.4652 28.8517 58.4652 29.1364C58.4652 29.421 58.2307 31.1829 57.4884 31.194C56.7461 31.2052 57.1628 29.8545 57.1312 29.7057C57.0996 29.5568 57.0661 29.354 56.9266 29.3726C56.787 29.3912 54.361 30.6117 54.361 30.6117L54.3145 28.7289Z" fill="#EB9481"/>
<path d="M57.2318 31.1072C57.1506 30.9753 57.1045 30.8248 57.0979 30.67C57.0792 30.5119 57.0849 30.3519 57.1146 30.1956C57.1523 30.0609 57.1791 29.9234 57.1946 29.7844C57.1905 29.6469 57.1522 29.5126 57.083 29.3937C57.0235 29.2914 56.9137 29.3286 56.8207 29.3639C56.6841 29.4188 56.5506 29.4809 56.4207 29.55L56.0039 29.7825C55.857 29.8563 55.7147 29.9389 55.5779 30.03C55.5752 30.0312 55.5731 30.0335 55.572 30.0363C55.571 30.0391 55.5711 30.0421 55.5723 30.0449C55.5735 30.0476 55.5758 30.0497 55.5786 30.0507C55.5814 30.0518 55.5845 30.0517 55.5872 30.0504C55.7143 29.9949 55.8385 29.9328 55.9593 29.8644L56.3797 29.6597C56.5118 29.5983 56.6402 29.5277 56.7742 29.4737C56.8207 29.4532 56.9137 29.3993 56.9602 29.4104C57.0067 29.4216 57.0476 29.5611 57.0625 29.6058C57.0961 29.7385 57.0903 29.8782 57.0458 30.0077C57.0097 30.1415 56.9872 30.2786 56.9788 30.417C56.9684 30.5472 56.9816 30.6783 57.0179 30.8039C57.0672 30.9158 57.1296 31.0213 57.2039 31.1184C57.2188 31.1351 57.243 31.1184 57.2318 31.1072Z" fill="#263238"/>
<path d="M52.0039 30.7354C52.0039 30.7354 54.0188 28.8098 54.4393 28.4284C55.2821 27.66 58.869 26.0954 59.3732 26.0303C59.8774 25.9652 60.0821 26.9959 57.6486 28.1289C56.3667 28.7242 56.1602 29.4721 56.1881 29.8833C56.216 30.2945 56.6327 31.0517 57.323 31.0163C58.0132 30.981 58.4393 29.9614 59.0737 29.8349C59.7081 29.7084 59.3137 30.8824 58.8876 31.5652C58.4318 32.2242 57.7983 32.7404 57.0607 33.0535C56.4672 33.2917 54.642 34.1326 54.642 34.1326L52.0039 30.7354Z" fill="#EB9481"/>
<path d="M58.1711 30.5097C57.9143 30.7181 57.626 30.986 57.2836 31.0064C56.9413 31.0269 56.6939 30.8036 56.5227 30.519C56.3349 30.2395 56.2616 29.8984 56.318 29.5664C56.3919 29.2661 56.5501 28.993 56.7739 28.7795C57.0516 28.521 57.3648 28.3036 57.7041 28.1339C57.719 28.1339 57.7041 28.1041 57.6892 28.1115C57.3748 28.2622 56.3869 28.6902 56.2176 29.5683C56.1626 29.9074 56.2391 30.2548 56.4315 30.5395C56.5915 30.8111 56.8204 31.0716 57.1571 31.0976C57.5664 31.1218 57.9106 30.7813 58.199 30.5264C58.2027 30.5078 58.1841 30.4985 58.1711 30.5097Z" fill="#263238"/>
<path d="M51.9976 30.4723L55.1883 35.1774C55.1883 35.1774 50.366 38.0333 48.9762 37.624C47.5865 37.2146 45.4023 33.3002 44.4609 29.8435C43.5195 26.3867 45.6869 27.6667 46.5409 28.7272C47.3948 29.7877 49.2497 32.2249 49.3483 32.1895C49.4469 32.1542 51.9976 30.4723 51.9976 30.4723Z" fill="#A10000"/>
<path d="M53.8032 35.9498C53.5036 36.1098 53.1743 36.2791 52.8283 36.4484L50.0469 31.7451C50.3259 31.5591 50.6497 31.3544 50.9529 31.1572C51.8292 32.627 52.8934 34.4149 53.8032 35.9498Z" fill="#EBEBEB"/>
<path d="M52.4522 36.6313L52.1322 36.7782L49.3936 32.1587C49.4531 32.1252 49.5536 32.062 49.6838 31.9727C50.5452 33.4238 51.5703 35.1466 52.4522 36.6313Z" fill="#EBEBEB"/>
<path d="M51.7842 36.9321C50.681 37.4121 49.5963 37.7675 49.0233 37.6372L48.9731 37.6242C47.5814 37.2149 45.401 33.3024 44.4577 29.8437C44.3174 29.3811 44.2392 28.9019 44.2251 28.4186C44.2251 28.4 44.2251 28.3851 44.2251 28.3665C44.2251 28.3479 44.2251 28.3126 44.2251 28.2847C44.2242 28.2735 44.2242 28.2623 44.2251 28.2512C44.2231 28.2264 44.2231 28.2015 44.2251 28.1768L51.7842 36.9321Z" fill="#263238"/>
<path d="M53.4588 34.7513C53.3583 34.5839 53.2541 34.4165 53.1518 34.2509C52.9453 33.9179 51.7062 31.9439 51.2206 31.3467C51.2076 31.3299 51.1834 31.3467 51.1908 31.3672C51.5369 32.0592 52.8188 33.996 53.0327 34.316C53.1425 34.4779 53.2504 34.6416 53.362 34.8034C53.4736 34.9653 53.6039 35.116 53.7155 35.2797C53.7267 35.2946 53.7527 35.2797 53.7434 35.2648C53.6411 35.0974 53.5592 34.9188 53.4588 34.7513Z" fill="#263238"/>
<path d="M37.498 43.4513C37.5277 43.4829 49.8347 42.015 49.9426 41.8829C50.0952 41.6969 46.9491 29.4326 45.6189 27.814C45.3343 27.468 44.4319 27.3992 43.671 27.5201C43.4725 27.5493 43.277 27.596 43.0868 27.6596H43.0682C42.9142 27.7094 42.7701 27.7856 42.6422 27.8847C40.5733 29.654 38.9826 35.6466 38.6254 37.4438C38.0301 40.4094 37.3919 43.3378 37.498 43.4513Z" fill="#A10000"/>
<path d="M49.6894 40.553C46.7126 40.9381 40.2549 41.7753 37.6875 42.0823C37.7768 41.6265 37.8847 41.0832 38.0075 40.4842L49.3247 39.0684C49.468 39.6265 49.5926 40.1325 49.6894 40.553Z" fill="#EBEBEB"/>
<path d="M49.1719 38.4632C46.2323 38.8446 40.7997 39.546 38.1318 39.8715L38.236 39.3618L49.0509 37.998C49.0919 38.1543 49.1328 38.3106 49.1719 38.4632Z" fill="#EBEBEB"/>
<path d="M41.8049 31.1012C42.4282 34.3106 45.2728 40.2715 47.0477 40.798C49.1035 41.4064 56.1305 38.9785 57.4961 37.9273C58.0394 37.5106 55.0087 34.0203 54.3333 34.2808C51.4756 35.4082 48.938 36.0129 48.5566 35.7692C47.9761 35.3971 45.5798 32.1171 44.0133 30.0854C42.0468 27.5329 41.524 29.6631 41.8049 31.1012Z" fill="#EB9481"/>
<path d="M57.3152 38.0294C57.6277 37.9085 59.7598 36.2843 60.3812 35.5308C61.0567 34.75 61.5997 33.8639 61.9887 32.9075C62.597 31.3931 62.8743 30.2898 62.7087 29.8024C62.5226 29.235 62.4612 29.1438 61.0194 31.6629C60.2045 33.0899 59.3989 33.2666 58.6975 33.2685C56.9707 33.2765 55.271 33.6989 53.7412 34.5001C53.7412 34.5001 56.1152 38.4889 57.3152 38.0294Z" fill="#EB9481"/>
<path d="M63.7409 27.9222L60.1056 32.7352C60.0535 32.8013 59.9837 32.8513 59.9043 32.8793C59.8249 32.9073 59.7392 32.9121 59.6572 32.8934L57.0246 32.0859C56.9907 32.079 56.9595 32.0627 56.9343 32.039C56.9092 32.0152 56.8911 31.9849 56.8822 31.9515C56.8733 31.9181 56.8739 31.8828 56.884 31.8497C56.894 31.8166 56.9131 31.7869 56.939 31.7641L60.5744 26.951C60.6262 26.8846 60.696 26.8344 60.7755 26.8064C60.8549 26.7783 60.9407 26.7737 61.0228 26.7929L63.6553 27.6003C63.6892 27.6073 63.7205 27.6236 63.7457 27.6473C63.7708 27.6711 63.7889 27.7013 63.7977 27.7348C63.8066 27.7682 63.806 27.8035 63.796 27.8366C63.786 27.8697 63.7669 27.8993 63.7409 27.9222Z" fill="#37474F"/>
<path d="M63.4196 27.5205L60.787 26.7131C60.7048 26.6945 60.619 26.6997 60.5396 26.728C60.4602 26.7563 60.3905 26.8066 60.3386 26.8731L56.7051 31.6861C56.6769 31.7085 56.6558 31.7386 56.6444 31.7728C56.6329 31.807 56.6317 31.8437 56.6407 31.8786C56.6498 31.9135 56.6688 31.945 56.6954 31.9693C56.722 31.9935 56.7552 32.0096 56.7907 32.0154L59.4233 32.8229C59.5053 32.8412 59.5909 32.8361 59.6701 32.8081C59.7494 32.7801 59.8193 32.7305 59.8716 32.6647L63.5051 27.8517C63.534 27.8294 63.5556 27.7992 63.5674 27.7647C63.5792 27.7303 63.5807 27.6931 63.5716 27.6579C63.5625 27.6226 63.5432 27.5908 63.5162 27.5664C63.4892 27.542 63.4556 27.526 63.4196 27.5205ZM59.8158 32.4563C59.7687 32.5186 59.7049 32.5664 59.6318 32.594C59.5588 32.6216 59.4794 32.6281 59.4028 32.6126L57.0493 31.8908C56.9172 31.8498 56.8875 31.7047 56.9842 31.5875L60.3684 27.1056C60.5544 26.8489 60.6791 26.8675 60.8112 26.9084L61.2819 27.0535C61.3098 27.0535 61.3117 27.0963 61.2819 27.1298L61.2707 27.1447C61.2093 27.2266 61.2596 27.2414 61.321 27.2601L62.4112 27.5949C62.4401 27.6112 62.4743 27.6154 62.5063 27.6067C62.5383 27.598 62.5656 27.5771 62.5824 27.5484L62.5935 27.5335C62.6036 27.5174 62.618 27.5045 62.6352 27.4963C62.6523 27.488 62.6714 27.4848 62.6903 27.487L63.1628 27.6321C63.293 27.6712 63.3749 27.7382 63.1963 27.9745L59.8158 32.4563Z" fill="#263238"/>
<path d="M62.0928 27.3727L61.797 27.2797C61.7954 27.2785 61.7942 27.2769 61.7933 27.2751C61.7924 27.2734 61.792 27.2714 61.792 27.2695C61.792 27.2675 61.7924 27.2655 61.7933 27.2638C61.7942 27.262 61.7954 27.2604 61.797 27.2592C61.8005 27.2544 61.8054 27.2508 61.8111 27.2488C61.8167 27.2468 61.8228 27.2465 61.8286 27.2481L62.1263 27.3392C62.1282 27.3404 62.1298 27.342 62.1309 27.344C62.132 27.3459 62.1326 27.3481 62.1326 27.3504C62.1326 27.3526 62.132 27.3548 62.1309 27.3568C62.1298 27.3588 62.1282 27.3604 62.1263 27.3616C62.1223 27.3663 62.117 27.3699 62.1111 27.3719C62.1052 27.3739 62.0988 27.3742 62.0928 27.3727Z" fill="white"/>
<path d="M63.1995 27.974L59.8153 32.4559C59.7682 32.5181 59.7044 32.5659 59.6313 32.5935C59.5582 32.6212 59.4789 32.6276 59.4023 32.6121L57.0488 31.8903C56.9167 31.8493 56.8869 31.7042 56.9837 31.587L60.3679 27.1051C60.5539 26.8484 60.6786 26.867 60.8107 26.9079L61.2814 27.0531C61.3093 27.0531 61.3111 27.0958 61.2814 27.1293L61.2702 27.1442C61.2088 27.2261 61.259 27.241 61.3204 27.2596L62.4107 27.5944C62.4396 27.6107 62.4737 27.6149 62.5058 27.6062C62.5378 27.5975 62.5651 27.5766 62.5818 27.5479L62.593 27.5331C62.6031 27.5169 62.6175 27.504 62.6346 27.4958C62.6518 27.4876 62.6709 27.4844 62.6897 27.4865L63.1623 27.6317C63.3018 27.6707 63.3781 27.7358 63.1995 27.974Z" fill="white"/>
<path d="M63.1999 27.974L62.9469 28.3089L60.1152 27.44L60.3683 27.1051C60.5543 26.8484 60.679 26.867 60.811 26.9079L61.2818 27.0531C61.3097 27.0531 61.3115 27.0958 61.2818 27.1293L61.2706 27.1442C61.2092 27.2261 61.2594 27.241 61.3208 27.2596L62.4111 27.5945C62.44 27.6107 62.4741 27.6149 62.5062 27.6062C62.5382 27.5975 62.5655 27.5766 62.5822 27.5479L62.5934 27.5331C62.6035 27.5169 62.6179 27.504 62.635 27.4958C62.6521 27.4876 62.6712 27.4844 62.6901 27.4865L63.1608 27.6317C63.3022 27.6707 63.3785 27.7358 63.1999 27.974Z" fill="#A10000"/>
<path d="M60.5249 27.3642L60.4951 27.2694L60.6309 27.2266L60.6347 27.2414L60.523 27.2787L60.5472 27.3568L60.5249 27.3642Z" fill="white"/>
<path d="M62.9414 27.9855C62.9375 27.988 62.933 27.9893 62.9283 27.9893C62.9237 27.9893 62.9191 27.988 62.9152 27.9855C62.9136 27.9844 62.9124 27.983 62.9115 27.9814C62.9106 27.9798 62.9102 27.9779 62.9102 27.9761C62.9102 27.9742 62.9106 27.9724 62.9115 27.9708C62.9124 27.9691 62.9136 27.9677 62.9152 27.9667C62.918 27.9625 62.922 27.9592 62.9267 27.9572C62.9313 27.9552 62.9365 27.9546 62.9414 27.9555C62.9452 27.9686 62.949 27.978 62.9414 27.9855Z" fill="white"/>
<path d="M62.9023 28.0374C62.8981 28.0401 62.8932 28.0415 62.8882 28.0415C62.8833 28.0415 62.8784 28.0401 62.8742 28.0374C62.8726 28.0364 62.8714 28.035 62.8705 28.0334C62.8696 28.0317 62.8691 28.0299 62.8691 28.0281C62.8691 28.0262 62.8696 28.0244 62.8705 28.0227C62.8714 28.0211 62.8726 28.0197 62.8742 28.0187C62.8768 28.0143 62.8808 28.0108 62.8855 28.0088C62.8902 28.0068 62.8954 28.0063 62.9004 28.0074C62.9044 28.0072 62.9083 28.0085 62.9113 28.0112C62.9143 28.0138 62.9161 28.0175 62.9164 28.0215C62.9166 28.0255 62.9153 28.0294 62.9126 28.0324C62.91 28.0354 62.9063 28.0372 62.9023 28.0374Z" fill="white"/>
<path d="M62.863 28.09C62.8588 28.0927 62.854 28.0941 62.849 28.0941C62.844 28.0941 62.8391 28.0927 62.8349 28.09C62.8255 28.09 62.8236 28.0787 62.8349 28.0694C62.8385 28.0656 62.8429 28.0628 62.8478 28.0612C62.8527 28.0596 62.8579 28.0592 62.863 28.06C62.867 28.06 62.8708 28.0616 62.8736 28.0644C62.8765 28.0672 62.878 28.071 62.878 28.075C62.878 28.079 62.8765 28.0828 62.8736 28.0856C62.8708 28.0884 62.867 28.09 62.863 28.09Z" fill="white"/>
<path d="M61.1259 27.1296H61.1128C61.1109 27.1222 61.1069 27.1154 61.1013 27.1102C61.0957 27.1049 61.0887 27.1013 61.0812 27.0998C61.063 27.0943 61.0436 27.0943 61.0254 27.0998H61.0347H61.0533H61.0849H61.0979V27.111L61.1259 27.1296Z" fill="white"/>
<path d="M61.0312 27.1239C61.0441 27.1202 61.0578 27.1202 61.0706 27.1239C61.0783 27.124 61.0858 27.1266 61.0919 27.1314C61.098 27.1361 61.1024 27.1427 61.1044 27.1501H61.0931C61.091 27.1455 61.0879 27.1414 61.084 27.1382C61.0801 27.1349 61.0756 27.1326 61.0706 27.1314C61.059 27.1238 61.0449 27.1211 61.0312 27.1239Z" fill="white"/>
<path d="M61.0705 27.146H61.0592C61.0584 27.1434 61.057 27.1409 61.055 27.139C61.053 27.137 61.0506 27.1356 61.048 27.1348C61.0412 27.133 61.0341 27.133 61.0273 27.1348C61.0536 27.1235 61.0705 27.1291 61.0705 27.146Z" fill="white"/>
<path d="M61.0542 27.1522C61.0542 27.1522 61.0542 27.1522 61.0424 27.1522H61.0522C61.0522 27.1522 61.0562 27.1503 61.0542 27.1522Z" fill="white"/>
<path d="M60.6717 27.0044C60.6746 27.0001 60.6785 26.9967 60.6831 26.9944C60.6877 26.9921 60.6928 26.991 60.6979 26.9912C60.6999 26.9924 60.7015 26.9941 60.7026 26.996C60.7037 26.998 60.7043 27.0002 60.7043 27.0025C60.7043 27.0048 60.7037 27.007 60.7026 27.009C60.7015 27.0109 60.6999 27.0126 60.6979 27.0138C60.6944 27.0186 60.6894 27.0223 60.6837 27.0243C60.678 27.0263 60.6719 27.0266 60.666 27.025C60.6647 27.0234 60.6638 27.0215 60.6634 27.0194C60.6629 27.0174 60.663 27.0153 60.6635 27.0132C60.6641 27.0112 60.6651 27.0094 60.6665 27.0078C60.6679 27.0063 60.6697 27.0051 60.6717 27.0044Z" fill="white"/>
<path d="M60.731 27.023C60.7345 27.0181 60.7395 27.0145 60.7452 27.0125C60.7509 27.0104 60.757 27.0102 60.7629 27.0117C60.7648 27.0129 60.7664 27.0146 60.7675 27.0165C60.7686 27.0185 60.7692 27.0207 60.7692 27.023C60.7692 27.0253 60.7686 27.0275 60.7675 27.0295C60.7664 27.0314 60.7648 27.0331 60.7629 27.0343C60.759 27.0388 60.754 27.0422 60.7484 27.0442C60.7428 27.0461 60.7368 27.0466 60.731 27.0455C60.729 27.0443 60.7274 27.0427 60.7263 27.0407C60.7252 27.0387 60.7246 27.0365 60.7246 27.0343C60.7246 27.032 60.7252 27.0298 60.7263 27.0278C60.7274 27.0258 60.729 27.0242 60.731 27.023Z" fill="white"/>
<path d="M60.7903 27.0402C60.7936 27.0356 60.7984 27.0322 60.8038 27.0305C60.8092 27.0288 60.815 27.0289 60.8203 27.0308C60.8316 27.0308 60.8335 27.0439 60.8203 27.0533C60.8155 27.0563 60.81 27.0579 60.8044 27.0579C60.7987 27.0579 60.7932 27.0563 60.7884 27.0533C60.7847 27.0608 60.7828 27.0495 60.7903 27.0402Z" fill="white"/>
<path d="M60.8482 27.0586C60.8521 27.0542 60.8571 27.0509 60.8627 27.0489C60.8682 27.0469 60.8742 27.0464 60.88 27.0473C60.882 27.0485 60.8836 27.0501 60.8847 27.0521C60.8858 27.0541 60.8864 27.0563 60.8864 27.0586C60.8864 27.0608 60.8858 27.063 60.8847 27.065C60.8836 27.067 60.882 27.0686 60.88 27.0698C60.8763 27.0745 60.8714 27.078 60.8657 27.08C60.8601 27.082 60.854 27.0824 60.8482 27.0811C60.8462 27.0799 60.8446 27.0782 60.8435 27.0763C60.8424 27.0743 60.8418 27.0721 60.8418 27.0698C60.8418 27.0675 60.8424 27.0653 60.8435 27.0633C60.8446 27.0614 60.8462 27.0597 60.8482 27.0586Z" fill="white"/>
<path d="M60.9077 27.0777C60.9113 27.0728 60.9163 27.0691 60.9219 27.0671C60.9276 27.0651 60.9338 27.0649 60.9396 27.0664C60.9509 27.0664 60.9527 27.0796 60.9396 27.0889C60.936 27.0938 60.9311 27.0975 60.9254 27.0995C60.9197 27.1015 60.9136 27.1017 60.9077 27.1002C60.9058 27.099 60.9042 27.0974 60.9031 27.0954C60.902 27.0934 60.9014 27.0912 60.9014 27.0889C60.9014 27.0867 60.902 27.0844 60.9031 27.0825C60.9042 27.0805 60.9058 27.0789 60.9077 27.0777Z" fill="white"/>
<path d="M63.0955 27.8383L62.8555 27.7638L62.9578 27.6299L63.1978 27.7024L63.0955 27.8383Z" fill="white"/>
<path d="M63.0775 27.7231L62.9789 27.6934L62.9473 27.7343L63.0459 27.7659L63.0775 27.7231Z" fill="white"/>
<path d="M63.103 27.7768L63.0898 27.773L63.1161 27.7393L63.1292 27.743L63.103 27.7768Z" fill="white"/>
<path d="M57.447 31.6747L57.4266 31.6673L57.3596 31.7566L57.3187 31.7436L57.3521 31.6989L57.2815 31.6766L57.248 31.7212L57.207 31.7101L57.274 31.6208L57.2517 31.6152L57.4173 31.5557L57.447 31.6747Z" fill="#EBEBEB"/>
<path d="M59.6591 32.2792L59.4229 32.2066L59.4452 32.1787L59.6815 32.2494L59.6591 32.2792Z" fill="#EBEBEB"/>
<path d="M59.6036 32.3533L59.3691 32.2807L59.3915 32.251L59.6259 32.3235L59.6036 32.3533Z" fill="#EBEBEB"/>
<path d="M59.5479 32.4285L59.3135 32.3559L59.3358 32.3262L59.5702 32.3987L59.5479 32.4285Z" fill="#EBEBEB"/>
<path d="M58.5099 31.9849L58.3946 32.0277L58.376 31.944L58.3946 31.9365L58.4113 32.0072L58.5043 31.97L58.5099 31.9849Z" fill="#EBEBEB"/>
<path d="M58.3923 32.1839C58.3695 32.1876 58.3462 32.1876 58.3235 32.1839C58.2964 32.1756 58.2717 32.1612 58.251 32.1418C58.2304 32.1225 58.2144 32.0987 58.2044 32.0723C58.1961 32.0433 58.195 32.0128 58.2012 31.9833C58.2073 31.9538 58.2206 31.9262 58.2397 31.903C58.2735 31.8604 58.3189 31.8284 58.3703 31.8109C58.4218 31.7934 58.4772 31.7912 58.53 31.8044C58.5571 31.812 58.582 31.8262 58.6024 31.8456C58.6229 31.8651 58.6382 31.8892 58.6472 31.916C58.6557 31.9448 58.6571 31.9753 58.6513 32.0048C58.6454 32.0342 58.6325 32.0619 58.6137 32.0853C58.5863 32.117 58.5523 32.1423 58.514 32.1593C58.4757 32.1764 58.4342 32.1848 58.3923 32.1839ZM58.4574 31.9718C58.4347 31.9738 58.4132 31.9829 58.396 31.9979C58.4212 31.9971 58.4454 31.9879 58.4649 31.9718H58.4574Z" fill="#EBEBEB"/>
<path d="M61.4415 27.5873C61.4565 27.5691 61.4762 27.5553 61.4985 27.5475C61.5208 27.5396 61.5448 27.5379 61.568 27.5427C61.576 27.5446 61.5835 27.5482 61.5899 27.5534C61.5963 27.5585 61.6016 27.565 61.6052 27.5724C61.6052 27.5724 61.6052 27.5855 61.5959 27.5873C61.5866 27.5892 61.581 27.5873 61.5791 27.5873C61.5767 27.5821 61.573 27.5776 61.5685 27.574C61.564 27.5705 61.5587 27.568 61.5531 27.5669C61.5374 27.5613 61.5204 27.5613 61.5047 27.5669C61.4897 27.5722 61.4763 27.5812 61.4656 27.5929C61.4613 27.598 61.4582 27.604 61.4566 27.6104C61.455 27.6169 61.4549 27.6236 61.4563 27.6301C61.4587 27.6363 61.4624 27.6419 61.4672 27.6464C61.4721 27.651 61.4779 27.6543 61.4843 27.6562C61.4976 27.6599 61.5118 27.6599 61.5252 27.6562H61.5401C61.5397 27.6595 61.5382 27.6626 61.5358 27.6649C61.5334 27.6673 61.5304 27.6688 61.527 27.6692C61.5076 27.6748 61.487 27.6748 61.4675 27.6692C61.4597 27.6664 61.4526 27.6618 61.4468 27.6559C61.441 27.6499 61.4367 27.6426 61.4342 27.6347C61.4317 27.6268 61.431 27.6184 61.4323 27.6102C61.4335 27.602 61.4367 27.5941 61.4415 27.5873Z" fill="white"/>
<path d="M61.5573 27.6934L61.6392 27.5855C61.6423 27.5839 61.6459 27.583 61.6494 27.583C61.653 27.583 61.6565 27.5839 61.6596 27.5855C61.6608 27.5864 61.6617 27.5875 61.6624 27.5888C61.663 27.5901 61.6634 27.5915 61.6634 27.5929C61.6634 27.5944 61.663 27.5958 61.6624 27.5971C61.6617 27.5984 61.6608 27.5995 61.6596 27.6004L61.6262 27.6432L61.6801 27.6599L61.7136 27.6153C61.7164 27.6136 61.7196 27.6128 61.7229 27.6128C61.7262 27.6128 61.7294 27.6136 61.7322 27.6153C61.7322 27.6153 61.7415 27.6153 61.7322 27.6283L61.6503 27.738C61.6475 27.7397 61.6443 27.7405 61.641 27.7405C61.6378 27.7405 61.6346 27.7397 61.6317 27.738C61.6317 27.738 61.6224 27.738 61.6317 27.7232L61.6652 27.6785L61.6113 27.6618L61.5778 27.7064C61.5746 27.7081 61.5711 27.7089 61.5675 27.7089C61.564 27.7089 61.5605 27.7081 61.5573 27.7064C61.5573 27.7064 61.5536 27.7008 61.5573 27.6934Z" fill="white"/>
<path d="M61.7824 27.736L61.7303 27.7211L61.7024 27.7415C61.7001 27.7429 61.6976 27.7435 61.6949 27.7435C61.6923 27.7435 61.6898 27.7429 61.6875 27.7415C61.6875 27.7415 61.6875 27.7304 61.6875 27.7248L61.8159 27.6299C61.8185 27.6286 61.8213 27.6279 61.8242 27.6279C61.8271 27.6279 61.83 27.6286 61.8326 27.6299C61.8326 27.6299 61.8326 27.6299 61.8326 27.6392L61.7973 27.762C61.7958 27.7653 61.7935 27.7681 61.7905 27.7701C61.7876 27.772 61.7841 27.7731 61.7805 27.7732C61.7805 27.7732 61.7805 27.7732 61.7805 27.7639L61.7824 27.736ZM61.7824 27.7136L61.7954 27.6671L61.7489 27.7025L61.7824 27.7136Z" fill="white"/>
<path d="M61.9683 27.6984L61.9367 27.6873L61.8623 27.7877C61.8592 27.7895 61.8556 27.7905 61.852 27.7905C61.8484 27.7905 61.8449 27.7895 61.8418 27.7877V27.7747L61.9162 27.6761L61.8846 27.6649C61.8846 27.6649 61.8753 27.6649 61.8846 27.6519C61.8874 27.6503 61.8906 27.6494 61.8939 27.6494C61.8972 27.6494 61.9004 27.6503 61.9032 27.6519L61.9925 27.6798V27.6928C61.9896 27.6963 61.9857 27.6987 61.9813 27.6997C61.977 27.7007 61.9724 27.7003 61.9683 27.6984Z" fill="white"/>
<path d="M59.0117 29.4064L61.0359 30.0278L61.4638 29.4622L59.4378 28.8408L59.0117 29.4064Z" fill="#455A64"/>
<path d="M61.224 30.0861L61.0361 30.0284L61.1682 29.8535L61.224 30.0861Z" fill="#455A64"/>
<path d="M61.2671 29.5346L59.4736 28.9839L59.4811 28.9746L61.2746 29.5234L61.2671 29.5346Z" fill="white"/>
<path d="M60.8501 29.4787L59.4287 29.0434L59.4362 29.0322L60.8575 29.4676L60.8501 29.4787Z" fill="white"/>
<path d="M60.9883 29.6638L59.3418 29.1596L59.3492 29.1484L60.9958 29.6545L60.9883 29.6638Z" fill="white"/>
<path d="M61.0905 29.7679L59.2988 29.2172L59.3063 29.2061L61.0998 29.7568L61.0905 29.7679Z" fill="white"/>
<path d="M61.0474 29.8255L59.2539 29.2748L59.2613 29.2637L61.0548 29.8144L61.0474 29.8255Z" fill="white"/>
<path d="M60.5057 29.7307L59.209 29.3325L59.2183 29.3232L60.515 29.7195L60.5057 29.7307Z" fill="white"/>
<path d="M58.0039 30.7404L60.03 31.3618L60.456 30.7962L58.4318 30.1748L58.0039 30.7404Z" fill="#455A64"/>
<path d="M60.2172 31.4192L60.0293 31.3615L60.1595 31.1885L60.2172 31.4192Z" fill="#455A64"/>
<path d="M60.2583 30.8686L58.4648 30.3179L58.4723 30.3086L60.2658 30.8574L60.2583 30.8686Z" fill="white"/>
<path d="M59.8423 30.8127L58.4209 30.3774L58.4302 30.3662L59.8516 30.8016L59.8423 30.8127Z" fill="white"/>
<path d="M59.9796 30.9978L58.335 30.4936L58.3424 30.4824L59.9871 30.9885L59.9796 30.9978Z" fill="white"/>
<path d="M60.0835 31.1019L58.29 30.5512L58.2975 30.54L60.091 31.0907L60.0835 31.1019Z" fill="white"/>
<path d="M60.0386 31.1595L58.2451 30.6088L58.2544 30.5977L60.0479 31.1484L60.0386 31.1595Z" fill="white"/>
<path d="M59.4999 31.0647L58.2031 30.6665L58.2106 30.6572L59.5073 31.0554L59.4999 31.0647Z" fill="white"/>
<path d="M62.074 28.9599L60.0498 28.3385L60.4089 27.8604L62.4349 28.4817L62.074 28.9599Z" fill="#A10000"/>
<path d="M59.8623 28.2813L60.0502 28.3389L60.1804 28.1641L59.8623 28.2813Z" fill="#A10000"/>
<path d="M61.9462 28.4542L60.4541 27.9965L60.4615 27.9854L61.9555 28.4449L61.9462 28.4542Z" fill="white"/>
<path d="M62.2027 28.6048L60.4092 28.0541L60.4185 28.043L62.2101 28.5937L62.2027 28.6048Z" fill="white"/>
<path d="M62.1578 28.6625L60.3662 28.1118L60.3737 28.1025L62.1671 28.6514L62.1578 28.6625Z" fill="white"/>
<path d="M61.9744 28.6774L60.3223 28.1713L60.3297 28.1602L61.9818 28.6662L61.9744 28.6774Z" fill="white"/>
<path d="M62.0709 28.7778L60.2793 28.2289L60.2867 28.2178L62.0802 28.7685L62.0709 28.7778Z" fill="white"/>
<path d="M61.559 28.6921L60.2344 28.2866L60.2418 28.2754L61.5683 28.6828L61.559 28.6921Z" fill="white"/>
<path d="M61.7488 29.3899L59.7246 28.7685L59.9907 28.415L62.0167 29.0364L61.7488 29.3899Z" fill="#A10000"/>
<path d="M59.5371 28.7111L59.725 28.7687L59.8552 28.5957L59.5371 28.7111Z" fill="#A10000"/>
<path d="M61.8249 29.1L60.0352 28.5512L60.0426 28.54L61.8324 29.0889L61.8249 29.1Z" fill="white"/>
<path d="M61.4637 29.0609L59.9902 28.6088L59.9995 28.5977L61.473 29.0497L61.4637 29.0609Z" fill="white"/>
<path d="M61.5687 29.1632L59.9482 28.6664L59.9557 28.6553L61.578 29.1539L61.5687 29.1632Z" fill="white"/>
<path d="M61.1536 29.1073L59.9033 28.7241L59.9126 28.7129L61.1629 29.098L61.1536 29.1073Z" fill="white"/>
<path d="M60.7438 30.7216L58.7178 30.1002L59.0955 29.6016L61.1196 30.223L60.7438 30.7216Z" fill="#DBDBDB"/>
<path d="M58.5322 30.043L58.7183 30.1007L58.8504 29.9258L58.5322 30.043Z" fill="#DBDBDB"/>
<path d="M60.7018 30.4277L59.0088 29.9086L59.0181 29.8975L60.7111 30.4184L60.7018 30.4277Z" fill="white"/>
<path d="M60.5212 30.4444L58.9658 29.9662L58.9733 29.9551L60.5286 30.4332L60.5212 30.4444Z" fill="white"/>
<path d="M60.692 30.2827L59.0957 29.7934L59.105 29.7822L60.6994 30.2715L60.692 30.2827Z" fill="white"/>
<path d="M60.9118 30.279L59.1406 29.7358L59.1481 29.7246L60.9192 30.2679L60.9118 30.279Z" fill="white"/>
<path d="M60.5321 30.5188L58.9209 30.024L58.9302 30.0146L60.5395 30.5077L60.5321 30.5188Z" fill="white"/>
<path d="M59.7936 31.9816L57.7676 31.3602L58.082 30.9453L60.1062 31.5667L59.7936 31.9816Z" fill="#A10000"/>
<path d="M57.5791 31.3028L57.767 31.3604L57.8972 31.1855L57.5791 31.3028Z" fill="#A10000"/>
<path d="M59.9196 31.6264L58.1279 31.0757L58.1354 31.0664L59.9289 31.6152L59.9196 31.6264Z" fill="white"/>
<path d="M59.8775 31.684L58.084 31.1333L58.0914 31.124L59.8849 31.6729L59.8775 31.684Z" fill="white"/>
<path d="M59.6912 31.6989L58.0391 31.1928L58.0484 31.1816L59.6986 31.6877L59.6912 31.6989Z" fill="white"/>
<path d="M59.7896 31.7993L57.9961 31.2504L58.0035 31.2393L59.797 31.79L59.7896 31.7993Z" fill="white"/>
<path d="M59.2777 31.7136L57.9512 31.308L57.9605 31.2969L59.2851 31.7043L59.2777 31.7136Z" fill="white"/>
<path d="M59.0472 33.2543C58.3235 33.2822 60.6435 31.7659 60.6603 30.9306C60.677 30.0952 59.8789 30.3836 59.2556 30.8636C57.0956 32.538 55.4342 32.4915 54.3551 34.0617C53.2761 35.632 59.0472 33.2543 59.0472 33.2543Z" fill="#EB9481"/>
<path d="M56.8337 32.2998C56.3642 32.4282 55.9128 32.6158 55.4905 32.8579C55.1149 33.1043 54.7897 33.42 54.5323 33.7882C54.5212 33.8049 54.5435 33.8254 54.5565 33.8086C55.1333 33.0645 56.004 32.6793 56.8393 32.3072C56.839 32.3057 56.8383 32.3042 56.8373 32.3029C56.8364 32.3016 56.8351 32.3006 56.8337 32.2998Z" fill="#263238"/>
<path d="M48.698 35.5662C49.2654 35.7058 53.1631 34.5392 53.1631 34.5392L55.4887 39.8286C55.4887 39.8286 48.6905 41.5774 47.0831 41.0621C45.4756 40.5467 42.871 35.1774 41.9947 32.0462C41.1705 29.103 42.1324 27.1476 44.3184 30.1653C44.3259 30.1653 48.4022 35.4937 48.698 35.5662Z" fill="#A10000"/>
<path d="M54.2532 40.1226C53.8141 40.2231 53.2895 40.3422 52.722 40.4631L50.5918 35.2538C51.1016 35.1291 51.6355 34.984 52.0802 34.8594C52.7369 36.4408 53.5332 38.3701 54.2532 40.1226Z" fill="#EBEBEB"/>
<path d="M52.1265 40.5842L51.6334 40.6828L49.5088 35.4902C49.6576 35.4623 49.8195 35.4288 49.9869 35.3916C50.6307 36.947 51.4139 38.8446 52.1265 40.5842Z" fill="#EBEBEB"/>
<path d="M47.0013 40.8936C45.6488 40.2406 43.9167 36.6964 43.5837 36.0006C43.3697 35.5559 43.1744 35.102 42.9809 34.648C42.5957 33.7364 42.2367 32.8155 41.8962 31.889C41.897 31.887 41.8973 31.8848 41.8971 31.8827C41.8968 31.8806 41.8961 31.8786 41.8949 31.8768C41.8937 31.8751 41.8921 31.8736 41.8902 31.8726C41.8883 31.8716 41.8862 31.8711 41.8841 31.8711C41.882 31.8711 41.8799 31.8716 41.878 31.8726C41.8761 31.8736 41.8745 31.8751 41.8733 31.8768C41.8721 31.8786 41.8714 31.8806 41.8712 31.8827C41.8709 31.8848 41.8712 31.887 41.872 31.889C42.0643 32.6071 42.2919 33.3153 42.5548 34.0136C42.3871 33.755 42.2348 33.4866 42.099 33.2099C42.099 33.1969 42.0692 33.2099 42.0748 33.221C42.2136 33.5513 42.3916 33.8636 42.605 34.1513C42.873 34.8527 43.1725 35.5411 43.5037 36.2108C43.5985 36.3969 45.6078 40.7485 47.1111 41.1206C47.6339 41.2508 49.4088 41.0815 49.7846 40.9866C49.7995 40.9866 49.8032 40.9625 49.7846 40.9625C49.273 40.9699 47.4888 41.1318 47.0013 40.8936Z" fill="#263238"/>
<path d="M54.0001 39.209C53.9294 39.0229 53.8587 38.8369 53.7861 38.662C53.641 38.2992 52.7666 36.1373 52.3945 35.4639C52.3945 35.4453 52.3573 35.4639 52.3629 35.4787C52.5806 36.2229 53.5033 38.3532 53.6652 38.7048C53.7433 38.8908 53.8215 39.0639 53.9033 39.2425C53.9852 39.4211 54.0894 39.5941 54.1675 39.7746C54.1675 39.7913 54.2047 39.7746 54.1973 39.7634C54.1229 39.5829 54.0745 39.3913 54.0001 39.209Z" fill="#263238"/>
<path d="M53.1666 34.5474C52.841 34.5697 49.9201 35.3214 49.2745 35.4776C49.1213 35.5331 48.9592 35.5596 48.7963 35.5558C48.637 35.5122 48.4985 35.4133 48.4056 35.2767C48.1898 35.0404 45.8214 32.0581 45.6503 31.913C45.587 31.8572 45.5368 31.8479 45.5982 31.9428C45.7042 32.1046 48.0075 35.0497 48.2159 35.2916C48.4242 35.5335 48.588 35.7325 48.9098 35.7121C49.0475 35.7028 52.9898 34.7223 53.1889 34.6367C53.2224 34.62 53.2168 34.5437 53.1666 34.5474Z" fill="#263238"/>
<path d="M45.4421 29.5818C44.8542 29.6897 43.3528 28.9995 42.9807 28.1493C42.9547 28.0897 43.0924 27.513 43.2263 26.8023C43.3045 26.3707 43.3826 25.8869 43.4124 25.4423C43.4124 25.3511 46.1454 26.3725 46.1454 26.3725C45.9367 26.9157 45.7955 27.4824 45.7249 28.06C45.7182 28.1218 45.7182 28.1842 45.7249 28.246C45.7259 28.2559 45.7259 28.2659 45.7249 28.2758C45.7677 28.6218 46.0747 29.4646 45.4421 29.5818Z" fill="#EB9481"/>
<path d="M45.7411 28.2382V28.2679C45.6455 28.272 45.5497 28.2689 45.4546 28.2586C43.8137 28.0726 43.5606 25.9795 43.5234 25.4512C44.0146 25.5665 46.1579 26.3665 46.1579 26.3665C45.9492 26.9097 45.808 27.4764 45.7374 28.054C45.733 28.1153 45.7342 28.177 45.7411 28.2382Z" fill="#263238"/>
<path d="M42.2939 22.5269C42.1916 23.5613 43.2688 26.2739 44.0892 26.7632C45.2762 27.4739 46.9395 27.2301 47.4697 25.8683C47.9851 24.5474 46.519 21.0311 45.6297 20.6199C44.3255 20.006 42.4446 20.9976 42.2939 22.5269Z" fill="#EB9481"/>
<path d="M45.379 23.6611C45.379 23.6611 45.3678 23.676 45.379 23.6816C45.4553 23.8676 45.5148 24.0835 45.379 24.21C45.5613 24.1114 45.4813 23.8286 45.379 23.6611Z" fill="#263238"/>
<path d="M45.1404 23.5331C44.8372 23.6261 45.0456 24.2271 45.3265 24.1396C45.6074 24.0522 45.3935 23.4568 45.1404 23.5331Z" fill="#263238"/>
<path d="M46.4629 23.3174C46.4629 23.3174 46.4815 23.3174 46.4834 23.3285C46.5429 23.5146 46.6415 23.723 46.8313 23.7267C46.6173 23.7788 46.4889 23.5053 46.4629 23.3174Z" fill="#263238"/>
<path d="M46.5582 23.0665C46.8503 22.94 47.081 23.5316 46.8113 23.6488C46.5415 23.766 46.3182 23.1725 46.5582 23.0665Z" fill="#263238"/>
<path d="M44.807 23.3417C44.878 23.2914 44.9463 23.2374 45.0116 23.1798C45.091 23.1324 45.153 23.0606 45.1883 22.9751C45.1935 22.9459 45.189 22.9158 45.1755 22.8893C45.1621 22.8628 45.1405 22.8414 45.1139 22.8282C45.0574 22.8107 44.9971 22.8088 44.9395 22.8225C44.882 22.8363 44.8291 22.8652 44.7865 22.9063C44.6864 22.9754 44.6159 23.0797 44.5893 23.1984C44.5842 23.2257 44.5873 23.254 44.5982 23.2796C44.6091 23.3052 44.6273 23.327 44.6506 23.3423C44.6738 23.3575 44.701 23.3656 44.7289 23.3655C44.7567 23.3654 44.7838 23.3571 44.807 23.3417Z" fill="#263238"/>
<path d="M46.6901 22.685C46.6008 22.6999 46.5189 22.698 46.4296 22.7055C46.3388 22.7248 46.2442 22.7144 46.1598 22.6757C46.136 22.6584 46.1185 22.6337 46.1101 22.6054C46.1016 22.5772 46.1028 22.5469 46.1133 22.5194C46.143 22.4677 46.1858 22.4248 46.2374 22.395C46.2891 22.3653 46.3477 22.3498 46.4073 22.3501C46.5273 22.334 46.6491 22.3624 46.7496 22.4301C46.7717 22.4468 46.7884 22.4696 46.7978 22.4956C46.8072 22.5217 46.8089 22.5499 46.8026 22.5769C46.7963 22.6039 46.7823 22.6284 46.7623 22.6476C46.7424 22.6668 46.7173 22.6798 46.6901 22.685Z" fill="#263238"/>
<path d="M45.8141 24.8206C45.8867 24.8776 45.9703 24.9191 46.0595 24.9425C46.1488 24.9658 46.242 24.9706 46.3332 24.9565C46.413 24.9446 46.4907 24.9215 46.5639 24.8876L46.6067 24.8671L46.6439 24.8467C46.6529 24.8412 46.6601 24.8331 46.6644 24.8235C46.6687 24.8138 46.67 24.8031 46.6681 24.7927C46.6691 24.7866 46.6691 24.7803 46.6681 24.7741V24.7592C46.6234 24.6141 46.5341 24.402 46.5341 24.402C46.5955 24.402 46.9062 24.4374 46.8727 24.363C46.6317 23.7243 46.3269 23.1116 45.963 22.5341C45.9518 22.5155 45.922 22.5341 45.9295 22.5509C46.149 23.1425 46.4709 23.6913 46.6997 24.283C46.5899 24.2719 46.479 24.2763 46.3704 24.296C46.3518 24.309 46.5564 24.7034 46.5564 24.7704C46.4433 24.8229 46.3208 24.852 46.1961 24.8562C46.0715 24.8604 45.9473 24.8394 45.8309 24.7946C45.8011 24.7927 45.7918 24.8095 45.8141 24.8206Z" fill="#263238"/>
<path d="M46.4482 24.8452C46.4051 24.9744 46.3295 25.0904 46.2287 25.1819C46.172 25.2301 46.1018 25.2593 46.0277 25.2657C45.8659 25.2787 45.8156 25.1429 45.8026 25.0182C45.795 24.9508 45.795 24.8828 45.8026 24.8154C46.009 24.8944 46.2354 24.9049 46.4482 24.8452Z" fill="#263238"/>
<path d="M46.2288 25.1816C46.1721 25.2297 46.1019 25.259 46.0278 25.2653C45.866 25.2783 45.8158 25.1425 45.8027 25.0179C45.8818 24.994 45.9667 24.9971 46.0438 25.0267C46.121 25.0564 46.186 25.1108 46.2288 25.1816Z" fill="#FF9BBC"/>
<path d="M43.2348 25.0364C43.7669 24.8168 43.0953 23.3433 43.0953 23.3433C43.3135 23.2343 43.4962 23.0656 43.6224 22.8568C43.7485 22.648 43.8128 22.4077 43.8078 22.1638C43.8078 22.1638 46.0906 21.9778 46.4125 21.0885C46.7344 20.1992 46.1037 19.0624 45.8227 19.0773C45.5418 19.0922 45.2646 19.5796 45.2646 19.5796C45.2646 19.5796 44.9688 19.2187 44.7381 19.2447C44.3827 19.2838 44.3269 19.7564 44.1799 19.9108C43.7781 20.3145 42.3939 20.761 42.0943 21.1573C42.0085 21.2549 41.9482 21.3723 41.9186 21.4988C41.8891 21.6254 41.8913 21.7574 41.925 21.8829C41.7996 21.9652 41.6965 22.0773 41.6248 22.209C41.5531 22.3408 41.515 22.4882 41.5139 22.6382C41.4692 23.3099 42.699 25.2596 43.2348 25.0364Z" fill="#263238"/>
<path d="M43.282 24.9083C43.6709 24.3502 43.2932 23.5892 42.9248 23.1111C42.9248 23.1111 42.9248 23.0962 42.9378 23.1111C43.3099 23.5483 43.7527 24.4134 43.3099 24.9344C43.3065 24.9381 43.3017 24.9402 43.2966 24.9404C43.2916 24.9406 43.2866 24.9388 43.2829 24.9353C43.2792 24.9318 43.2771 24.9271 43.2769 24.922C43.2767 24.9169 43.2786 24.912 43.282 24.9083Z" fill="#263238"/>
<path d="M43.4362 22.0815C43.9587 22.1504 44.4886 22.141 45.0083 22.0536C45.2444 22.0041 45.4741 21.928 45.693 21.8266C45.9106 21.7261 46.2976 21.5531 46.3832 21.3057C46.2965 21.5016 46.1419 21.6595 45.9478 21.7503C45.6965 21.9047 45.4229 22.0195 45.1367 22.0908C44.5755 22.2367 43.9878 22.2481 43.4213 22.1243C43.3953 22.1205 43.4083 22.0796 43.4362 22.0815Z" fill="#263238"/>
<path d="M42.318 20.8166C42.5716 20.6688 42.8344 20.5376 43.105 20.424C43.4362 20.2622 43.838 20.104 44.1004 19.8398H44.1097C43.9254 20.0284 43.7086 20.1822 43.4697 20.2938C43.2353 20.4222 42.9953 20.5412 42.7534 20.6547C42.478 20.785 42.1748 20.9338 42.0092 21.2129C41.8436 21.4919 41.8994 21.771 41.9348 22.0519C41.9348 22.0575 41.9329 22.063 41.9293 22.0673C41.9258 22.0716 41.9208 22.0746 41.9153 22.0757C41.9099 22.0768 41.9042 22.0759 41.8992 22.0733C41.8943 22.0707 41.8904 22.0664 41.8883 22.0612C41.8088 21.8357 41.8081 21.59 41.8861 21.364C41.9641 21.138 42.1164 20.945 42.318 20.8166Z" fill="#263238"/>
<path d="M41.7986 22.0166C41.2144 22.4408 41.5121 23.304 41.8116 23.812C42.0736 24.3099 42.4874 24.7113 42.993 24.958C43.0172 24.9673 42.993 25.0045 42.9744 24.9952C42.3679 24.7571 41.9214 24.1766 41.6423 23.6073C41.434 23.1775 41.1995 22.2715 41.7986 22.0166Z" fill="#263238"/>
<path d="M43.4712 24.7093C43.4712 24.7093 42.6359 23.9428 42.2749 24.2609C41.914 24.579 42.6805 25.7865 43.2052 25.8591C43.2716 25.873 43.3402 25.8734 43.4068 25.8603C43.4734 25.8471 43.5367 25.8206 43.5928 25.7824C43.6489 25.7442 43.6967 25.695 43.7334 25.6378C43.7701 25.5807 43.7948 25.5167 43.8061 25.4497L43.4712 24.7093Z" fill="#EB9481"/>
<path d="M42.5039 24.6013V24.6143C42.876 24.6776 43.1216 24.951 43.3169 25.2506C43.29 25.2209 43.257 25.1975 43.22 25.1819C43.1831 25.1663 43.1433 25.159 43.1032 25.1604C43.0632 25.1618 43.024 25.172 42.9883 25.1901C42.9525 25.2082 42.9212 25.234 42.8965 25.2655C42.8965 25.2655 42.8965 25.2859 42.9095 25.2822C42.9645 25.2495 43.0285 25.235 43.0923 25.2407C43.156 25.2464 43.2164 25.2719 43.2648 25.3138C43.3458 25.383 43.4188 25.461 43.4825 25.5464C43.5067 25.5743 43.5569 25.5464 43.5383 25.5129C43.4472 25.072 42.9765 24.5417 42.5039 24.6013Z" fill="#263238"/>
<path d="M45.9401 28.168H45.9308C46.1168 28.7038 46.5112 29.954 45.6666 30.1047C45.3145 30.1346 44.9614 30.0608 44.6508 29.8926C44.331 29.7448 44.0278 29.5633 43.7466 29.3512C43.4213 29.1222 43.1152 28.8671 42.8312 28.5884C42.8182 28.5754 42.8033 28.5884 42.8145 28.607C43.1028 28.8861 43.3726 29.1875 43.6777 29.4387C43.9761 29.684 44.3066 29.8874 44.6601 30.0433C44.9885 30.2133 45.3613 30.2783 45.728 30.2294C45.8849 30.1925 46.024 30.1018 46.1209 29.9729C46.2178 29.8441 46.2664 29.6853 46.2582 29.5242C46.2502 29.0546 46.1417 28.5922 45.9401 28.168Z" fill="#263238"/>
</svg>
