<svg width="104" height="104" viewBox="0 0 104 104" fill="none" xmlns="http://www.w3.org/2000/svg">
<circle cx="52" cy="52" r="51" fill="white" stroke="#ECB800" stroke-width="2"/>
<path d="M73.4283 52.3457H78.7832V50.6414H73.4283V52.3457Z" fill="#EBEBEB"/>
<path d="M76.4149 54.4962C77.3044 54.481 79.5843 54.4429 80.4433 54.4323H81.7699L81.6998 54.5023V52.7981L81.7759 52.8742C80.8865 52.8742 78.6187 52.862 77.7597 52.8498L76.421 52.8331L76.4576 52.7981L76.421 54.5023L76.4149 54.4962ZM76.4149 54.4962L76.3799 52.792V52.7554H76.4164C77.085 52.7463 78.4268 52.7311 79.0939 52.7265L81.7714 52.7158H81.8475V52.792V54.4962V54.5663H81.779H80.4281C79.5752 54.5572 77.3059 54.5191 76.424 54.5038L76.4149 54.4962Z" fill="#EBEBEB"/>
<path d="M44.4164 78.5387C45.3044 78.5234 47.5858 78.4853 48.4433 78.4762L49.7699 78.4686L49.7013 78.5387L49.6937 76.8344L49.7699 76.9105L47.0924 76.8999C46.4268 76.8999 45.082 76.8801 44.4164 76.8709L44.4515 76.8344L44.4164 78.5387ZM44.4164 78.5387L44.3799 76.8344V76.7994H44.418C45.085 76.7902 46.4268 76.775 47.0939 76.7704L49.7714 76.7598H49.8475V76.8359V78.5402V78.6102H49.7775H48.4265C47.5737 78.6011 45.3044 78.563 44.4241 78.5478L44.4164 78.5387Z" fill="#EBEBEB"/>
<path d="M47.403 80.6881C48.2924 80.6728 50.5724 80.6348 51.4298 80.6256L52.7564 80.618L52.6878 80.6881V78.9838L52.7625 79.06C51.8746 79.06 49.6068 79.0493 48.7478 79.0371L47.4091 79.0204L47.4441 78.9838L47.4091 80.6881H47.403ZM47.403 80.6881L47.374 78.9838V78.9488H47.4121C48.0792 78.9396 49.421 78.9244 50.0896 78.9198L52.7655 78.9092H52.8432V78.9853V80.6896V80.7596H52.7731L51.4237 80.752C50.5708 80.7429 48.3 80.7048 47.4197 80.6896L47.403 80.6881Z" fill="#EBEBEB"/>
<path d="M50.3775 78.5391H55.7324V76.8348H50.3775V78.5391Z" fill="#EBEBEB"/>
<path d="M21.8121 54.4951H27.167V52.7909H21.8121V54.4951Z" fill="#EBEBEB"/>
<path d="M24.7984 22.2637H30.1533V20.5594H24.7984V22.2637Z" fill="#EBEBEB"/>
<path d="M21.8119 24.4105C22.7014 24.3953 24.9813 24.3572 25.8403 24.3481H27.1669L27.0968 24.4166V22.7124L27.173 22.7885C26.2835 22.7885 24.0158 22.7778 23.1568 22.7657L21.818 22.7489L21.8485 22.7002L21.8119 24.4044V24.4105ZM21.8119 24.4105L21.7754 22.7002V22.6651H21.8119C22.4805 22.656 23.8208 22.6408 24.4894 22.6347L27.1669 22.624H27.243V22.7002V24.4044V24.4745H27.1745H25.8236C24.9707 24.4638 22.6999 24.4258 21.8196 24.4105H21.8119Z" fill="#EBEBEB"/>
<path d="M73.4282 22.2619C74.3176 22.2466 76.5976 22.2101 77.4565 22.1994H78.7831L78.713 22.2679V20.5637L78.7892 20.6398L76.1117 20.6292C75.4446 20.6292 74.1013 20.6094 73.4342 20.6002L73.4708 20.5637L73.4342 22.2679L73.4282 22.2619ZM73.4282 22.2619L73.3916 20.5576V20.5226H73.4282C74.0968 20.5134 75.4385 20.4982 76.1056 20.4921L78.7831 20.4814H78.8592V20.5576L78.8516 22.2619V22.3319H78.7831H77.4322C76.5793 22.3213 74.31 22.2832 73.4282 22.2679V22.2619Z" fill="#EBEBEB"/>
<path d="M81.8903 33.3816C78.9874 33.4867 75.1509 33.6694 72.2693 33.7014C72.1917 30.8732 72.1886 26.9331 72.1719 24.0668V23.6602H72.5785C75.4586 23.6815 79.3712 23.68 82.2131 23.7576C82.1827 26.627 82.003 30.4909 81.8918 33.3801L81.8903 33.3816ZM81.8903 33.3816C81.7776 30.6645 81.6268 26.729 81.575 24.0668L81.8903 24.376C79.1976 24.4323 75.3093 24.4597 72.577 24.4658L72.9806 24.0714C72.9806 26.8128 72.9486 30.6782 72.8907 33.3862L72.577 33.0709C75.224 33.1227 79.19 33.278 81.8903 33.3862V33.3816Z" fill="#EBEBEB"/>
<path d="M73.7764 28.3035C74.081 28.5533 74.3612 28.8137 74.643 29.0757C74.9247 29.3376 75.1973 29.6103 75.4745 29.8768C76.0198 30.4175 76.5407 30.9718 77.0661 31.5338L76.1355 31.5932C76.8732 30.06 77.717 28.5801 78.6607 27.1643C79.1313 26.4546 79.6278 25.7631 80.1609 25.0915C80.6934 24.4085 81.2715 23.7623 81.891 23.1572C81.6454 23.989 81.3436 24.8031 80.9879 25.5941C80.6406 26.3769 80.2599 27.1399 79.8517 27.8786C79.0385 29.3725 78.1225 30.8081 77.1103 32.175L76.6016 32.8573L76.1797 32.2344C75.7502 31.6024 75.3283 30.9627 74.9262 30.3093C74.7298 29.9788 74.5257 29.6544 74.3353 29.3178C74.1449 28.9813 73.9515 28.6508 73.7764 28.3035Z" fill="#C7C7C7"/>
<path d="M60.5283 59.4053V84.1087H75.4539V59.4053H60.5283ZM74.1045 74.9888H61.8838V68.5632H74.1045V74.9888ZM74.1045 67.028H61.8838V60.6008H74.1045V67.028Z" fill="#DBDBDB"/>
<path d="M82.2115 59.4082H75.46V84.107H82.2115V59.4082Z" fill="#EBEBEB"/>
<path d="M64.7882 60.6006H61.8838V67.0308H64.7882V60.6006Z" fill="#EBEBEB"/>
<path d="M74.1426 82.595H61.9219V76.3887H74.1426V82.595ZM61.998 82.5188H74.0664V76.4633H61.995L61.998 82.5188Z" fill="#EBEBEB"/>
<path d="M69.2386 78.1523H66.8262V79.0342H69.2386V78.1523Z" fill="#EBEBEB"/>
<path d="M64.7882 68.5635H61.8838V74.9937H64.7882V68.5635Z" fill="#EBEBEB"/>
<path d="M72.4326 74.993V69.0654H70.3902V74.993H72.4326Z" fill="#A6A6A6"/>
<path d="M72.4326 74.0411V72.7617H70.3902V74.0411H72.4326Z" fill="#DBDBDB"/>
<path d="M72.4326 71.7331V70.9746H70.3902V71.7331H72.4326Z" fill="#DBDBDB"/>
<path d="M70.6113 62.0703H65.4482V67.0308H70.6113V62.0703Z" fill="#EBEBEB"/>
<path d="M72.573 62.0703H70.6113V67.0308H72.573V62.0703Z" fill="#C7C7C7"/>
<path d="M65.4482 64.5518H70.6113L66.5783 64.6782L65.4482 64.5518Z" fill="#C7C7C7"/>
<path d="M70.6113 66.4326H65.4482L69.4797 66.5606L70.6113 66.4326Z" fill="#C7C7C7"/>
<path d="M65.4482 63.1641H68.7182L65.8107 63.2692L65.4482 63.1641Z" fill="#C7C7C7"/>
<path d="M70.6107 65.7012H67.3408L70.2467 65.8063L70.6107 65.7012Z" fill="#C7C7C7"/>
<path d="M66.6865 62.6123H70.3753L69.76 62.6747L66.6865 62.6123Z" fill="#C7C7C7"/>
<path d="M65.9492 65.083H69.638L69.0242 65.1455L65.9492 65.083Z" fill="#C7C7C7"/>
<path d="M68.2188 63.6367H70.6114L71.0394 63.8043L68.2188 63.6367Z" fill="#EBEBEB"/>
<path d="M64.7881 63.6367H67.1808L67.6087 63.8043L64.7881 63.6367Z" fill="#EBEBEB"/>
<path d="M67.8587 65.8662H65.4661L65.0381 66.0337L67.8587 65.8662Z" fill="#EBEBEB"/>
<path d="M70.6113 65.2998H72.5319L72.9598 65.4673L70.6113 65.2998Z" fill="#C7C7C7"/>
<path d="M71.2812 64.5511H72.7708L72.5728 64.4141L71.2812 64.5511Z" fill="#C7C7C7"/>
<path d="M74.1049 68.668H72.4326V74.9915H74.1049V68.668Z" fill="#EBEBEB"/>
<path d="M73.2658 69.9143C73.1967 69.9143 73.1292 69.8938 73.0718 69.8555C73.0144 69.8171 72.9697 69.7625 72.9434 69.6987C72.917 69.6349 72.9102 69.5647 72.9238 69.497C72.9374 69.4293 72.9708 69.3671 73.0197 69.3184C73.0686 69.2697 73.1309 69.2366 73.1987 69.2233C73.2664 69.21 73.3366 69.2172 73.4003 69.2438C73.464 69.2704 73.5184 69.3154 73.5565 69.3729C73.5946 69.4305 73.6148 69.498 73.6145 69.5671C73.6145 69.6128 73.6055 69.6581 73.588 69.7003C73.5704 69.7426 73.5447 69.7809 73.5123 69.8132C73.4799 69.8454 73.4414 69.871 73.3991 69.8883C73.3568 69.9057 73.3115 69.9145 73.2658 69.9143Z" fill="white"/>
<path d="M73.2659 69.7623C73.2264 69.7623 73.1878 69.7506 73.1549 69.7286C73.1221 69.7066 73.0965 69.6753 73.0814 69.6388C73.0664 69.6022 73.0625 69.5621 73.0704 69.5233C73.0782 69.4846 73.0973 69.449 73.1254 69.4212C73.1534 69.3933 73.1891 69.3745 73.2279 69.3669C73.2667 69.3594 73.3069 69.3636 73.3433 69.3789C73.3798 69.3942 73.4108 69.4201 73.4326 69.4531C73.4543 69.4861 73.4657 69.5248 73.4654 69.5643C73.465 69.617 73.4438 69.6673 73.4065 69.7044C73.3691 69.7415 73.3186 69.7623 73.2659 69.7623Z" fill="#A6A6A6"/>
<path d="M74.1045 73.9963V72.458H72.4322V73.9963H74.1045Z" fill="white"/>
<path d="M70.39 73.6865H64.0664V75.0009H70.39V73.6865Z" fill="#C7C7C7"/>
<path d="M69.1426 74.3444C69.1423 74.2753 69.1625 74.2077 69.2007 74.1501C69.2389 74.0925 69.2934 74.0476 69.3572 74.021C69.421 73.9944 69.4912 73.9874 69.559 74.0008C69.6268 74.0142 69.6891 74.0474 69.738 74.0963C69.7868 74.1452 69.8201 74.2074 69.8335 74.2752C69.8469 74.343 69.8399 74.4133 69.8133 74.4771C69.7867 74.5409 69.7418 74.5953 69.6842 74.6335C69.6266 74.6717 69.5589 74.692 69.4898 74.6917C69.3979 74.6913 69.3098 74.6546 69.2447 74.5895C69.1797 74.5245 69.143 74.4364 69.1426 74.3444Z" fill="white"/>
<path d="M69.292 74.345C69.292 74.3055 69.3037 74.2669 69.3257 74.234C69.3477 74.2012 69.379 74.1756 69.4155 74.1605C69.4521 74.1455 69.4923 74.1416 69.531 74.1495C69.5697 74.1573 69.6053 74.1764 69.6331 74.2045C69.661 74.2325 69.6798 74.2682 69.6874 74.307C69.6949 74.3458 69.6907 74.386 69.6754 74.4224C69.6601 74.4589 69.6342 74.4899 69.6012 74.5117C69.5682 74.5334 69.5295 74.5448 69.49 74.5445C69.4373 74.5441 69.387 74.5229 69.3499 74.4856C69.3128 74.4482 69.292 74.3977 69.292 74.345Z" fill="#A6A6A6"/>
<path d="M65.0623 75.0029H66.6006V73.6886H65.0623V75.0029Z" fill="white"/>
<path d="M73.2127 24.8779H34.8447V75.8412H73.2127V24.8779Z" fill="#ECB800"/>
<g opacity="0.3">
<path d="M73.2127 24.8779H34.8447V75.8412H73.2127V24.8779Z" fill="#020100"/>
</g>
<path d="M72.1697 24.8779H33.8018V75.8412H72.1697V24.8779Z" fill="#ECB800"/>
<g opacity="0.2">
<path d="M72.1697 24.8779H33.8018V75.8412H72.1697V24.8779Z" fill="#020100"/>
</g>
<path d="M70.0548 26.9122L36.1855 27.3438L36.7705 73.256L70.6398 72.8245L70.0548 26.9122Z" fill="#EBEBEB"/>
<path d="M36.4575 26.7666L35.4639 72.6719L69.3279 73.4049L70.3216 27.4996L36.4575 26.7666Z" fill="#DBDBDB"/>
<path d="M69.8271 27.126H35.9551V73.042H69.8271V27.126Z" fill="white"/>
<path d="M69.8273 73.0424C69.7984 73.0515 35.9477 73.0698 35.9203 73.0774C35.8929 73.085 35.9036 27.1431 35.8975 27.1264V27.07H35.9523C35.9873 27.0609 69.8319 27.0929 69.8639 27.0852C69.8776 27.1264 69.8136 72.9998 69.8243 73.0424H69.8273ZM69.8273 73.0424L69.7862 27.1264C70.0649 27.204 35.8822 27.1721 35.9553 27.1842L36.0117 27.1264L35.9904 73.0424C35.7543 72.9952 69.8867 73.0424 69.8273 73.0424Z" fill="#DBDBDB"/>
<path d="M63.4277 41.8259C64.1683 41.7208 64.9199 41.7208 65.6605 41.8259C64.9199 41.9302 64.1683 41.9302 63.4277 41.8259Z" fill="#C7C7C7"/>
<path d="M58.3594 41.8267C59.8044 41.7231 61.255 41.7231 62.7 41.8267C61.255 41.9303 59.8044 41.9303 58.3594 41.8267Z" fill="#C7C7C7"/>
<path d="M49.292 41.8265C51.9375 41.7245 54.6028 41.7245 57.2498 41.8265C54.6028 41.9286 51.9375 41.9286 49.292 41.8265Z" fill="#C7C7C7"/>
<path d="M40.252 41.8265C42.9812 41.7245 45.7348 41.7245 48.461 41.8265C45.7303 41.9286 42.9782 41.9286 40.252 41.8265Z" fill="#C7C7C7"/>
<path d="M62.2627 43.7878C63.3929 43.6827 64.5304 43.6827 65.6606 43.7878C64.5303 43.8921 63.3929 43.8921 62.2627 43.7878Z" fill="#C7C7C7"/>
<path d="M52.1436 43.7876C55.1226 43.6841 58.1214 43.6841 61.1004 43.7876C58.1214 43.8897 55.1226 43.8897 52.1436 43.7876Z" fill="#C7C7C7"/>
<path d="M46.5391 43.7878C48.0816 43.6827 49.6295 43.6827 51.1721 43.7878C49.6295 43.8914 48.0817 43.8914 46.5391 43.7878Z" fill="#C7C7C7"/>
<path d="M40.252 43.7878C42.0527 43.6827 43.858 43.6827 45.6587 43.7878C43.8579 43.8914 42.0527 43.8914 40.252 43.7878Z" fill="#C7C7C7"/>
<path d="M61.2725 45.7486C62.7332 45.645 64.1995 45.645 65.6603 45.7486C64.1995 45.8521 62.7332 45.8521 61.2725 45.7486Z" fill="#C7C7C7"/>
<path d="M55.1426 45.7486C56.8625 45.645 58.5872 45.645 60.3071 45.7486C58.5872 45.8521 56.8625 45.8521 55.1426 45.7486Z" fill="#C7C7C7"/>
<path d="M45.1943 45.7484C48.1886 45.6464 51.2042 45.6464 54.2 45.7484C51.2042 45.8504 48.1886 45.8504 45.1943 45.7484Z" fill="#C7C7C7"/>
<path d="M40.252 45.7486C41.5383 45.645 42.831 45.645 44.1174 45.7486C42.831 45.8521 41.5383 45.8521 40.252 45.7486Z" fill="#C7C7C7"/>
<path d="M62.9844 47.7097C63.8733 47.6046 64.7714 47.6046 65.6603 47.7097C64.7714 47.814 63.8733 47.814 62.9844 47.7097Z" fill="#C7C7C7"/>
<path d="M58.2373 47.7095C59.5161 47.6059 60.8011 47.6059 62.0799 47.7095C60.8011 47.8131 59.5161 47.8131 58.2373 47.7095Z" fill="#C7C7C7"/>
<path d="M51.2871 47.7095C53.2733 47.6059 55.2635 47.6059 57.2497 47.7095C55.2635 47.8131 53.2733 47.8131 51.2871 47.7095Z" fill="#C7C7C7"/>
<path d="M47.2002 47.7097C48.193 47.6046 49.1941 47.6046 50.1868 47.7097C49.194 47.814 48.193 47.814 47.2002 47.7097Z" fill="#C7C7C7"/>
<path d="M40.252 47.7095C42.167 47.6059 44.0863 47.6059 46.0014 47.7095C44.0863 47.8131 42.167 47.8131 40.252 47.7095Z" fill="#C7C7C7"/>
<path d="M61.2725 49.6716C62.7332 49.5665 64.1996 49.5665 65.6603 49.6716C64.1995 49.7752 62.7332 49.7752 61.2725 49.6716Z" fill="#C7C7C7"/>
<path d="M56.623 49.6716C57.8931 49.5665 59.1697 49.5665 60.4397 49.6716C59.1696 49.7751 57.8932 49.7751 56.623 49.6716Z" fill="#C7C7C7"/>
<path d="M52.5303 49.6716C53.606 49.5665 54.6894 49.5665 55.7652 49.6716C54.6894 49.7759 53.606 49.7759 52.5303 49.6716Z" fill="#C7C7C7"/>
<path d="M44.9688 49.6716C47.2076 49.5665 49.4632 49.5665 51.7035 49.6716C49.4632 49.7752 47.2076 49.7752 44.9688 49.6716Z" fill="#C7C7C7"/>
<path d="M40.252 49.6716C41.4727 49.5665 42.7002 49.5665 43.9209 49.6716C42.7002 49.7759 41.4727 49.7759 40.252 49.6716Z" fill="#C7C7C7"/>
<path d="M55.9863 51.6372C57.4989 51.5337 59.0169 51.5337 60.5295 51.6372C59.0169 51.7416 57.4989 51.7416 55.9863 51.6372Z" fill="#C7C7C7"/>
<path d="M50.748 51.6373C52.2109 51.5337 53.6792 51.5337 55.142 51.6373C53.6797 51.7416 52.2118 51.7416 50.7496 51.6373H50.748Z" fill="#C7C7C7"/>
<path d="M47.2002 51.6378C48.0947 51.5335 48.9984 51.5335 49.8929 51.6378C48.9984 51.7429 48.0947 51.7429 47.2002 51.6378Z" fill="#C7C7C7"/>
<path d="M40.252 51.6381C42.2305 51.5347 44.2132 51.5347 46.1917 51.6381C44.2132 51.7423 42.2305 51.7423 40.252 51.6381Z" fill="#C7C7C7"/>
<path d="M62.8623 55.5544C63.7919 55.4493 64.7305 55.4493 65.6601 55.5544C64.7304 55.6587 63.792 55.6587 62.8623 55.5544Z" fill="#C7C7C7"/>
<path d="M59.8086 55.5553C60.6231 55.4503 61.4477 55.4503 62.2622 55.5553C61.4476 55.6596 60.6231 55.6596 59.8086 55.5553Z" fill="#C7C7C7"/>
<path d="M53.833 55.5544C55.5524 55.4493 57.2766 55.4493 58.996 55.5544C57.2766 55.658 55.5525 55.658 53.833 55.5544Z" fill="#C7C7C7"/>
<path d="M49.9902 55.5544C50.9545 55.4493 51.9273 55.4493 52.8916 55.5544C51.9273 55.6587 50.9545 55.6587 49.9902 55.5544Z" fill="#C7C7C7"/>
<path d="M44.6064 55.5544C46.0809 55.4493 47.5609 55.4493 49.0354 55.5544C47.5609 55.658 46.0809 55.658 44.6064 55.5544Z" fill="#C7C7C7"/>
<path d="M40.252 55.5544C41.3582 55.4493 42.472 55.4493 43.5782 55.5544C42.4719 55.6587 41.3583 55.6587 40.252 55.5544Z" fill="#C7C7C7"/>
<path d="M60.8311 57.5152C62.4392 57.4116 64.0524 57.4116 65.6606 57.5152C64.0524 57.6203 62.4392 57.6203 60.8311 57.5152Z" fill="#C7C7C7"/>
<path d="M55.1426 57.5152C56.7685 57.4116 58.3994 57.4116 60.0254 57.5152C58.3995 57.6203 56.7685 57.6203 55.1426 57.5152Z" fill="#C7C7C7"/>
<path d="M51.5801 57.5148C52.4731 57.4104 53.3752 57.4104 54.2682 57.5148C53.3752 57.6199 52.473 57.6199 51.5801 57.5148Z" fill="#C7C7C7"/>
<path d="M46.5391 57.5152C47.9404 57.4116 49.3474 57.4116 50.7487 57.5152C49.3474 57.6203 47.9403 57.6203 46.5391 57.5152Z" fill="#C7C7C7"/>
<path d="M40.252 57.5152C42.0527 57.4116 43.8579 57.4116 45.6587 57.5152C43.858 57.6203 42.0527 57.6203 40.252 57.5152Z" fill="#C7C7C7"/>
<path d="M52.1436 59.4771C53.5205 59.3735 54.9032 59.3735 56.2801 59.4771C54.9032 59.5806 53.5205 59.5806 52.1436 59.4771Z" fill="#C7C7C7"/>
<path d="M49.292 59.4767C50.004 59.3724 50.7274 59.3724 51.4395 59.4767C50.7275 59.5818 50.004 59.5818 49.292 59.4767Z" fill="#C7C7C7"/>
<path d="M44.7539 59.4767C45.9503 59.3724 47.1534 59.3724 48.3498 59.4767C47.1534 59.581 45.9503 59.581 44.7539 59.4767Z" fill="#C7C7C7"/>
<path d="M40.252 59.4767C41.432 59.3724 42.619 59.3724 43.7991 59.4767C42.619 59.581 41.432 59.581 40.252 59.4767Z" fill="#C7C7C7"/>
<path d="M40.252 65.3724C43.5554 65.2704 46.8817 65.2704 50.1866 65.3724C46.8817 65.4745 43.5554 65.4745 40.252 65.3724Z" fill="#C7C7C7"/>
<path d="M53.5723 65.3719C57.5321 65.2698 61.7021 65.2713 65.6605 65.3719C61.7006 65.4724 57.5275 65.4739 53.5723 65.3719Z" fill="#C7C7C7"/>
<path d="M48.4609 38.0414C51.5146 37.9393 54.588 37.9393 57.6417 38.0414C54.588 38.1434 51.5146 38.1434 48.4609 38.0414Z" fill="#ECB800"/>
<path d="M48.4609 33.9291C51.5146 33.827 54.588 33.827 57.6417 33.9291C54.588 34.0311 51.5146 34.0311 48.4609 33.9291Z" fill="#ECB800"/>
<path d="M42.7432 35.189C42.743 35.172 42.7462 35.1551 42.7526 35.1393C42.759 35.1235 42.7686 35.1091 42.7806 35.097C42.7927 35.085 42.8071 35.0755 42.8228 35.069C42.8386 35.0626 42.8556 35.0594 42.8726 35.0596C42.8898 35.0594 42.9069 35.0626 42.9229 35.069C42.9388 35.0754 42.9534 35.0848 42.9657 35.0969C42.978 35.1089 42.9878 35.1232 42.9946 35.139C43.0013 35.1548 43.0049 35.1718 43.0051 35.189V36.5841C43.0049 36.6013 43.0013 36.6183 42.9946 36.6341C42.9878 36.6499 42.978 36.6643 42.9657 36.6763C42.9534 36.6883 42.9388 36.6978 42.9229 36.7042C42.9069 36.7106 42.8898 36.7138 42.8726 36.7136C42.8556 36.7138 42.8386 36.7106 42.8228 36.7041C42.8071 36.6977 42.7927 36.6882 42.7806 36.6761C42.7686 36.6641 42.759 36.6497 42.7526 36.6339C42.7462 36.6181 42.743 36.6012 42.7432 36.5841V35.189Z" fill="#ECB800"/>
<path d="M44.4066 36.0193V36.5843C44.4068 36.6005 44.4038 36.6166 44.3978 36.6316C44.3918 36.6467 44.3829 36.6604 44.3716 36.672C44.3602 36.6836 44.3468 36.6929 44.3319 36.6992C44.317 36.7056 44.301 36.709 44.2848 36.7092C44.2516 36.7088 44.2199 36.6956 44.1963 36.6723C44.1728 36.649 44.1591 36.6175 44.1584 36.5843V36.0193C44.158 35.9875 44.1513 35.9561 44.1388 35.9268C44.1262 35.8976 44.108 35.8711 44.0853 35.8489C44.0625 35.8267 44.0356 35.8092 44.0061 35.7974C43.9765 35.7856 43.9449 35.7798 43.9131 35.7802C43.8819 35.7802 43.8509 35.7864 43.8221 35.7984C43.7933 35.8105 43.7671 35.8281 43.7451 35.8504C43.7232 35.8726 43.7058 35.899 43.6942 35.928C43.6825 35.957 43.6767 35.988 43.6771 36.0193V36.5843C43.6791 36.5918 43.6791 36.5997 43.6771 36.6072C43.6709 36.6358 43.6552 36.6615 43.6325 36.68C43.6098 36.6985 43.5815 36.7088 43.5522 36.7092C43.5357 36.7094 43.5193 36.7063 43.5039 36.7001C43.4886 36.694 43.4747 36.6848 43.4629 36.6732C43.4511 36.6616 43.4418 36.6477 43.4354 36.6325C43.4291 36.6172 43.4258 36.6008 43.4258 36.5843V35.6538C43.4258 35.6372 43.429 35.6207 43.4354 35.6054C43.4418 35.59 43.4511 35.5761 43.4628 35.5644C43.4745 35.5526 43.4885 35.5433 43.5038 35.537C43.5192 35.5306 43.5356 35.5273 43.5522 35.5273C43.5764 35.5275 43.6001 35.5344 43.6205 35.5473C43.641 35.5603 43.6574 35.5787 43.6679 35.6004C43.7428 35.5533 43.8293 35.528 43.9177 35.5273C44.0474 35.5289 44.1713 35.5814 44.2627 35.6734C44.3542 35.7654 44.4058 35.8896 44.4066 36.0193Z" fill="#ECB800"/>
<path d="M45.258 35.4495V35.483H45.3296C45.3639 35.483 45.3968 35.4967 45.4211 35.5209C45.4454 35.5452 45.459 35.5781 45.459 35.6125C45.459 35.647 45.4455 35.68 45.4212 35.7046C45.397 35.7291 45.3641 35.7431 45.3296 35.7435H45.258V36.5765C45.26 36.5948 45.2581 36.6133 45.2524 36.6308C45.2468 36.6483 45.2375 36.6645 45.2253 36.6781C45.213 36.6918 45.1979 36.7028 45.1812 36.7103C45.1644 36.7178 45.1462 36.7216 45.1278 36.7216C45.1094 36.7216 45.0912 36.7178 45.0744 36.7103C45.0576 36.7028 45.0426 36.6918 45.0303 36.6781C45.018 36.6645 45.0088 36.6483 45.0031 36.6308C44.9975 36.6133 44.9956 36.5948 44.9976 36.5765V35.7435H44.9382C44.9033 35.7435 44.8698 35.7297 44.845 35.7052C44.8202 35.6807 44.8061 35.6474 44.8057 35.6125C44.8057 35.5952 44.8091 35.5781 44.8158 35.5622C44.8225 35.5463 44.8323 35.5319 44.8447 35.5198C44.857 35.5078 44.8716 35.4983 44.8877 35.492C44.9037 35.4857 44.9209 35.4826 44.9382 35.483H44.9991V35.4495C44.9955 35.3698 45.0112 35.2904 45.0448 35.218C45.0611 35.1822 45.0846 35.1501 45.114 35.1239C45.1434 35.0977 45.1779 35.0779 45.2154 35.0657C45.2613 35.0522 45.3091 35.0456 45.357 35.0459C45.3895 35.0494 45.4196 35.0648 45.4414 35.0891C45.4632 35.1134 45.4753 35.145 45.4753 35.1777C45.4753 35.2103 45.4632 35.2419 45.4414 35.2662C45.4196 35.2905 45.3895 35.3059 45.357 35.3094C45.3363 35.3059 45.3152 35.3059 45.2946 35.3094C45.2901 35.3082 45.2853 35.3082 45.2808 35.3094C45.2808 35.3094 45.258 35.3627 45.258 35.4495Z" fill="#ECB800"/>
<path d="M45.8066 36.5371C45.6997 36.4254 45.6411 36.276 45.6436 36.1214C45.6437 35.9676 45.702 35.8197 45.8066 35.7071C45.8582 35.6506 45.9211 35.6055 45.9911 35.5746C46.0611 35.5436 46.1367 35.5276 46.2132 35.5274C46.289 35.5266 46.3641 35.5422 46.4332 35.5733C46.5024 35.6043 46.564 35.6499 46.6138 35.7071C46.7212 35.8182 46.7807 35.9669 46.7798 36.1214C46.7816 36.1983 46.7678 36.2747 46.7392 36.3462C46.7107 36.4176 46.668 36.4826 46.6138 36.5371C46.5647 36.5935 46.5041 36.6387 46.436 36.6697C46.368 36.7007 46.2941 36.7168 46.2193 36.7169C46.1418 36.7175 46.065 36.7019 45.9938 36.6709C45.9227 36.6399 45.8589 36.5944 45.8066 36.5371ZM45.901 36.1214C45.8984 36.2122 45.9286 36.3009 45.9863 36.3711C46.0164 36.4001 46.052 36.4228 46.0909 36.438C46.1299 36.4531 46.1715 36.4604 46.2132 36.4595C46.2536 36.4599 46.2936 36.4523 46.331 36.4371C46.3684 36.422 46.4024 36.3995 46.431 36.3711C46.4901 36.3019 46.5226 36.2139 46.5226 36.1229C46.5226 36.0319 46.4901 35.9438 46.431 35.8746C46.3716 35.8195 46.2943 35.7876 46.2132 35.7848C46.1292 35.7861 46.0485 35.8181 45.9863 35.8746C45.9291 35.9439 45.8988 36.0315 45.901 36.1214Z" fill="#ECB800"/>
<path d="M47.8544 35.6538C47.8544 35.6869 47.8413 35.7187 47.8178 35.7421C47.7944 35.7655 47.7626 35.7787 47.7295 35.7787C47.6787 35.7771 47.6288 35.7927 47.5879 35.8228C47.5437 35.8523 47.5068 35.8913 47.4797 35.9371C47.4368 35.9974 47.4039 36.0642 47.3823 36.1351V36.5843C47.3815 36.618 47.3674 36.65 47.3432 36.6734C47.319 36.6968 47.2865 36.7096 47.2528 36.7092C47.2197 36.7092 47.1879 36.6961 47.1645 36.6727C47.1411 36.6492 47.1279 36.6175 47.1279 36.5843V35.6538C47.1283 35.6209 47.1417 35.5895 47.165 35.5665C47.1884 35.5434 47.22 35.5304 47.2528 35.5304C47.2862 35.53 47.3185 35.5427 47.3427 35.5657C47.3669 35.5888 47.3811 35.6204 47.3823 35.6538V35.669C47.3975 35.6517 47.4143 35.6359 47.4325 35.6218C47.5218 35.5599 47.6285 35.5279 47.7371 35.5304C47.7689 35.5316 47.799 35.5452 47.8209 35.5682C47.8428 35.5913 47.8548 35.622 47.8544 35.6538Z" fill="#ECB800"/>
<path d="M49.1526 36.0172V36.5838C49.1526 36.6169 49.1395 36.6487 49.116 36.6721C49.0926 36.6955 49.0609 36.7087 49.0277 36.7087C48.9944 36.7083 48.9626 36.6951 48.9387 36.6719C48.9149 36.6486 48.901 36.6171 48.8998 36.5838V36.0172C48.8998 35.9534 48.8744 35.8922 48.8293 35.8471C48.7842 35.8019 48.723 35.7766 48.6592 35.7766C48.5953 35.7766 48.5341 35.8019 48.489 35.8471C48.4439 35.8922 48.4185 35.9534 48.4185 36.0172V36.5777C48.4185 36.5777 48.4185 36.5899 48.4185 36.5944C48.42 36.5994 48.42 36.6047 48.4185 36.6097V36.6219C48.4073 36.6438 48.3903 36.6624 48.3694 36.6755C48.3485 36.6887 48.3244 36.6959 48.2997 36.6965H48.2754C48.2473 36.6901 48.2221 36.6744 48.2039 36.6521C48.1857 36.6297 48.1755 36.6019 48.1748 36.5731V36.0127V35.6456C48.1744 35.6289 48.1774 35.6124 48.1835 35.5969C48.1896 35.5814 48.1987 35.5672 48.2103 35.5553C48.222 35.5434 48.2359 35.5339 48.2512 35.5275C48.2666 35.521 48.2831 35.5177 48.2997 35.5177C48.3236 35.5167 48.3471 35.5231 48.3673 35.5359C48.3874 35.5486 48.4032 35.5673 48.4124 35.5893C48.511 35.5297 48.6271 35.5063 48.741 35.523C48.8549 35.5396 48.9595 35.5954 49.0369 35.6806C49.1043 35.6066 49.1925 35.5547 49.2899 35.5317C49.3873 35.5088 49.4894 35.5158 49.5828 35.5518C49.6762 35.5879 49.7565 35.6513 49.8132 35.7339C49.8698 35.8164 49.9003 35.9141 49.9004 36.0142V36.5746C49.9 36.6079 49.8865 36.6397 49.8629 36.6631C49.8392 36.6864 49.8073 36.6995 49.774 36.6995C49.7406 36.6995 49.7085 36.6865 49.6846 36.6631C49.6607 36.6398 49.6469 36.608 49.6461 36.5746V36.0142C49.6465 35.9505 49.6218 35.8892 49.5773 35.8436C49.5328 35.7979 49.4722 35.7717 49.4085 35.7705C49.3753 35.7693 49.3423 35.7747 49.3113 35.7866C49.2803 35.7984 49.252 35.8164 49.2281 35.8394C49.2042 35.8625 49.1852 35.8901 49.1722 35.9206C49.1593 35.9512 49.1526 35.984 49.1526 36.0172Z" fill="#ECB800"/>
<path d="M50.3292 36.1183C50.3279 35.9636 50.3879 35.8146 50.496 35.7039C50.6042 35.5932 50.7517 35.5298 50.9064 35.5274C51.0541 35.5265 51.1962 35.5833 51.3026 35.6857C51.409 35.7881 51.4712 35.928 51.476 36.0756V36.0878C51.4775 36.0949 51.4775 36.1021 51.476 36.1091C51.4715 36.1374 51.4564 36.1629 51.4337 36.1804C51.4111 36.198 51.3826 36.2063 51.3541 36.2036H50.6018C50.6141 36.2608 50.642 36.3135 50.6825 36.3559C50.7432 36.4168 50.8237 36.4541 50.9094 36.461C50.9953 36.4697 51.0817 36.4493 51.1546 36.4031C51.1798 36.3814 51.2122 36.3699 51.2454 36.3708C51.2786 36.3716 51.3103 36.3848 51.3343 36.4077C51.3541 36.4281 51.3651 36.4554 51.3651 36.4838C51.3651 36.5122 51.3541 36.5395 51.3343 36.56C51.2185 36.664 51.0665 36.7187 50.9109 36.7123C50.8337 36.7117 50.7573 36.6958 50.6862 36.6656C50.6151 36.6354 50.5506 36.5914 50.4966 36.5362C50.4425 36.481 50.3999 36.4157 50.3711 36.344C50.3424 36.2722 50.3281 36.1955 50.3292 36.1183ZM50.5865 36.0025H51.2551C51.2285 35.9309 51.1811 35.8689 51.1189 35.8244C51.0568 35.7799 50.9828 35.7549 50.9064 35.7528C50.833 35.7532 50.7617 35.7779 50.7039 35.8231C50.646 35.8683 50.6047 35.9314 50.5865 36.0025Z" fill="#ECB800"/>
<path d="M52.9219 36.5815C52.9215 36.6129 52.9096 36.643 52.8884 36.6661C52.8672 36.6892 52.8383 36.7038 52.8071 36.707C52.7759 36.7102 52.7446 36.7018 52.7191 36.6834C52.6937 36.6651 52.6759 36.638 52.6691 36.6074C52.5748 36.6731 52.4627 36.7087 52.3478 36.7094C52.191 36.7094 52.0407 36.6472 51.9299 36.5364C51.8191 36.4255 51.7568 36.2752 51.7568 36.1185C51.7568 35.9618 51.8191 35.8115 51.9299 35.7006C52.0407 35.5898 52.191 35.5276 52.3478 35.5276C52.4609 35.5279 52.5713 35.5624 52.6646 35.6266V35.1895C52.6654 35.1552 52.6795 35.1227 52.704 35.0988C52.7285 35.0749 52.7613 35.0615 52.7955 35.0615C52.8292 35.0619 52.8614 35.0756 52.885 35.0995C52.9087 35.1235 52.922 35.1558 52.9219 35.1895V36.5876V36.5815ZM52.3478 35.785C52.3063 35.7853 52.2653 35.7941 52.2273 35.8109C52.1893 35.8276 52.1552 35.852 52.1269 35.8824C52.096 35.914 52.0716 35.9514 52.0552 35.9924C52.0387 36.0335 52.0305 36.0773 52.031 36.1215C52.0308 36.1648 52.0392 36.2077 52.0556 36.2477C52.0721 36.2877 52.0963 36.324 52.1269 36.3546C52.1554 36.3848 52.1897 36.4088 52.2279 36.4253C52.266 36.4417 52.307 36.4502 52.3485 36.4502C52.39 36.4502 52.4311 36.4417 52.4692 36.4253C52.5073 36.4088 52.5417 36.3848 52.5701 36.3546C52.6005 36.3239 52.6245 36.2875 52.6407 36.2475C52.6569 36.2075 52.665 36.1647 52.6646 36.1215C52.666 36.0325 52.632 35.9465 52.5701 35.8824C52.5417 35.8518 52.5073 35.8274 52.4691 35.8106C52.4308 35.7938 52.3895 35.7851 52.3478 35.785Z" fill="#ECB800"/>
<path d="M54.0762 35.8592C54.0802 35.6317 54.1734 35.415 54.3359 35.2557C54.4983 35.0964 54.7168 35.0074 54.9443 35.0078C55.1415 35.0068 55.3334 35.0716 55.4895 35.1921C55.518 35.2141 55.5366 35.2465 55.5411 35.2823C55.5457 35.318 55.5359 35.354 55.5139 35.3825C55.4919 35.411 55.4595 35.4295 55.4238 35.4341C55.3881 35.4387 55.352 35.4289 55.3235 35.4069C55.2164 35.3203 55.082 35.2744 54.9443 35.2774C54.7856 35.278 54.6332 35.339 54.5178 35.448C54.4633 35.5017 54.42 35.5657 54.3905 35.6363C54.3609 35.7069 54.3457 35.7827 54.3457 35.8592C54.3457 35.9357 54.3609 36.0115 54.3905 36.0821C54.42 36.1527 54.4633 36.2167 54.5178 36.2704C54.6336 36.3784 54.7859 36.4388 54.9443 36.4395C55.082 36.4422 55.2162 36.3964 55.3235 36.31C55.3534 36.2918 55.3886 36.2844 55.4233 36.2891C55.458 36.2939 55.49 36.3104 55.5139 36.3359C55.5344 36.3647 55.5432 36.4001 55.5387 36.4351C55.5342 36.4701 55.5166 36.5021 55.4895 36.5248C55.3334 36.6452 55.1415 36.7101 54.9443 36.709C54.717 36.7099 54.4984 36.6212 54.336 36.4621C54.1735 36.3031 54.0802 36.0865 54.0762 35.8592Z" fill="#ECB800"/>
<path d="M56.0273 36.5371C55.9211 36.4249 55.8626 36.2758 55.8643 36.1213C55.8644 35.9676 55.9226 35.8196 56.0273 35.7071C56.0789 35.6506 56.1417 35.6055 56.2117 35.5745C56.2817 35.5436 56.3574 35.5275 56.4339 35.5273C56.5089 35.5272 56.5831 35.5432 56.6514 35.5742C56.7197 35.6052 56.7806 35.6505 56.8299 35.7071C56.9361 35.8187 56.9951 35.9672 56.9944 36.1213C56.996 36.1981 56.9823 36.2744 56.954 36.3458C56.9258 36.4172 56.8836 36.4822 56.8299 36.5371C56.7806 36.5937 56.7197 36.639 56.6514 36.67C56.5831 36.701 56.5089 36.717 56.4339 36.7168C56.3574 36.7166 56.2817 36.7006 56.2117 36.6696C56.1417 36.6387 56.0789 36.5936 56.0273 36.5371ZM56.1217 36.1213C56.1197 36.212 56.1499 36.3005 56.207 36.3711C56.2371 36.4001 56.2727 36.4228 56.3116 36.4379C56.3506 36.4531 56.3921 36.4604 56.4339 36.4594C56.4742 36.4599 56.5143 36.4523 56.5517 36.4371C56.5891 36.422 56.6231 36.3995 56.6517 36.3711C56.7117 36.3023 56.7447 36.2141 56.7447 36.1228C56.7447 36.0316 56.7117 35.9434 56.6517 35.8746C56.5924 35.8193 56.515 35.7873 56.4339 35.7847C56.3499 35.7861 56.2692 35.818 56.207 35.8746C56.1504 35.9442 56.1202 36.0316 56.1217 36.1213Z" fill="#ECB800"/>
<path d="M58.3816 36.0193V36.5843C58.3816 36.6172 58.3687 36.6487 58.3456 36.6721C58.3225 36.6955 58.2911 36.7088 58.2583 36.7092C58.2254 36.7084 58.1941 36.695 58.1708 36.6718C58.1476 36.6485 58.1342 36.6172 58.1334 36.5843V36.0193C58.133 35.9875 58.1263 35.9561 58.1138 35.9268C58.1013 35.8976 58.0831 35.8711 58.0603 35.8489C58.0375 35.8267 58.0106 35.8092 57.9811 35.7974C57.9516 35.7856 57.92 35.7798 57.8882 35.7802C57.8569 35.7802 57.826 35.7864 57.7971 35.7984C57.7683 35.8105 57.7421 35.8281 57.7202 35.8504C57.6982 35.8726 57.6809 35.899 57.6692 35.928C57.6575 35.957 57.6517 35.988 57.6521 36.0193V36.5843C57.6547 36.5917 57.6547 36.5998 57.6521 36.6072C57.6464 36.6361 57.6309 36.6621 57.6081 36.6807C57.5853 36.6993 57.5567 36.7094 57.5272 36.7092C57.4941 36.7092 57.4623 36.696 57.4389 36.6726C57.4155 36.6492 57.4023 36.6174 57.4023 36.5843V35.6538C57.4023 35.6205 57.4155 35.5886 57.4388 35.5649C57.4622 35.5412 57.494 35.5277 57.5272 35.5273C57.5515 35.5273 57.5752 35.5342 57.5957 35.5471C57.6162 35.5601 57.6326 35.5785 57.643 35.6004C57.7184 35.5533 57.8054 35.528 57.8943 35.5273C58.0237 35.5293 58.1472 35.5819 58.2383 35.6739C58.3294 35.7659 58.3809 35.8898 58.3816 36.0193Z" fill="#ECB800"/>
<path d="M58.7881 36.3712C58.7982 36.358 58.8109 36.347 58.8254 36.3388C58.8399 36.3307 58.856 36.3256 58.8725 36.3239C58.8891 36.3222 58.9058 36.3239 58.9217 36.3289C58.9376 36.3339 58.9522 36.3421 58.9648 36.353C59.0377 36.4154 59.1294 36.4519 59.2253 36.4565C59.282 36.4561 59.3376 36.4409 59.3867 36.4124C59.3984 36.4042 59.4081 36.3935 59.4152 36.3811C59.4223 36.3688 59.4266 36.355 59.4278 36.3408C59.4306 36.3334 59.4306 36.3253 59.4278 36.3179C59.4205 36.3057 59.41 36.2957 59.3974 36.289C59.3388 36.255 59.2741 36.2327 59.207 36.2235C59.1362 36.2107 59.0672 36.1898 59.0014 36.1611C58.9354 36.1313 58.879 36.0839 58.8384 36.024C58.8108 35.978 58.7965 35.9253 58.7973 35.8717C58.7993 35.8207 58.8129 35.7708 58.8372 35.7259C58.8615 35.681 58.8958 35.6423 58.9374 35.6128C59.0231 35.5544 59.1246 35.5235 59.2283 35.5244C59.3575 35.5293 59.4818 35.5752 59.5832 35.6554C59.6106 35.6743 59.6298 35.703 59.6366 35.7357C59.6434 35.7683 59.6373 35.8023 59.6197 35.8306C59.6105 35.8442 59.5987 35.8559 59.585 35.8649C59.5712 35.874 59.5558 35.8801 59.5396 35.8831C59.5235 35.8861 59.5069 35.8858 59.4908 35.8823C59.4747 35.8787 59.4595 35.872 59.4461 35.8625C59.3835 35.8131 59.3078 35.7829 59.2283 35.7757C59.1777 35.7743 59.128 35.7893 59.0867 35.8184C59.0767 35.8238 59.0681 35.8314 59.0615 35.8406C59.0549 35.8499 59.0505 35.8605 59.0486 35.8717C59.0461 35.8781 59.0461 35.8851 59.0486 35.8915C59.055 35.9013 59.064 35.9092 59.0745 35.9143C59.1279 35.9439 59.1862 35.9635 59.2466 35.9722C59.3231 35.9844 59.3974 36.0075 59.4674 36.0407C59.5363 36.0691 59.5948 36.118 59.6349 36.1809C59.6629 36.2268 59.6781 36.2794 59.6791 36.3332C59.6778 36.3878 59.6632 36.4412 59.6367 36.489C59.6101 36.5367 59.5725 36.5773 59.5268 36.6073C59.4372 36.6689 59.331 36.7018 59.2222 36.7017C59.0676 36.697 58.9193 36.6395 58.8019 36.5388C58.7794 36.5174 58.7656 36.4885 58.7631 36.4576C58.7606 36.4267 58.7695 36.396 58.7881 36.3712Z" fill="#ECB800"/>
<path d="M59.9249 36.1183C59.9236 35.9636 59.9836 35.8146 60.0917 35.7039C60.1999 35.5932 60.3474 35.5298 60.5021 35.5274C60.6498 35.5265 60.7919 35.5833 60.8983 35.6857C61.0047 35.7881 61.0669 35.928 61.0717 36.0756V36.0878C61.0732 36.0949 61.0732 36.1021 61.0717 36.1091C61.0672 36.1374 61.0521 36.1629 61.0294 36.1804C61.0068 36.198 60.9784 36.2063 60.9498 36.2036H60.1975C60.2098 36.2608 60.2377 36.3135 60.2782 36.3559C60.3391 36.4166 60.4194 36.4538 60.5051 36.461C60.591 36.4698 60.6774 36.4494 60.7503 36.4031C60.7755 36.3814 60.8079 36.3699 60.8411 36.3708C60.8743 36.3716 60.906 36.3848 60.93 36.4077C60.9498 36.4281 60.9608 36.4554 60.9608 36.4838C60.9608 36.5122 60.9498 36.5395 60.93 36.56C60.8142 36.664 60.6622 36.7187 60.5066 36.7123C60.4294 36.7117 60.353 36.6958 60.2819 36.6656C60.2108 36.6354 60.1463 36.5914 60.0923 36.5362C60.0382 36.481 59.9956 36.4157 59.9669 36.344C59.9381 36.2722 59.9238 36.1955 59.9249 36.1183ZM60.1822 36.0025H60.8524C60.8251 35.931 60.7773 35.8692 60.715 35.8247C60.6526 35.7803 60.5786 35.7552 60.5021 35.7528C60.4287 35.7532 60.3574 35.7779 60.2996 35.8231C60.2417 35.8683 60.2004 35.9314 60.1822 36.0025Z" fill="#ECB800"/>
<path d="M62.433 36.0193V36.5843C62.433 36.6172 62.42 36.6487 62.3969 36.6721C62.3739 36.6955 62.3425 36.7088 62.3096 36.7092C62.2767 36.7084 62.2454 36.695 62.2222 36.6718C62.1989 36.6485 62.1855 36.6172 62.1847 36.5843V36.0193C62.1835 35.9549 62.1569 35.8936 62.1107 35.8488C62.0645 35.804 62.0024 35.7793 61.938 35.7802C61.9067 35.7802 61.8758 35.7864 61.847 35.7984C61.8181 35.8105 61.792 35.8281 61.77 35.8504C61.748 35.8726 61.7307 35.899 61.719 35.928C61.7073 35.957 61.7015 35.988 61.7019 36.0193V36.5843C61.7039 36.5918 61.7039 36.5997 61.7019 36.6072C61.6957 36.6358 61.68 36.6615 61.6573 36.68C61.6346 36.6985 61.6063 36.7088 61.577 36.7092C61.5606 36.7094 61.5443 36.7063 61.529 36.7001C61.5138 36.6939 61.4999 36.6847 61.4883 36.6731C61.4766 36.6614 61.4675 36.6476 61.4612 36.6324C61.455 36.6171 61.452 36.6008 61.4522 36.5843V35.6538C61.452 35.6372 61.455 35.6208 61.4612 35.6055C61.4674 35.5902 61.4766 35.5762 61.4882 35.5645C61.4998 35.5527 61.5136 35.5434 61.5289 35.537C61.5442 35.5306 61.5605 35.5273 61.577 35.5273C61.6012 35.5275 61.6249 35.5344 61.6454 35.5473C61.6658 35.5603 61.6823 35.5787 61.6928 35.6004C61.7676 35.5533 61.8541 35.528 61.9426 35.5273C62.0724 35.5289 62.1965 35.5813 62.2881 35.6733C62.3798 35.7652 62.4318 35.8894 62.433 36.0193Z" fill="#ECB800"/>
<path d="M63.4277 35.6582C63.4269 35.6928 63.4126 35.7257 63.3878 35.7499C63.363 35.7741 63.3298 35.7876 63.2952 35.7876H63.2358V36.4471C63.2531 36.4471 63.2703 36.4505 63.2862 36.4572C63.3022 36.4639 63.3167 36.4737 63.3289 36.486C63.3411 36.4983 63.3507 36.5129 63.3572 36.529C63.3637 36.5451 63.367 36.5623 63.3668 36.5796C63.3668 36.5967 63.3634 36.6137 63.3568 36.6295C63.3502 36.6453 63.3405 36.6596 63.3283 36.6717C63.3161 36.6837 63.3017 36.6932 63.2858 36.6996C63.2699 36.706 63.2529 36.7092 63.2358 36.709C63.1664 36.7086 63.1 36.6809 63.051 36.6319C63.0019 36.5828 62.9742 36.5164 62.9738 36.4471V35.7876H62.9098C62.8777 35.7841 62.848 35.7689 62.8265 35.7449C62.8049 35.7208 62.793 35.6897 62.793 35.6574C62.793 35.6251 62.8049 35.5939 62.8265 35.5699C62.848 35.5459 62.8777 35.5307 62.9098 35.5272H62.9784V35.1891C62.9784 35.1718 62.9818 35.1547 62.9885 35.1388C62.9952 35.1229 63.005 35.1085 63.0174 35.0964C63.0297 35.0844 63.0443 35.0749 63.0604 35.0686C63.0765 35.0623 63.0936 35.0592 63.1109 35.0596C63.1279 35.0594 63.1449 35.0626 63.1607 35.069C63.1765 35.0755 63.1908 35.085 63.2029 35.0971C63.2149 35.1091 63.2245 35.1235 63.2309 35.1393C63.2373 35.1551 63.2405 35.172 63.2403 35.1891V35.5317H63.2997C63.3331 35.5329 63.3647 35.5465 63.3884 35.5699C63.4121 35.5933 63.4262 35.6249 63.4277 35.6582Z" fill="#ECB800"/>
<path d="M54.5527 64.4875C54.8101 64.3108 55.0736 64.1433 55.3462 63.9879C55.6145 63.8232 55.9026 63.6932 56.2037 63.6011C56.2428 63.5911 56.2825 63.5835 56.3225 63.5782C56.3461 63.5719 56.371 63.5726 56.3943 63.5801C56.4175 63.5877 56.4381 63.6018 56.4535 63.6209C56.494 63.6954 56.513 63.7798 56.5083 63.8645C56.5051 64.023 56.4888 64.1809 56.4596 64.3367C56.4027 64.6447 56.3306 64.9497 56.2433 65.2505C56.0757 65.8538 55.8676 66.445 55.6204 67.0202C55.5581 67.1668 55.4837 67.3079 55.398 67.4421C55.374 67.4778 55.3459 67.5105 55.3142 67.5396C55.2919 67.5609 55.2628 67.5738 55.232 67.5761C55.2115 67.5759 55.1917 67.569 55.1756 67.5563L55.1467 67.5274C55.1019 67.4514 55.0792 67.3643 55.0812 67.2761C55.0887 66.9584 55.1442 66.6436 55.2457 66.3425C55.3382 66.0415 55.4564 65.749 55.599 65.4683C55.736 65.184 55.9221 64.9262 56.1489 64.7068C56.271 64.5988 56.4208 64.5271 56.5814 64.4996C56.6637 64.4869 56.7478 64.4943 56.8266 64.521C56.9024 64.5585 56.9631 64.6209 56.9987 64.6976C57.0354 64.7647 57.0794 64.8275 57.1297 64.885C57.1519 64.9124 57.1815 64.9328 57.215 64.9439C57.2484 64.9549 57.2844 64.9562 57.3185 64.9474C57.4627 64.8958 57.5959 64.8178 57.7115 64.7174C57.7739 64.6702 57.8348 64.623 57.9003 64.5773C57.9327 64.5539 57.9668 64.533 58.0024 64.5149C58.0359 64.4996 58.0861 64.4722 58.1318 64.5149C58.1928 64.591 58.1775 64.6672 58.208 64.7418C58.2167 64.7763 58.2383 64.8061 58.2683 64.8251C58.2984 64.8441 58.3346 64.8508 58.3694 64.8438C58.5 64.7618 58.6163 64.6589 58.7136 64.5392C58.8187 64.425 58.9223 64.3077 59.0182 64.1905C59.2223 63.9544 59.4234 63.7153 59.6274 63.4807C59.7325 63.365 59.8391 63.2492 59.9518 63.1411C60.009 63.0872 60.069 63.0363 60.1316 62.9888C60.1649 62.9644 60.2006 62.9435 60.2382 62.9264C60.2596 62.9163 60.283 62.9111 60.3067 62.9111C60.321 62.9114 60.335 62.915 60.3477 62.9216C60.3604 62.9282 60.3714 62.9377 60.3798 62.9492C60.416 63.0272 60.4272 63.1144 60.4118 63.199C60.4037 63.2778 60.391 63.3562 60.3737 63.4335C60.2696 63.8956 60.102 64.341 59.8757 64.757C59.8338 64.8285 59.7826 64.894 59.7234 64.952C59.7063 64.9712 59.6851 64.9862 59.6614 64.996C59.6376 65.0057 59.6119 65.01 59.5863 65.0083C59.5425 65.0032 59.4998 64.9908 59.4599 64.9718C59.3826 64.9352 59.3144 64.8819 59.2601 64.8158C59.2059 64.7497 59.167 64.6724 59.1462 64.5895C59.1329 64.5382 59.1394 64.4839 59.1644 64.4372C59.1785 64.4128 59.1991 64.3928 59.2238 64.3793C59.2488 64.3665 59.2765 64.3602 59.3046 64.3611C59.3876 64.369 59.4691 64.3885 59.5467 64.4189C59.699 64.4722 59.8407 64.5347 59.9838 64.5971C60.127 64.6596 60.2702 64.7235 60.4133 64.7814C60.4849 64.8103 60.558 64.8378 60.6296 64.8591C60.6633 64.87 60.698 64.8776 60.7332 64.8819C60.7628 64.8843 60.7924 64.8779 60.8184 64.8636C60.9357 64.8042 61.0149 64.658 61.1322 64.5438C61.195 64.4752 61.2804 64.4314 61.3728 64.4204C61.3902 64.4187 61.4077 64.4206 61.4242 64.4262C61.4408 64.4317 61.4559 64.4406 61.4688 64.4524C61.4804 64.4654 61.4893 64.4806 61.4948 64.4971C61.5003 64.5136 61.5023 64.531 61.5008 64.5484C61.4979 64.5912 61.4903 64.6337 61.4779 64.6748C61.4566 64.7464 61.4474 64.8347 61.4672 64.8378C61.487 64.8408 61.58 64.8378 61.6454 64.8271C61.7888 64.7842 61.9226 64.7144 62.0399 64.6215C62.1039 64.5773 62.1663 64.5286 62.2394 64.4875C62.3164 64.4371 62.4084 64.4151 62.4999 64.425C62.6567 64.485 62.7948 64.5854 62.9004 64.7159C62.9513 64.7696 63.0074 64.8181 63.0679 64.8606C63.0954 64.8774 63.1212 64.8834 63.1273 64.8774C63.1591 64.8616 63.1892 64.8427 63.2172 64.821C63.3412 64.7302 63.4592 64.6315 63.5705 64.5255C63.7993 64.3173 64.0037 64.0838 64.1797 63.8295C64.2672 63.7113 64.32 63.571 64.332 63.4244C64.332 63.2843 64.1874 63.2203 64.0381 63.1975C63.7353 63.1463 63.4257 63.1504 63.1243 63.2096C62.9733 63.2371 62.8253 63.2794 62.6826 63.3361C62.6125 63.3633 62.546 63.3991 62.4846 63.4427C62.4267 63.4853 62.375 63.5462 62.3917 63.595C62.4231 63.6584 62.4776 63.7075 62.544 63.732C62.611 63.7655 62.6857 63.7884 62.7588 63.8173C62.9051 63.8688 63.0541 63.9125 63.205 63.9483C63.8142 64.0915 64.4402 64.1006 65.0631 64.1265V64.1372C64.4402 64.1189 63.8097 64.1372 63.1928 64.0001C63.0381 63.9672 62.8855 63.925 62.7359 63.8737C62.6602 63.849 62.586 63.82 62.5136 63.7869C62.4727 63.7719 62.4353 63.7488 62.4036 63.719C62.3719 63.6891 62.3466 63.6532 62.3293 63.6132C62.323 63.5677 62.3305 63.5212 62.3508 63.48C62.3712 63.4387 62.4035 63.4045 62.4435 63.3817C62.5085 63.3337 62.579 63.2938 62.6537 63.263C62.8009 63.2021 62.954 63.1567 63.1106 63.1274C63.4221 63.0609 63.7432 63.0522 64.0579 63.1015C64.1416 63.1129 64.2222 63.1403 64.2955 63.1822C64.3351 63.2067 64.3681 63.2404 64.3917 63.2805C64.4153 63.3205 64.4288 63.3657 64.431 63.4122C64.427 63.5791 64.374 63.7412 64.2787 63.8783C64.1033 64.1427 63.8962 64.3846 63.6619 64.5986C63.5468 64.7074 63.4252 64.8091 63.2979 64.9032C63.2635 64.9285 63.2268 64.9504 63.1883 64.9687C63.1615 64.9784 63.1328 64.9814 63.1047 64.9774C63.0765 64.9735 63.0498 64.9626 63.0268 64.9459C62.9589 64.8994 62.8961 64.8458 62.8395 64.786C62.747 64.6731 62.629 64.5839 62.4953 64.5255C62.3811 64.5088 62.247 64.6169 62.1237 64.7053C61.9947 64.8062 61.848 64.8821 61.6911 64.9291C61.6467 64.9465 61.5991 64.9545 61.5514 64.9527C61.5037 64.9509 61.4569 64.9392 61.4139 64.9185C61.3933 64.8994 61.3776 64.8755 61.3683 64.849C61.359 64.8224 61.3564 64.794 61.3606 64.7662C61.3658 64.7245 61.374 64.6833 61.385 64.6428C61.3948 64.6094 61.402 64.5753 61.4063 64.5408C61.4063 64.5271 61.4063 64.521 61.4063 64.5271C61.4063 64.5332 61.4063 64.5271 61.3926 64.5271C61.3286 64.5372 61.27 64.5689 61.2266 64.6169C61.12 64.7159 61.0469 64.8667 60.8824 64.955C60.8387 64.9772 60.7896 64.9867 60.7408 64.9824C60.6983 64.9776 60.6565 64.9684 60.6159 64.955C60.5382 64.9322 60.4636 64.9032 60.392 64.8743C60.2397 64.8134 60.1026 64.7494 59.961 64.6855C59.8193 64.6215 59.6747 64.559 59.5315 64.5073C59.4635 64.4804 59.3924 64.4625 59.3198 64.454C59.2695 64.454 59.2421 64.4951 59.2558 64.5621C59.2734 64.6309 59.3057 64.6951 59.3503 64.7503C59.395 64.8055 59.4511 64.8504 59.5147 64.8819C59.5462 64.8961 59.5795 64.9059 59.6137 64.9109C59.6335 64.9109 59.6564 64.9017 59.6838 64.8789C59.7361 64.8262 59.7811 64.7667 59.8178 64.7022C59.9725 64.4337 60.0991 64.1499 60.1955 63.8554C60.2465 63.7092 60.2892 63.5602 60.3235 63.4092C60.3418 63.3345 60.355 63.2587 60.3631 63.1822C60.3768 63.1125 60.371 63.0403 60.3463 62.9736C60.3235 62.9325 60.2351 62.9842 60.1788 63.0254C60.1171 63.0723 60.0586 63.1231 60.0036 63.1777C59.8909 63.2843 59.7843 63.397 59.6792 63.5127C59.469 63.7427 59.265 63.9803 59.0594 64.2148C58.9558 64.3321 58.8522 64.4494 58.7441 64.5621C58.6412 64.6832 58.5186 64.7862 58.3816 64.8667C58.3388 64.8749 58.2944 64.8667 58.2572 64.8439C58.22 64.8211 58.1927 64.7852 58.1806 64.7433C58.1501 64.6702 58.1532 64.5773 58.112 64.5316C58.0922 64.5134 58.0542 64.5316 58.0222 64.5438C57.9882 64.5616 57.9556 64.5819 57.9247 64.6047C57.8623 64.6489 57.8013 64.6976 57.7389 64.7464C57.6194 64.8522 57.4809 64.9344 57.3307 64.9885C57.2887 64.9987 57.2446 64.9973 57.2033 64.9844C57.162 64.9715 57.125 64.9477 57.0962 64.9154C57.0436 64.8552 56.9972 64.7899 56.9576 64.7205C56.9165 64.6565 56.8753 64.588 56.8053 64.5682C56.7348 64.5463 56.6603 64.5411 56.5875 64.5529C56.4381 64.5801 56.2993 64.6487 56.1869 64.7509C55.9678 64.9683 55.7894 65.2231 55.66 65.5033C55.5226 65.7819 55.4094 66.0719 55.3219 66.3699C55.2257 66.6626 55.1743 66.9681 55.1696 67.2761C55.1679 67.3448 55.1847 67.4127 55.2183 67.4726L55.232 67.4863C55.2399 67.4831 55.2471 67.4784 55.2533 67.4726C55.2783 67.448 55.3008 67.4209 55.3203 67.3919C55.4026 67.2625 55.4749 67.1271 55.5366 66.9867C55.7884 66.4165 56.0011 65.8298 56.1732 65.2307C56.2638 64.9328 56.3385 64.6303 56.3971 64.3245C56.4275 64.1739 56.4454 64.0211 56.4504 63.8676C56.4552 63.7956 56.441 63.7237 56.4093 63.6589C56.3895 63.6361 56.3727 63.6285 56.3301 63.6376C56.2926 63.6413 56.2554 63.6479 56.2189 63.6574C55.9213 63.7461 55.6346 63.8682 55.3645 64.0214C55.0904 64.1686 54.8223 64.3281 54.5603 64.4996L54.5527 64.4875Z" fill="#263238"/>
<path d="M47.8165 62.6949C47.7679 62.6998 47.7192 62.686 47.6805 62.6563C47.6417 62.6265 47.6157 62.5832 47.6078 62.535C47.6016 62.4931 47.6091 62.4504 47.6291 62.4131C47.6464 62.3819 47.6546 62.3465 47.6527 62.3108C47.6508 62.2752 47.6389 62.2408 47.6185 62.2116C47.598 62.1824 47.5697 62.1595 47.5369 62.1456C47.504 62.1317 47.4679 62.1273 47.4327 62.1329H47.4052C47.3791 62.1411 47.3515 62.1436 47.3243 62.1401C47.2971 62.1367 47.271 62.1274 47.2477 62.113C47.2244 62.0985 47.2045 62.0792 47.1894 62.0564C47.1743 62.0335 47.1643 62.0077 47.16 61.9806C47.1532 61.952 47.1532 61.9223 47.16 61.8938C47.1695 61.8629 47.1709 61.8301 47.1642 61.7986C47.1575 61.767 47.1429 61.7376 47.1217 61.7133C47.1005 61.6889 47.0735 61.6703 47.0432 61.6593C47.0129 61.6482 46.9802 61.6451 46.9483 61.6501C46.9259 61.654 46.9042 61.6617 46.8844 61.6729C46.8576 61.688 46.8277 61.6964 46.797 61.6975C46.7663 61.6986 46.7358 61.6924 46.708 61.6792C46.6803 61.6661 46.6561 61.6465 46.6375 61.6221C46.6189 61.5977 46.6064 61.5691 46.6011 61.5389C46.5995 61.5232 46.5995 61.5074 46.6011 61.4917C46.604 61.4538 46.5956 61.4159 46.5769 61.3828C46.5583 61.3496 46.5302 61.3228 46.4962 61.3057C46.4623 61.2885 46.424 61.2819 46.3863 61.2865C46.3486 61.2912 46.3131 61.3069 46.2843 61.3318C46.259 61.3542 46.2281 61.3695 46.1948 61.376C46.1616 61.3826 46.1272 61.3801 46.0953 61.369C46.0633 61.3578 46.0349 61.3383 46.013 61.3125C45.991 61.2867 45.9764 61.2555 45.9706 61.2221V61.2145C45.966 61.1765 45.9502 61.1408 45.9251 61.112C45.9 61.0832 45.8668 61.0626 45.8298 61.0529C45.7928 61.0432 45.7538 61.0449 45.7178 61.0577C45.6818 61.0705 45.6505 61.0938 45.6279 61.1246C45.6137 61.1444 45.5958 61.1612 45.5752 61.174C45.5545 61.1868 45.5315 61.1954 45.5076 61.1993C45.4628 61.2071 45.4167 61.1987 45.3776 61.1755C45.3385 61.1523 45.3089 61.1159 45.2943 61.0729C45.2797 61.0303 45.2503 60.9944 45.2115 60.9718C45.1726 60.9491 45.1269 60.9412 45.0826 60.9495C45.0518 60.9541 45.0227 60.9664 44.9979 60.9853C44.9731 61.0042 44.9535 61.0291 44.941 61.0576C44.9267 61.0893 44.904 61.1164 44.8754 61.1361C44.8468 61.1558 44.8134 61.1672 44.7787 61.1693C44.744 61.1713 44.7095 61.1638 44.6787 61.1476C44.648 61.1315 44.6223 61.1072 44.6044 61.0774C44.585 61.0443 44.556 61.0179 44.5211 61.0018C44.4862 60.9857 44.4473 60.9808 44.4095 60.9876C44.3716 60.9944 44.3367 61.0127 44.3095 61.0399C44.2823 61.0671 44.264 61.102 44.2572 61.1399C44.2501 61.1777 44.2318 61.2124 44.2046 61.2396C44.1774 61.2668 44.1427 61.2851 44.1049 61.2922C44.0737 61.2975 44.0418 61.2948 44.0119 61.2844C43.9821 61.274 43.9554 61.2562 43.9343 61.2328C43.9132 61.2099 43.8866 61.1927 43.857 61.1828C43.8275 61.1729 43.7959 61.1708 43.7652 61.1764C43.7207 61.183 43.68 61.2054 43.6507 61.2395C43.6213 61.2737 43.6052 61.3172 43.6053 61.3622C43.6051 61.4076 43.5887 61.4513 43.5591 61.4857C43.5296 61.52 43.4887 61.5427 43.4439 61.5496C43.4197 61.5537 43.3949 61.5529 43.3711 61.5471C43.3473 61.5414 43.3249 61.5308 43.3053 61.5161C43.2742 61.495 43.2376 61.4835 43.2001 61.483C43.1625 61.4825 43.1256 61.4931 43.094 61.5133C43.0624 61.5336 43.0374 61.5627 43.0222 61.597C43.0069 61.6313 43.0021 61.6694 43.0083 61.7064C43.0152 61.7404 43.0126 61.7755 43.001 61.8081C42.9894 61.8407 42.9691 61.8696 42.9423 61.8915C42.9155 61.9134 42.8832 61.9276 42.849 61.9326C42.8147 61.9376 42.7798 61.9331 42.7478 61.9197C42.7167 61.9066 42.6826 61.902 42.649 61.9065C42.6155 61.9109 42.5838 61.9242 42.5571 61.945C42.5304 61.9658 42.5098 61.9933 42.4973 62.0247C42.4847 62.0561 42.4808 62.0903 42.4859 62.1237C42.4881 62.1401 42.4928 62.156 42.4996 62.171C42.5114 62.1975 42.5169 62.2265 42.5158 62.2555C42.5147 62.2846 42.5069 62.313 42.4931 62.3386C42.4792 62.3642 42.4597 62.3863 42.436 62.4031C42.4124 62.42 42.3851 62.4312 42.3564 62.436C42.3343 62.4397 42.3116 62.4397 42.2894 62.436C42.2591 62.4302 42.2278 62.4318 42.1983 62.4406C42.1687 62.4495 42.1417 62.4654 42.1196 62.4869C42.0975 62.5084 42.0809 62.535 42.0712 62.5643C42.0615 62.5936 42.0591 62.6248 42.064 62.6553C42.0687 62.684 42.0802 62.7111 42.0975 62.7345C42.1178 62.7607 42.1309 62.7917 42.1354 62.8246C42.14 62.8574 42.136 62.8908 42.1236 62.9216C42.1113 62.9524 42.0912 62.9794 42.0653 63C42.0393 63.0206 42.0084 63.0341 41.9757 63.0391H41.9467C41.9194 63.0398 41.8925 63.0464 41.868 63.0583C41.8434 63.0703 41.8216 63.0874 41.8042 63.1085C41.7867 63.1295 41.774 63.154 41.7668 63.1804C41.7596 63.2068 41.7581 63.2344 41.7625 63.2614C41.7688 63.3042 41.7905 63.3431 41.8234 63.3711C41.8543 63.3998 41.8751 63.4377 41.8828 63.4792C41.8904 63.5282 41.8788 63.5782 41.8504 63.6188C41.822 63.6593 41.7791 63.6874 41.7305 63.697C41.6829 63.708 41.6414 63.7369 41.6147 63.7778C41.588 63.8187 41.5782 63.8684 41.5873 63.9163C41.5916 63.9435 41.6019 63.9693 41.6174 63.992C41.6329 64.0147 41.6534 64.0336 41.6772 64.0473L42.0336 63.9879C42.1162 63.3586 42.3994 62.7727 42.841 62.3168C43.2827 61.861 43.8594 61.5595 44.4858 61.457C45.1122 61.3545 45.7549 61.4564 46.3189 61.7476C46.8828 62.0389 47.338 62.504 47.6169 63.0741L47.9733 63.0147C47.9915 62.9942 48.0048 62.9698 48.0121 62.9435C48.0195 62.9171 48.0208 62.8894 48.016 62.8624C48.0102 62.8144 47.9864 62.7703 47.9494 62.7392C47.9123 62.708 47.8648 62.6922 47.8165 62.6949ZM47.8987 64.7464C47.8165 65.3762 47.5335 65.9627 47.0917 66.4191C46.6499 66.8754 46.0728 67.1772 45.446 67.2798C44.8192 67.3824 44.176 67.2802 43.6118 66.9885C43.0476 66.6967 42.5924 66.231 42.3138 65.6602L41.9574 65.7196C41.9389 65.7399 41.9253 65.7642 41.9176 65.7906C41.91 65.817 41.9085 65.8448 41.9132 65.8719C41.9204 65.9201 41.946 65.9637 41.9846 65.9935C42.0232 66.0234 42.0719 66.0371 42.1204 66.0318C42.1687 66.0273 42.217 66.0413 42.2554 66.071C42.2939 66.1007 42.3196 66.1438 42.3275 66.1917C42.334 66.2341 42.3265 66.2774 42.3062 66.3151C42.2888 66.3461 42.2806 66.3813 42.2823 66.4168C42.2841 66.4523 42.2958 66.4865 42.3162 66.5156C42.3365 66.5447 42.3647 66.5675 42.3974 66.5813C42.4301 66.5952 42.4661 66.5995 42.5011 66.5938H42.5301C42.5563 66.5859 42.5839 66.5836 42.6111 66.5871C42.6383 66.5906 42.6644 66.5999 42.6878 66.6143C42.7111 66.6287 42.7311 66.6479 42.7464 66.6706C42.7618 66.6934 42.7721 66.7191 42.7768 66.7461C42.781 66.7747 42.7784 66.804 42.7692 66.8314C42.7597 66.8623 42.7583 66.895 42.765 66.9266C42.7717 66.9582 42.7864 66.9875 42.8075 67.0119C42.8287 67.0362 42.8557 67.0548 42.886 67.0659C42.9164 67.0769 42.949 67.0801 42.9809 67.0751C43.004 67.0719 43.0263 67.0641 43.0464 67.0522C43.0731 67.0372 43.1031 67.0287 43.1338 67.0276C43.1644 67.0265 43.1949 67.0328 43.2227 67.0459C43.2504 67.0591 43.2746 67.0787 43.2933 67.1031C43.3119 67.1275 43.3243 67.156 43.3296 67.1863C43.3319 67.2019 43.3319 67.2178 43.3296 67.2335C43.327 67.2625 43.331 67.2919 43.3413 67.3191C43.3517 67.3464 43.3682 67.371 43.3895 67.391C43.4108 67.411 43.4363 67.4258 43.4642 67.4344C43.4921 67.443 43.5216 67.4451 43.5505 67.4406C43.5857 67.4337 43.6183 67.4174 43.6449 67.3934C43.6702 67.3704 43.7012 67.3547 43.7347 67.348C43.7682 67.3412 43.8029 67.3437 43.835 67.3551C43.8672 67.3665 43.8957 67.3864 43.9175 67.4128C43.9393 67.4391 43.9535 67.4708 43.9587 67.5046V67.5122C43.9631 67.5504 43.979 67.5864 44.0044 67.6154C44.0297 67.6443 44.0632 67.665 44.1004 67.6745C44.1377 67.6841 44.177 67.6821 44.2131 67.6689C44.2493 67.6557 44.2805 67.6319 44.3029 67.6005C44.3318 67.5613 44.375 67.5351 44.4232 67.5274C44.4678 67.5195 44.5137 67.5277 44.5528 67.5506C44.5919 67.5735 44.6215 67.6095 44.6364 67.6523C44.6486 67.6884 44.6715 67.7199 44.7019 67.7428C44.7324 67.7656 44.769 67.7787 44.8071 67.7804C44.8451 67.782 44.8828 67.7721 44.9151 67.752C44.9474 67.7318 44.9729 67.7024 44.9882 67.6675C45.0029 67.636 45.0259 67.6091 45.0547 67.5896C45.0835 67.5701 45.1171 67.5589 45.1518 67.557C45.1865 67.5551 45.2211 67.5627 45.2518 67.579C45.2826 67.5952 45.3083 67.6195 45.3263 67.6493C45.3461 67.6816 45.3751 67.7072 45.4096 67.7229C45.444 67.7387 45.4824 67.7438 45.5197 67.7376C45.5579 67.7314 45.5931 67.7133 45.6205 67.686C45.6478 67.6587 45.6658 67.6234 45.6721 67.5853C45.6787 67.5473 45.6969 67.5123 45.7241 67.4851C45.7514 67.4578 45.7864 67.4396 45.8244 67.433C45.8548 67.4276 45.886 67.4299 45.9153 67.4398C45.9446 67.4496 45.9709 67.4667 45.9919 67.4893C46.0132 67.5121 46.0397 67.5295 46.0691 67.5398C46.0986 67.5501 46.1301 67.5532 46.1609 67.5487C46.206 67.5418 46.2471 67.5189 46.2767 67.4843C46.3063 67.4496 46.3225 67.4055 46.3224 67.3599C46.3238 67.3151 46.3407 67.2721 46.3701 67.2383C46.3995 67.2044 46.4396 67.1818 46.4838 67.1741C46.5079 67.1696 46.5326 67.1701 46.5564 67.1756C46.5803 67.1811 46.6027 67.1915 46.6224 67.2061C46.6529 67.2301 46.6901 67.2442 46.7288 67.2465C46.7676 67.2488 46.8061 67.2392 46.8393 67.2189C46.8724 67.1987 46.8986 67.1689 46.9143 67.1333C46.9299 67.0978 46.9344 67.0584 46.927 67.0203C46.9219 66.9953 46.9218 66.9697 46.9268 66.9447C46.9317 66.9198 46.9415 66.896 46.9557 66.8749C46.9699 66.8538 46.9881 66.8357 47.0093 66.8217C47.0305 66.8077 47.0543 66.7981 47.0793 66.7933C47.1143 66.7884 47.15 66.7926 47.1829 66.8055C47.2142 66.8188 47.2485 66.8236 47.2823 66.8193C47.3161 66.8149 47.3481 66.8017 47.3751 66.7809C47.402 66.7602 47.423 66.7326 47.4358 66.701C47.4486 66.6695 47.4528 66.6351 47.4479 66.6014C47.4449 66.5851 47.4398 66.5692 47.4327 66.5542C47.4212 66.5276 47.4159 66.4987 47.4172 66.4698C47.4184 66.4408 47.4263 66.4125 47.44 66.387C47.4538 66.3615 47.4732 66.3395 47.4967 66.3225C47.5202 66.3056 47.5473 66.2942 47.5758 66.2892C47.598 66.2854 47.6207 66.2854 47.6428 66.2892C47.673 66.2954 47.7042 66.2941 47.7338 66.2854C47.7634 66.2768 47.7903 66.261 47.8124 66.2396C47.8345 66.2181 47.851 66.1915 47.8604 66.1622C47.8699 66.1329 47.8721 66.1017 47.8667 66.0714C47.8613 66.0425 47.8499 66.015 47.8332 65.9907C47.8134 65.9641 47.8007 65.9329 47.7966 65.9C47.7924 65.8671 47.7968 65.8337 47.8094 65.803C47.822 65.7723 47.8423 65.7454 47.8683 65.7249C47.8944 65.7045 47.9253 65.6911 47.9581 65.6861H47.9855C48.0129 65.6858 48.0399 65.6796 48.0647 65.6679C48.0895 65.6562 48.1114 65.6393 48.1291 65.6183C48.1467 65.5973 48.1596 65.5728 48.1669 65.5464C48.1742 65.52 48.1757 65.4923 48.1713 65.4652C48.1643 65.4227 48.1428 65.384 48.1104 65.3556C48.0844 65.3323 48.0653 65.3022 48.0552 65.2687C48.0452 65.2353 48.0445 65.1997 48.0533 65.1659C48.0621 65.1321 48.08 65.1013 48.1052 65.077C48.1303 65.0527 48.1616 65.0358 48.1957 65.0281C48.233 65.0197 48.2668 65.0001 48.2929 64.9721C48.3189 64.9441 48.3359 64.9089 48.3417 64.8712C48.3474 64.8334 48.3417 64.7947 48.3251 64.7602C48.3086 64.7257 48.2821 64.697 48.249 64.6778L47.8987 64.7464Z" fill="#ECB800"/>
<path d="M42.3227 63.954L42.248 63.9418C42.3379 63.3696 42.6059 62.8402 43.0139 62.4291C43.422 62.018 43.9493 61.746 44.5209 61.6518C45.0924 61.5577 45.6791 61.6462 46.1975 61.9048C46.7158 62.1633 47.1394 62.5788 47.408 63.092L47.3395 63.127C47.0788 62.6273 46.6671 62.2227 46.1629 61.9708C45.6587 61.7189 45.0878 61.6326 44.5317 61.7243C43.9756 61.816 43.4626 62.0809 43.0659 62.4813C42.6693 62.8817 42.4092 63.3971 42.3227 63.954Z" fill="#ECB800"/>
<path d="M44.9642 67.1206C44.4616 67.1214 43.9685 66.984 43.5387 66.7234C43.109 66.4629 42.7591 66.0892 42.5273 65.6433L42.5944 65.6083C42.8556 66.1067 43.2673 66.5102 43.771 66.7612C44.2748 67.0122 44.8448 67.098 45.4001 67.0065C45.9554 66.9149 46.4677 66.6505 46.8641 66.251C47.2605 65.8515 47.5208 65.3372 47.6081 64.7812L47.6828 64.7934C47.5938 65.3651 47.3262 65.894 46.9183 66.3044C46.5104 66.7147 45.9831 66.9855 45.4119 67.078C45.2642 67.1048 45.1144 67.1191 44.9642 67.1206Z" fill="#ECB800"/>
<path d="M41.7475 65.2566L41.7383 65.2231C41.7124 65.1272 41.6911 65.0251 41.6713 64.9109C41.6538 64.806 41.6416 64.7003 41.6348 64.5941V64.5606H41.6698L48.1929 63.4854L48.2005 63.5189C48.228 63.6192 48.2504 63.7209 48.2675 63.8235C48.2858 63.9377 48.298 64.0428 48.3056 64.1418V64.1768H48.2721L41.7475 65.2566ZM41.7124 64.6246C41.7201 64.7099 41.7307 64.7997 41.7475 64.8972C41.7642 64.9947 41.781 65.086 41.8023 65.1698L48.2234 64.1128C48.2234 64.026 48.2051 63.9346 48.1898 63.8356C48.1731 63.7382 48.1548 63.6498 48.1335 63.5661L41.7124 64.6246Z" fill="#ECB800"/>
<path d="M59.0596 24.2676H47.043V28.797H59.0596V24.2676Z" fill="#C7C7C7"/>
<path d="M56.7249 22.2646H49.2621L48.9316 24.2674H57.156L56.7249 22.2646ZM53.0514 23.7054C52.9643 23.7057 52.879 23.6802 52.8065 23.632C52.7339 23.5838 52.6772 23.5152 52.6437 23.4348C52.6101 23.3544 52.6012 23.2658 52.618 23.1803C52.6348 23.0949 52.6766 23.0163 52.7381 22.9546C52.7996 22.8929 52.878 22.8508 52.9635 22.8337C53.0489 22.8166 53.1375 22.8252 53.218 22.8585C53.2985 22.8917 53.3673 22.9482 53.4158 23.0206C53.4642 23.093 53.49 23.1782 53.49 23.2653C53.49 23.3817 53.4439 23.4935 53.3617 23.576C53.2794 23.6585 53.1679 23.705 53.0514 23.7054Z" fill="#C7C7C7"/>
<path d="M57.1664 24.2677H48.9375L49.0106 23.8184H57.0659L57.1664 24.2677Z" fill="#A6A6A6"/>
<path d="M28.6828 35.0019C29.2509 37.3215 30.5348 41.5859 31.2917 42.6307C31.6984 43.1958 36.767 45.5123 37.1401 45.0675C37.5513 44.5695 38.255 40.6675 37.6381 40.5762C36.671 40.4239 33.9113 39.542 33.7027 39.4141C33.3432 39.1948 30.9932 35.1938 30.3688 34.3729C29.0224 32.6001 28.4041 33.8673 28.6828 35.0019Z" fill="#AD6359"/>
<path d="M33.4346 52.6106C33.4346 52.6106 32.5041 55.6384 30.4921 54.8358C28.4802 54.0331 29.8829 51.1973 29.8829 51.1973L33.4346 52.6106Z" fill="#ECB800"/>
<path opacity="0.6" d="M33.4346 52.6106C33.4346 52.6106 32.5041 55.6384 30.4921 54.8358C28.4802 54.0331 29.8829 51.1973 29.8829 51.1973L33.4346 52.6106Z" fill="white"/>
<path d="M40.8507 33.4588L40.5339 30.3762L39.6536 30.0244L37.3036 32.0439L29.8408 51.3162L33.3895 52.7296L40.8507 33.4588Z" fill="#ECB800"/>
<g opacity="0.6">
<path d="M40.8507 33.4588L40.5339 30.3762L39.6536 30.0244L37.3036 32.0439L29.8408 51.3162L33.3895 52.7296L40.8507 33.4588Z" fill="white"/>
</g>
<path d="M29.501 51.307L33.6436 52.958L33.9712 52.136L29.8287 50.485L29.501 51.307Z" fill="#ECB800"/>
<path opacity="0.2" d="M29.501 51.307L33.6436 52.958L33.9712 52.136L29.8287 50.485L29.501 51.307Z" fill="black"/>
<path d="M29.8614 50.3988L34.0039 52.0498L34.3315 51.2278L30.189 49.5768L29.8614 50.3988Z" fill="#ECB800"/>
<path opacity="0.2" d="M29.8614 50.3988L34.0039 52.0498L34.3315 51.2278L30.189 49.5768L29.8614 50.3988Z" fill="black"/>
<path d="M34.3323 51.2264L32.9951 50.6933L35.9894 45.3506L36.4706 45.5745L34.3323 51.2264Z" fill="#ECB800"/>
<path opacity="0.2" d="M34.3323 51.2264L32.9951 50.6933L35.9894 45.3506L36.4706 45.5745L34.3323 51.2264Z" fill="black"/>
<path d="M39.7734 30.0704L40.0613 29.8221C40.0836 29.8023 40.1109 29.789 40.1402 29.7838C40.1696 29.7785 40.1998 29.7815 40.2276 29.7924C40.2553 29.8033 40.2795 29.8216 40.2975 29.8454C40.3155 29.8692 40.3265 29.8975 40.3293 29.9272L40.3689 30.3156L39.7734 30.0704Z" fill="#ECB800"/>
<path opacity="0.5" d="M39.7734 30.0704L40.0613 29.8221C40.0836 29.8023 40.1109 29.789 40.1402 29.7838C40.1696 29.7785 40.1998 29.7815 40.2276 29.7924C40.2553 29.8033 40.2795 29.8216 40.2975 29.8454C40.3155 29.8692 40.3265 29.8975 40.3293 29.9272L40.3689 30.3156L39.7734 30.0704Z" fill="black"/>
<path opacity="0.2" d="M37.4756 32.1191C38.5712 32.4377 39.6352 32.8562 40.6541 33.3695C39.5587 33.0506 38.4947 32.6321 37.4756 32.1191Z" fill="black"/>
<path d="M38.4497 40.3369C38.6507 40.9629 39.2599 41.7884 39.2538 42.2772C39.2569 42.3977 39.2211 42.5159 39.1517 42.6144C39.0822 42.7129 38.983 42.7864 38.8685 42.824C38.8685 42.824 39.3163 43.1286 39.2386 43.5703C39.199 43.7987 38.7984 43.9343 38.7984 43.9343C38.7984 43.9343 39.1487 44.1932 39.0543 44.5816C38.9797 44.8862 38.5898 44.9821 38.5898 44.9821C38.5898 44.9821 38.8106 45.3872 38.6324 45.6781C38.2715 46.2706 35.5544 45.9127 35.265 44.8572C35.131 44.3638 35.7905 44.4871 35.7905 44.4871C35.7905 44.4871 34.8858 44.082 34.9452 43.5185C35.0046 42.955 35.859 43.1682 35.859 43.1682C35.859 43.1682 34.9848 42.7677 35.0975 42.1904C35.2224 41.5904 36.0341 41.9467 36.0341 41.9467C36.0341 41.9467 35.4828 41.4579 35.6762 41.0329C35.9945 40.3384 37.0195 41.4 37.6364 41.3375L38.0933 40.3963L38.4497 40.3369Z" fill="#AD6359"/>
<path d="M38.8807 41.2641C38.7421 40.6549 39.5554 40.0319 39.5051 39.4364C39.4381 38.6216 38.439 39.2841 38.0948 40.4051L37.9775 41.3189L38.8807 41.2641Z" fill="#AD6359"/>
<path d="M38.5304 45.0071V45.0208C37.5715 45.1267 36.6031 44.9381 35.754 44.4801C35.7265 44.4649 35.7403 44.4146 35.7722 44.4253C36.6585 44.7522 37.5876 44.9482 38.5304 45.0071Z" fill="#263238"/>
<path d="M38.8128 43.9418C38.8235 43.9418 38.8219 43.9601 38.8128 43.9616C37.8609 44.0591 36.6897 43.8322 35.8185 43.1894C35.7881 43.1666 35.7835 43.1179 35.8185 43.1407C36.4308 43.5245 37.9325 43.9007 38.8128 43.9418Z" fill="#263238"/>
<path d="M35.9863 41.8794C36.8453 42.4642 37.8063 42.7155 38.8298 42.8298C38.8435 42.8298 38.8404 42.8496 38.8298 42.8526C38.3134 42.9318 37.6692 42.7902 37.1758 42.6379C36.716 42.5049 36.2991 42.2539 35.9665 41.9099C35.9528 41.8901 35.9665 41.8672 35.9863 41.8794Z" fill="#263238"/>
<path d="M40.9387 84.0521C40.5701 84.1678 29.8206 83.9348 29.4292 83.6729C29.2769 83.5769 30.1907 73.3955 30.1907 73.3955L37.0078 73.525L36.2326 80.3359C36.2326 80.3359 40.1924 82.2153 40.6006 82.5489C41.0088 82.8824 41.3057 83.9394 40.9387 84.0521Z" fill="#AD6359"/>
<path d="M40.9384 84.0523C40.5698 84.1681 29.8203 83.9351 29.4289 83.6731C29.3817 83.6442 29.3665 82.607 29.5386 81.2637C31.4865 81.5911 38.4437 82.6588 38.9813 82.3404C39.359 82.1181 39.0239 81.7708 38.7148 81.5378C39.6027 81.9795 40.4327 82.4059 40.6033 82.5491C41.0069 82.8811 41.3054 83.9396 40.9384 84.0523Z" fill="#263238"/>
<path opacity="0.1" d="M35.086 84.0021C32.3445 83.9244 29.6229 83.8025 29.4295 83.6731C29.3823 83.6442 29.3686 82.607 29.5391 81.2637C29.996 81.3413 30.7575 81.4617 31.6272 81.5942L35.086 84.0021Z" fill="black"/>
<path d="M36.4316 78.703L29.7395 78.6085C29.7395 78.6085 31.066 62.5803 31.0112 62.2726C30.9396 61.8766 26.1924 43.2607 26.1924 43.2607H32.5784C32.5784 43.2607 37.615 60.614 37.7963 62.2863C38.0841 64.9836 36.4316 78.703 36.4316 78.703Z" fill="#37474F"/>
<path d="M30.3415 77.0981C30.7375 77.0691 31.1366 77.0752 31.5341 77.0691C31.9316 77.063 32.3276 77.0691 32.7236 77.0691C33.5186 77.0783 34.3105 77.0889 35.104 77.1118C35.3218 77.1118 35.5381 77.1255 35.7559 77.1346C35.9737 77.1437 36.2128 77.1849 36.4504 77.194C36.454 77.194 36.4575 77.1954 36.4601 77.198C36.4626 77.2006 36.4641 77.2041 36.4641 77.2077C36.4641 77.2113 36.4626 77.2148 36.4601 77.2174C36.4575 77.22 36.454 77.2214 36.4504 77.2214C36.2554 77.2214 36.0605 77.2534 35.8655 77.258C35.6706 77.2625 35.4604 77.2656 35.2563 77.2656H34.0653C33.2718 77.2656 32.4783 77.2488 31.6864 77.2153C31.2386 77.197 30.7847 77.191 30.34 77.1468C30.3336 77.1466 30.3274 77.1438 30.323 77.1391C30.3186 77.1344 30.3162 77.1281 30.3164 77.1217C30.3166 77.1152 30.3194 77.1091 30.3241 77.1046C30.3288 77.1002 30.3351 77.0978 30.3415 77.0981Z" fill="#263238"/>
<path d="M27.5968 44.7645C28.1679 46.787 28.6903 48.8294 29.2035 50.8687C29.7168 52.9081 30.2255 54.9504 30.7266 56.9928L31.4881 60.0556C31.7348 61.0501 32.0211 62.0492 32.0836 63.0758C32.146 64.1023 32.012 65.173 31.9313 66.2117C31.8506 67.2504 31.7546 68.3028 31.6632 69.3476C31.4805 71.4371 31.3038 73.5298 31.0769 75.6148C31.0494 75.8767 31.0205 76.1372 30.9946 76.3991C30.9946 76.4205 30.9581 76.4205 30.9596 76.3991C31.0982 74.308 31.2413 72.2169 31.4165 70.1273C31.4998 69.0825 31.585 68.0378 31.6724 66.993C31.7577 65.9497 31.8795 64.9034 31.9115 63.8571C31.9435 62.8108 31.7592 61.7903 31.4972 60.7699C31.2353 59.7495 30.9977 58.7717 30.7464 57.7726C30.2387 55.7318 29.731 53.6904 29.2233 51.6485C28.6416 49.361 28.078 47.0688 27.5754 44.769C27.5748 44.7662 27.5754 44.7633 27.5769 44.7608C27.5785 44.7584 27.581 44.7567 27.5838 44.7561C27.5866 44.7555 27.5896 44.756 27.592 44.7576C27.5945 44.7592 27.5962 44.7616 27.5968 44.7645Z" fill="#263238"/>
<path opacity="0.1" d="M26.1914 43.2607C26.1914 43.2607 28.2292 51.2475 29.6548 56.8689L32.3718 43.2607H26.1914Z" fill="black"/>
<path d="M32.9067 84.0783C32.5381 84.1925 21.7886 83.961 21.3972 83.699C21.2449 83.6015 21.8084 73.4141 21.8084 73.4141L28.5356 73.545L28.2097 80.3606C28.2097 80.3606 32.1695 82.24 32.5762 82.5735C32.9828 82.907 33.2798 83.964 32.9067 84.0783Z" fill="#AD6359"/>
<path d="M32.9063 84.0778C32.5393 84.1921 21.7882 83.9606 21.3984 83.6971C21.3496 83.6681 21.3618 82.6614 21.3984 81.2861C23.3478 81.6136 30.4131 82.6827 30.9553 82.3644C31.333 82.1421 30.998 81.7948 30.6888 81.5618C31.5767 82.005 32.4052 82.4299 32.5773 82.5731C32.9794 82.9051 33.2794 83.9636 32.9063 84.0778Z" fill="#263238"/>
<path d="M32.3731 43.2607C32.3731 43.2607 32.1872 46.3144 31.4592 48.7253C31.3998 48.9249 31.3374 49.1213 31.2689 49.3087C30.6245 49.56 30.0042 49.8689 29.4153 50.2316C29.4153 50.2316 28.9584 61.9132 28.9584 62.6397C28.9889 65.3537 28.2944 78.572 28.2944 78.572L21.5459 78.508C21.5459 78.508 22.2465 63.5596 22.2495 62.565C22.2495 61.604 22.7064 55.5378 23.1146 50.2788C23.1146 50.2788 22.5145 48.6035 22.5816 47.7506C22.7476 45.6976 23.669 43.2607 23.669 43.2607H32.3731Z" fill="#37474F"/>
<path d="M30.8992 47.3601C30.9251 47.191 30.9495 47.022 30.9753 46.8529C31.0241 46.5483 31.0865 46.2361 31.1414 45.9269C31.2632 45.2278 31.3911 44.5257 31.548 43.8312C31.548 43.8145 31.58 43.819 31.5769 43.8312C31.5495 44.1099 31.5175 44.3902 31.4779 44.6689C31.4383 44.9476 31.4109 45.2278 31.3713 45.5066C31.2937 46.0594 31.219 46.6138 31.1231 47.1636C31.0865 47.3753 30.954 47.7561 31.2602 47.8215C31.5008 47.8733 31.679 47.6373 31.749 47.4377C31.8238 47.1887 31.8783 46.934 31.912 46.6762C31.9623 46.396 32.0049 46.1158 32.0445 45.8355C32.1308 45.2263 32.2247 44.6171 32.3263 44.0079C32.3263 43.9896 32.3567 43.9957 32.3552 44.0079C32.3425 44.6342 32.2978 45.2595 32.2212 45.8812C32.1816 46.1782 32.1374 46.4752 32.0856 46.7707C32.0563 47.055 31.9876 47.3338 31.8815 47.5992C31.8398 47.7044 31.7724 47.7975 31.6854 47.8698C31.5984 47.9422 31.4946 47.9916 31.3835 48.0134H31.3683C31.3711 48.0152 31.3734 48.0177 31.375 48.0206C31.3766 48.0236 31.3774 48.0269 31.3774 48.0302C31.3774 48.1292 31.3774 48.2297 31.3652 48.3348C31.3531 48.4399 31.3363 48.5297 31.318 48.6272C31.2995 48.7258 31.274 48.823 31.2419 48.9181C31.2251 48.9623 31.2084 49.008 31.1886 49.0521C31.1688 49.0963 31.1353 49.1313 31.1094 49.174C31.0987 49.1923 31.0774 49.174 31.0759 49.1633C31.0759 49.1466 31.0759 49.1298 31.0759 49.1146V49.1055C31.0736 49.0766 31.0736 49.0475 31.0759 49.0186C31.0759 48.9714 31.0926 48.9242 31.1033 48.877C31.1246 48.7826 31.1505 48.6881 31.1749 48.5952C31.1992 48.5023 31.2206 48.4079 31.2449 48.315C31.2693 48.2221 31.3013 48.1246 31.3226 48.0287C31.3217 48.0257 31.3217 48.0225 31.3226 48.0195C31.2327 48.0234 31.1438 47.9999 31.0676 47.952C30.9914 47.9041 30.9316 47.8342 30.8961 47.7515C30.863 47.623 30.8641 47.488 30.8992 47.3601Z" fill="#263238"/>
<path d="M28.8683 50.4619C29.0699 50.3075 29.2821 50.1676 29.5034 50.0431C29.736 49.9023 29.9777 49.7772 30.2269 49.6685C30.7158 49.4568 31.2184 49.3121 31.7225 49.1445C31.7377 49.1445 31.7468 49.1659 31.7331 49.1719C31.2442 49.3654 30.7767 49.6289 30.3061 49.8543C30.0725 49.967 29.838 50.0756 29.6024 50.1802C29.3664 50.2837 29.1303 50.4056 28.8866 50.4954C28.8824 50.4964 28.878 50.496 28.874 50.4942C28.8701 50.4925 28.8668 50.4895 28.8647 50.4857C28.8626 50.4818 28.8619 50.4775 28.8625 50.4732C28.8632 50.4689 28.8652 50.465 28.8683 50.4619Z" fill="#263238"/>
<path d="M25.0595 46.2085C25.403 46.2048 25.7447 46.1588 26.0769 46.0714C26.2292 46.0318 26.3815 45.9831 26.5338 45.9328C26.6829 45.8917 26.8226 45.8219 26.945 45.7272C27.1765 45.5277 27.2831 45.214 27.3836 44.9352C27.4944 44.6209 27.5835 44.2993 27.6501 43.9727C27.6501 43.9691 27.6516 43.9656 27.6542 43.963C27.6567 43.9604 27.6602 43.959 27.6639 43.959C27.6675 43.959 27.671 43.9604 27.6735 43.963C27.6761 43.9656 27.6776 43.9691 27.6776 43.9727C27.6864 44.3416 27.6396 44.7097 27.539 45.0647C27.4567 45.3693 27.3455 45.7028 27.1019 45.9145C26.8314 46.1173 26.5072 46.2359 26.1698 46.2557C25.801 46.2979 25.4284 46.2927 25.061 46.2405C25.0581 46.239 25.0556 46.2368 25.0538 46.2341C25.052 46.2314 25.051 46.2282 25.0508 46.2249C25.0506 46.2217 25.0514 46.2184 25.0529 46.2155C25.0544 46.2126 25.0567 46.2102 25.0595 46.2085Z" fill="#263238"/>
<path d="M21.8492 77.1967C22.2452 77.1677 22.6442 77.1738 23.0417 77.1677C23.4392 77.1617 23.8352 77.1677 24.2312 77.1677C25.0262 77.1754 25.8182 77.1875 26.6117 77.2089C26.8295 77.2089 27.0457 77.2226 27.2635 77.2317C27.4813 77.2408 27.7204 77.282 27.958 77.2911C27.9616 77.2911 27.9651 77.2926 27.9677 77.2951C27.9703 77.2977 27.9717 77.3012 27.9717 77.3048C27.9717 77.3085 27.9703 77.3119 27.9677 77.3145C27.9651 77.3171 27.9616 77.3185 27.958 77.3185C27.7631 77.3185 27.5681 77.3505 27.3732 77.3551C27.1782 77.3596 26.968 77.3551 26.764 77.3551H25.573C24.781 77.3551 23.986 77.3383 23.194 77.3048C22.7462 77.2865 22.2939 77.2804 21.8477 77.2363C21.8437 77.2346 21.8405 77.2317 21.8382 77.2281C21.8359 77.2244 21.8348 77.2202 21.835 77.216C21.8351 77.2117 21.8366 77.2076 21.8391 77.2041C21.8416 77.2007 21.8451 77.1981 21.8492 77.1967Z" fill="#263238"/>
<path d="M22.6736 76.3186C22.6627 76.3182 22.6521 76.3156 22.6422 76.311C22.6323 76.3064 22.6235 76.2998 22.6163 76.2917C22.609 76.2836 22.6035 76.2741 22.6 76.2638C22.5965 76.2535 22.5951 76.2426 22.5959 76.2318L24.119 50.0754C24.0992 49.9597 23.6621 48.4991 23.6316 47.7528C23.592 46.9639 24.4068 43.8889 24.4418 43.7579C24.4512 43.7427 24.4653 43.7309 24.4819 43.7244C24.4985 43.7179 24.5169 43.717 24.5341 43.7218C24.5513 43.7266 24.5665 43.7369 24.5773 43.7511C24.5881 43.7653 24.594 43.7827 24.5941 43.8006C24.585 43.8325 23.7489 46.9806 23.7885 47.7437C23.8281 48.5067 24.2728 50.0434 24.2758 50.0556C24.2789 50.0678 22.7528 76.2409 22.7528 76.2409C22.7514 76.2613 22.7425 76.2804 22.7279 76.2947C22.7133 76.309 22.694 76.3175 22.6736 76.3186Z" fill="#263238"/>
<path d="M31.6875 30.9842C31.8435 30.9591 31.9891 30.89 32.1071 30.7849C32.2252 30.6798 32.3107 30.5431 32.3536 30.3911C32.3965 30.239 32.395 30.0778 32.3493 29.9265C32.3036 29.7752 32.2156 29.6402 32.0957 29.5373C32.2612 29.5064 32.4119 29.4214 32.5241 29.2958C32.6362 29.1701 32.7036 29.0108 32.7155 28.8428C32.7188 28.6641 32.6567 28.4904 32.5408 28.3544C32.425 28.2184 32.2634 28.1294 32.0865 28.1041C32.249 28.1447 32.3932 28.2387 32.4959 28.371C32.5986 28.5032 32.654 28.6662 32.6531 28.8336C32.6451 28.9659 32.5982 29.0929 32.5183 29.1986C32.4384 29.3043 32.3289 29.384 32.2038 29.4276C32.2971 29.3442 32.3723 29.2425 32.4247 29.1288C32.4771 29.0151 32.5056 28.8918 32.5084 28.7666C32.5076 28.6269 32.4658 28.4904 32.3881 28.3742C32.3103 28.2581 32.2002 28.1673 32.0713 28.1133C32.1418 27.9663 32.1768 27.8048 32.1734 27.6418C32.1699 27.4788 32.1282 27.3189 32.0515 27.1751C31.9815 27.0563 31.8783 26.9605 31.7547 26.8994C31.6311 26.8382 31.4924 26.8144 31.3555 26.8309C31.3895 26.6795 31.3785 26.5215 31.3237 26.3763C31.2689 26.2312 31.1728 26.1053 31.0472 26.0142C30.9216 25.9231 30.772 25.8708 30.617 25.8639C30.462 25.8569 30.3084 25.8955 30.1751 25.9749C30.1884 25.8641 30.1736 25.7517 30.1321 25.6481C30.0906 25.5444 30.0237 25.4529 29.9375 25.3819C29.8514 25.311 29.7488 25.2628 29.6391 25.2418C29.5294 25.2209 29.4163 25.2279 29.31 25.2622C29.3029 25.1766 29.2719 25.0949 29.2204 25.0262C29.169 24.9575 29.0992 24.9047 29.0192 24.8738C28.925 24.8435 28.8257 24.8323 28.7272 24.8406C28.6286 24.849 28.5327 24.8768 28.445 24.9225C28.3933 24.8503 28.3245 24.792 28.2448 24.7529C28.165 24.7139 28.0768 24.6952 27.9881 24.6986C27.873 24.7085 27.7653 24.7589 27.6841 24.841C27.6028 24.923 27.5535 25.0313 27.5449 25.1464C27.2403 25.0764 26.8839 25.0428 26.5945 25.2058C26.4728 25.2681 26.3722 25.3649 26.3053 25.4841C26.2384 25.6033 26.2081 25.7396 26.2183 25.8759C26.0827 25.8638 25.946 25.8806 25.8173 25.9252C25.6885 25.9697 25.5707 26.041 25.4716 26.1344C25.3724 26.2278 25.2942 26.3412 25.242 26.467C25.1899 26.5928 25.165 26.7282 25.169 26.8644C25.0523 26.8894 24.9444 26.9449 24.8561 27.0252C24.7679 27.1054 24.7024 27.2076 24.6664 27.3213C24.6088 27.4743 24.5905 27.6392 24.6131 27.801C24.511 27.831 24.421 27.8922 24.3557 27.9761C24.2903 28.06 24.2531 28.1623 24.2491 28.2686C24.2481 28.369 24.27 28.4683 24.313 28.5591C24.356 28.6498 24.419 28.7297 24.4973 28.7925C24.5104 28.8491 24.5104 28.908 24.4973 28.9646C24.4688 29.1071 24.476 29.2543 24.5183 29.3933C24.5605 29.5323 24.6365 29.6587 24.7395 29.7612C24.6997 29.8366 24.6764 29.9197 24.6713 30.0049C24.6661 30.09 24.6792 30.1753 24.7096 30.255C24.74 30.3347 24.7871 30.407 24.8476 30.4671C24.9082 30.5271 24.9809 30.5736 25.0608 30.6034C25.03 30.7773 25.0688 30.9564 25.1688 31.102C25.2688 31.2476 25.422 31.348 25.5954 31.3817C25.581 31.5222 25.5971 31.6642 25.6425 31.798C25.688 31.9318 25.7618 32.0542 25.8589 32.1569C25.9299 32.2426 26.0243 32.3056 26.1306 32.3384C26.237 32.3711 26.3506 32.3721 26.4574 32.3412C26.4679 32.4254 26.5088 32.5029 26.5725 32.5591C26.6362 32.6152 26.7183 32.646 26.8032 32.6458C26.8664 32.6485 26.9297 32.6445 26.992 32.6336C27.0722 32.6082 27.1562 32.5969 27.2403 32.6001C27.3179 32.6153 27.3743 32.6884 27.4352 32.7326C27.4796 32.7647 27.527 32.7922 27.5769 32.8148C27.764 32.8938 27.9725 32.9066 28.1679 32.8512C28.3634 32.7959 28.5341 32.6756 28.6521 32.5102C28.8897 32.6808 29.2004 32.6107 29.4395 32.4691C29.5158 32.4213 29.5877 32.3668 29.6543 32.3061C29.7114 32.2486 29.7847 32.2098 29.8644 32.195C29.9162 32.195 29.971 32.195 30.0167 32.195C30.0997 32.1775 30.1781 32.1432 30.2473 32.0942C30.3164 32.0452 30.3748 31.9826 30.4188 31.9101C31.0783 32.3275 31.7895 31.6863 31.6875 30.9842ZM24.3252 28.3661C24.3132 28.2554 24.3361 28.1438 24.3907 28.0468C24.4453 27.9499 24.5289 27.8725 24.6298 27.8254V27.8528C24.6298 27.8528 24.575 27.9031 24.5506 27.929C24.5078 27.9793 24.4729 28.0358 24.447 28.0965C24.3903 28.2225 24.3728 28.3625 24.3968 28.4986C24.4092 28.5585 24.4286 28.6168 24.4547 28.6722L24.4638 28.6935C24.3877 28.5996 24.3396 28.4861 24.3252 28.3661ZM28.1023 24.8509C27.9974 24.8444 27.8931 24.87 27.8033 24.9245C27.7134 24.9789 27.6424 25.0596 27.5997 25.1556H27.5829C27.6378 24.9423 27.7459 24.7611 28.0018 24.7474C28.0804 24.7432 28.1587 24.7599 28.2288 24.7957C28.2988 24.8315 28.3582 24.8853 28.4008 24.9515C28.3126 24.8909 28.2092 24.8561 28.1023 24.8509ZM30.4462 31.869C30.6758 31.9442 30.9256 31.9273 31.1429 31.8219C31.3603 31.7165 31.5282 31.5308 31.6113 31.304C31.4682 31.8127 31.0417 32.1721 30.4462 31.869Z" fill="#263238"/>
<path d="M32.6766 43.3372L31.8405 39.6347C31.8405 39.6347 32.7238 38.5686 32.1329 37.3213C31.8283 36.6922 30.1149 33.9508 29.029 33.1817C28.0101 32.4582 26.7551 33.1817 26.2875 33.8214C24.9519 35.6703 24.0548 39.3697 23.4639 43.4407L32.6766 43.3372Z" fill="#ECB800"/>
<path d="M29.3863 35.7361C29.2447 35.7884 29.1105 35.8591 28.9872 35.9463C29.1382 35.935 29.2865 35.9011 29.4274 35.8457C29.5697 35.795 29.704 35.7242 29.8264 35.6356C29.6759 35.6493 29.5279 35.6831 29.3863 35.7361ZM27.5221 41.1123C27.3781 41.1618 27.2421 41.2321 27.1185 41.321C27.4194 41.2939 27.7081 41.1889 27.9561 41.0164C27.8078 41.0284 27.6617 41.0607 27.5221 41.1123ZM24.5842 37.8455C24.572 37.8881 24.5598 37.9308 24.5492 37.9749C24.6684 37.9283 24.781 37.8664 24.8842 37.7906C24.7823 37.7963 24.6815 37.8147 24.5842 37.8455ZM31.5444 40.957C31.4021 41.0069 31.2682 41.0777 31.1469 41.1672C31.2966 41.1538 31.4438 41.1194 31.584 41.0651C31.7268 41.0156 31.8614 40.9448 31.983 40.855C31.8326 40.8674 31.6848 40.9018 31.5444 40.957ZM24.0724 41.254C24.0271 41.1281 23.9662 41.0084 23.8912 40.8976C23.8912 40.9235 23.8821 40.9494 23.876 40.9768C23.8954 41.0854 23.925 41.192 23.9643 41.2951C24.0142 41.4378 24.085 41.5723 24.1745 41.6941C24.1625 41.5432 24.1282 41.3948 24.0724 41.254ZM29.2918 38.9816C29.2422 38.8391 29.1719 38.7047 29.0832 38.5826C29.0957 38.733 29.13 38.8808 29.1852 39.0212C29.2347 39.1641 29.3056 39.2986 29.3954 39.4203C29.3815 39.2695 29.3451 39.1216 29.2873 38.9816H29.2918ZM32.2267 43.2979C32.1772 43.155 32.1063 43.0205 32.0165 42.8988C32.0301 43.0491 32.0644 43.1967 32.1186 43.3375H32.2389C32.2328 43.3268 32.2282 43.3131 32.2221 43.2979H32.2267ZM27.4414 34.0806C27.3908 33.9394 27.3206 33.8061 27.2327 33.6846C27.2588 33.9848 27.3639 34.2727 27.5373 34.5192C27.5267 34.3691 27.4943 34.2214 27.4414 34.0806ZM25.9183 39.3685C25.7819 39.3034 25.6367 39.2588 25.4873 39.236C25.6029 39.3328 25.7316 39.4128 25.8696 39.4736C26.0056 39.5387 26.1502 39.5838 26.2991 39.6076C26.1838 39.5092 26.0544 39.4286 25.9153 39.3685H25.9183ZM31.4865 38.0831C31.3493 38.0184 31.2037 37.9733 31.054 37.949C31.1698 38.0463 31.2985 38.1272 31.4363 38.1897C31.5726 38.2536 31.7171 38.2982 31.8657 38.3222C31.7515 38.2246 31.6238 38.144 31.4865 38.0831ZM25.4432 35.3584L25.402 35.4528C25.4999 35.492 25.6022 35.5191 25.7066 35.5335C25.6267 35.464 25.5382 35.4052 25.4432 35.3584ZM29.6497 33.7531C29.6096 33.7427 29.569 33.7345 29.5279 33.7287C29.6079 33.7982 29.6959 33.858 29.7899 33.9069C29.7396 33.8536 29.6924 33.8034 29.6467 33.7531H29.6497ZM29.3101 42.5866C29.2464 42.7237 29.2013 42.8686 29.1761 43.0176C29.2737 42.9023 29.3542 42.7736 29.4152 42.6354C29.4794 42.499 29.5245 42.3545 29.5492 42.2059C29.451 42.3202 29.3695 42.4479 29.3071 42.5851L29.3101 42.5866ZM31.4332 36.1397C31.4183 36.1895 31.4071 36.2405 31.3997 36.292C31.4263 36.2628 31.4507 36.2318 31.4728 36.1991C31.456 36.1793 31.4423 36.1595 31.4302 36.1382L31.4332 36.1397ZM25.8635 42.9933C25.8008 43.1279 25.7562 43.2703 25.731 43.4167C25.8271 43.3036 25.9065 43.1775 25.9671 43.042C26.0306 42.905 26.0752 42.76 26.0996 42.611C26.0018 42.7256 25.9212 42.8539 25.8605 42.9917L25.8635 42.9933ZM27.1505 37.0413C27.0859 37.178 27.0407 37.3231 27.0164 37.4723C27.2086 37.2383 27.3371 36.9587 27.3896 36.6606C27.2924 36.7757 27.211 36.9032 27.1474 37.0398L27.1505 37.0413Z" fill="white"/>
<path d="M30.2712 39.1769C29.8087 39.2275 29.3505 39.312 28.9004 39.4298C28.6765 39.4922 28.4588 39.5638 28.241 39.6399C28.1328 39.678 28.0232 39.713 27.9135 39.7465C27.7992 39.7856 27.6805 39.8107 27.5602 39.8212C27.5585 39.8219 27.5572 39.8231 27.5562 39.8245C27.5552 39.826 27.5547 39.8278 27.5547 39.8296C27.5547 39.8313 27.5552 39.8331 27.5562 39.8346C27.5572 39.836 27.5585 39.8372 27.5602 39.8379C27.6741 39.841 27.788 39.8364 27.9013 39.8242C28.0108 39.8088 28.1191 39.7864 28.2257 39.7572C28.4527 39.6963 28.6826 39.6247 28.902 39.5623C29.3589 39.4359 29.8158 39.3079 30.2727 39.215C30.3001 39.2104 30.294 39.1739 30.2712 39.1769Z" fill="#263238"/>
<path d="M31.424 39.5633C31.0416 39.5314 30.6577 39.5207 30.2741 39.5313C30.0822 39.5313 29.8933 39.5542 29.7014 39.577C29.6101 39.5877 29.5202 39.5999 29.4288 39.6136C29.3374 39.6273 29.2323 39.6562 29.1242 39.6699C29.1135 39.6699 29.1135 39.6867 29.1242 39.6867C29.2186 39.676 29.3161 39.6867 29.4105 39.6776L29.6969 39.6654C29.8888 39.6562 30.0791 39.6501 30.271 39.6395C30.6533 39.6197 31.0326 39.6029 31.4179 39.5953C31.4453 39.5953 31.4438 39.5649 31.424 39.5633Z" fill="#263238"/>
<path d="M27.2847 33.2096C27.3258 33.3832 28.564 34.7326 29.3133 34.4432C29.5905 34.3336 29.1839 33.2096 29.1839 33.2096L29.5235 31.6454L27.5573 30.4072C27.5573 30.4072 27.2709 33.1304 27.2847 33.2096Z" fill="#AD6359"/>
<path d="M27.4541 31.4241C27.6136 31.8111 27.8512 32.1611 28.152 32.4523C28.4529 32.7434 28.8105 32.9694 29.2025 33.1161L29.5239 31.6403L27.5577 30.4082C27.5577 30.4082 27.5105 30.8666 27.4541 31.4241Z" fill="#263238"/>
<path d="M31.4804 29.1721C31.9114 31.7612 30.4143 32.3064 29.8538 32.3993C29.3482 32.4831 27.6135 32.7039 26.919 30.1773C26.2245 27.6506 27.2891 26.6332 28.442 26.3804C29.5949 26.1275 31.0494 26.586 31.4804 29.1721Z" fill="#AD6359"/>
<path d="M30.7637 28.6078C30.7028 28.6078 30.6449 28.6078 30.584 28.6078C30.5197 28.6146 30.455 28.6002 30.3997 28.5667C30.3844 28.553 30.3741 28.5347 30.3706 28.5145C30.367 28.4943 30.3703 28.4736 30.3799 28.4555C30.4039 28.4219 30.4365 28.3954 30.4743 28.3788C30.5121 28.3622 30.5537 28.3561 30.5946 28.3611C30.6784 28.3583 30.7603 28.3865 30.8246 28.4403C30.8376 28.4536 30.8465 28.4703 30.8505 28.4885C30.8544 28.5067 30.8531 28.5256 30.8467 28.5431C30.8403 28.5606 30.8292 28.576 30.8145 28.5874C30.7998 28.5988 30.7822 28.6059 30.7637 28.6078Z" fill="#263238"/>
<path d="M29.02 28.9445C29.0794 28.9262 29.1312 28.8988 29.1876 28.8759C29.2478 28.8579 29.301 28.8218 29.3399 28.7724C29.349 28.7541 29.3519 28.7332 29.3481 28.7131C29.3442 28.693 29.3338 28.6748 29.3185 28.6612C29.2843 28.6379 29.2443 28.6245 29.203 28.6224C29.1616 28.6202 29.1205 28.6294 29.084 28.649C29.0051 28.6753 28.9386 28.7295 28.8967 28.8013C28.8865 28.8193 28.8822 28.84 28.8843 28.8605C28.8863 28.8811 28.8947 28.9005 28.9082 28.9161C28.9216 28.9317 28.9396 28.9429 28.9596 28.9479C28.9796 28.953 29.0007 28.9518 29.02 28.9445Z" fill="#263238"/>
<path d="M29.5071 29.5342C29.5071 29.5342 29.4949 29.5448 29.4979 29.5525C29.5391 29.7261 29.5573 29.9317 29.4111 30.0231C29.4111 30.0231 29.4111 30.0337 29.4111 30.0322C29.6015 29.9652 29.5741 29.6926 29.5071 29.5342Z" fill="#263238"/>
<path d="M29.3131 29.3851C29.0268 29.4216 29.1227 29.9943 29.3862 29.9562C29.6497 29.9182 29.5552 29.3531 29.3131 29.3851Z" fill="#263238"/>
<path d="M29.2067 29.4323C29.1625 29.4734 29.1229 29.5389 29.0651 29.5542C29.0072 29.5694 28.9341 29.5222 28.8793 29.4719C28.8793 29.4719 28.8701 29.4719 28.8701 29.4795C28.8869 29.5892 28.9478 29.6943 29.0666 29.6912C29.1854 29.6882 29.2372 29.5785 29.2448 29.4643C29.2509 29.443 29.225 29.4171 29.2067 29.4323Z" fill="#263238"/>
<path d="M30.5406 29.3135C30.5406 29.3135 30.5558 29.3135 30.5573 29.3257C30.5787 29.5039 30.635 29.7018 30.8025 29.7354V29.746C30.6046 29.7491 30.533 29.4841 30.5406 29.3135Z" fill="#263238"/>
<path d="M30.669 29.0971C30.9492 29.0316 31.062 29.5966 30.803 29.6575C30.5441 29.7185 30.4345 29.1595 30.669 29.0971Z" fill="#263238"/>
<path d="M30.7956 29.1173C30.8458 29.1386 30.9007 29.1843 30.9479 29.1767C30.9951 29.1691 31.0453 29.099 31.0728 29.0244C31.0728 29.0244 31.0728 29.0244 31.0819 29.0244C31.1063 29.1325 31.0941 29.2513 30.9936 29.2925C30.893 29.3336 30.8154 29.2513 30.7681 29.1493C30.7651 29.1432 30.7742 29.1097 30.7956 29.1173Z" fill="#263238"/>
<path d="M29.7918 30.998C29.8375 31.0361 29.8847 31.0909 29.9441 31.0909C30.0106 31.0856 30.075 31.0659 30.133 31.033C30.133 31.033 30.1452 31.033 30.1406 31.0406C30.1179 31.0775 30.0857 31.1076 30.0474 31.1277C30.0091 31.1478 29.966 31.1572 29.9228 31.1549C29.8853 31.1473 29.8508 31.1287 29.8237 31.1017C29.7966 31.0746 29.7781 31.0401 29.7705 31.0026C29.772 30.9965 29.7857 30.9919 29.7918 30.998Z" fill="#263238"/>
<path d="M30.4463 30.2254C30.4818 30.3518 30.5108 30.4799 30.5332 30.6092C30.5332 30.6214 30.5057 30.6305 30.4631 30.6381C30.3574 30.6717 30.2445 30.6752 30.1369 30.6483C30.0293 30.6214 29.9314 30.5652 29.8539 30.4858C29.8432 30.4752 29.8539 30.4599 29.8706 30.466C30.044 30.554 30.2412 30.5834 30.4326 30.5498C30.4326 30.5148 30.2956 30.1096 30.3154 30.1066C30.413 30.1023 30.5109 30.111 30.6063 30.1325C30.4738 29.5872 30.2544 29.0664 30.1311 28.5242C30.1295 28.5199 30.1296 28.5152 30.1315 28.5111C30.1333 28.5069 30.1367 28.5037 30.141 28.5021C30.1452 28.5005 30.1499 28.5006 30.1541 28.5025C30.1582 28.5043 30.1614 28.5078 30.1631 28.512C30.4147 29.0611 30.6106 29.6341 30.7479 30.2223C30.7738 30.3 30.4981 30.2406 30.4463 30.2254Z" fill="#263238"/>
<path d="M30.4218 30.5801C30.3711 30.6896 30.2929 30.784 30.1949 30.8542C30.1405 30.8907 30.0761 30.9093 30.0106 30.9075C29.8674 30.9075 29.8354 30.7781 29.837 30.6669C29.8378 30.6073 29.8454 30.548 29.8598 30.4902C30.0328 30.5792 30.2297 30.6107 30.4218 30.5801Z" fill="#263238"/>
<path d="M30.1949 30.8549C30.1405 30.8914 30.0761 30.91 30.0106 30.9082C29.8674 30.9082 29.8354 30.7787 29.837 30.6675C29.909 30.6543 29.9834 30.6655 30.0483 30.6994C30.1131 30.7334 30.1648 30.7881 30.1949 30.8549Z" fill="#FF9ABB"/>
<path d="M29.5461 26.7795C29.6269 26.9985 29.6402 27.2367 29.5841 27.4633C29.3664 28.0725 28.646 27.9979 28.4297 28.2538C28.2134 28.5096 28.352 28.9376 28.1708 29.1767C27.9195 29.5072 27.522 29.4311 27.4961 29.6336C27.4702 29.8362 27.4032 30.5017 27.1549 30.6099C26.9067 30.718 25.277 26.548 28.6566 26.3363C28.6566 26.3363 29.0998 26.0987 29.8537 26.3865C30.6853 26.7064 31.165 27.9766 31.165 27.9766C31.165 27.9766 31.1468 27.9613 31.0219 27.8715C30.8437 27.7436 30.7675 27.6171 30.6381 27.5364C30.437 27.4085 30.3335 27.4755 30.1309 27.3521C29.902 27.1993 29.7037 27.0051 29.5461 26.7795Z" fill="#263238"/>
<path d="M29.4767 26.5967C29.547 26.7593 29.5981 26.9295 29.629 27.1038C29.669 27.2725 29.6627 27.4487 29.6108 27.6141C29.5366 27.7679 29.4088 27.8892 29.2513 27.9552C29.099 28.0314 28.9224 28.0664 28.7563 28.1532C28.6715 28.1984 28.6001 28.2651 28.5492 28.3466C28.5069 28.4311 28.4825 28.5234 28.4776 28.6177C28.4765 28.7897 28.4286 28.9582 28.339 29.1051C28.2889 29.1737 28.2243 29.2304 28.1498 29.2711C28.0753 29.3119 27.9928 29.3358 27.908 29.3412C27.7374 29.3594 27.5455 29.3305 27.3887 29.4234C27.5532 29.3442 27.7314 29.3869 27.9111 29.3823C28.0033 29.3801 28.0939 29.3577 28.1766 29.3166C28.2592 29.2756 28.3318 29.2169 28.3893 29.1447C28.4929 28.9916 28.5495 28.8117 28.5523 28.6269C28.5581 28.5431 28.5803 28.4614 28.6177 28.3862C28.6629 28.3202 28.725 28.2676 28.7975 28.2339C28.9498 28.1517 29.1219 28.1121 29.2848 28.0314C29.3669 27.9917 29.4428 27.9404 29.5102 27.8791C29.5799 27.8161 29.6323 27.7364 29.6625 27.6476C29.7121 27.4707 29.7121 27.2837 29.6625 27.1069C29.6202 26.9303 29.5579 26.7591 29.4767 26.5967Z" fill="#263238"/>
<path d="M29.5557 26.7441C29.6059 26.9051 29.6771 27.0587 29.7674 27.201C29.8569 27.3482 29.9877 27.4658 30.1436 27.5392C30.2218 27.5697 30.3029 27.5921 30.3857 27.6062C30.4592 27.6216 30.5268 27.6575 30.5807 27.7097C30.6303 27.7766 30.6864 27.8383 30.7482 27.894C30.8151 27.9452 30.8926 27.9806 30.9751 27.9976C30.9006 27.9662 30.8329 27.9206 30.7756 27.8636C30.7187 27.8036 30.6677 27.7383 30.6233 27.6686C30.5649 27.6003 30.4866 27.5518 30.3994 27.53C30.3209 27.5145 30.244 27.4921 30.1694 27.463C30.0273 27.3932 29.9052 27.2884 29.8146 27.1584C29.7191 27.0263 29.6326 26.8879 29.5557 26.7441Z" fill="#263238"/>
<path d="M27.4452 30.2685C27.4452 30.2685 26.772 29.5314 26.4309 29.7827C26.0897 30.034 26.67 31.1534 27.1238 31.257C27.181 31.2743 27.2411 31.2798 27.3005 31.2733C27.3599 31.2667 27.4174 31.2483 27.4694 31.219C27.5215 31.1897 27.5671 31.1501 27.6035 31.1027C27.6399 31.0554 27.6664 31.0011 27.6813 30.9432L27.4452 30.2685Z" fill="#AD6359"/>
<path d="M26.6045 30.099C26.6045 30.099 26.6045 30.1082 26.6045 30.1097C26.9228 30.1935 27.1193 30.4539 27.2701 30.7296C27.2484 30.7017 27.2209 30.6788 27.1896 30.6625C27.1582 30.6462 27.1237 30.6368 27.0884 30.6351C27.0531 30.6333 27.0179 30.6393 26.9851 30.6524C26.9523 30.6656 26.9227 30.6857 26.8984 30.7113C26.8984 30.7113 26.8984 30.7296 26.9091 30.7265C26.9594 30.7037 27.0155 30.6967 27.0699 30.7065C27.1243 30.7163 27.1745 30.7424 27.2137 30.7814C27.2795 30.849 27.3377 30.9235 27.3873 31.0037C27.4056 31.0281 27.4528 31.0037 27.4376 30.9778C27.3965 30.5834 27.0248 30.0823 26.6045 30.099Z" fill="#263238"/>
<path d="M27.1458 33.5229C28.0734 33.6874 27.2205 38.9616 25.4187 38.8534C23.617 38.7453 26.0188 33.3249 27.1458 33.5229Z" fill="#AD6359"/>
<path d="M26.2219 36.1517C26.4884 40.0948 27.6597 42.4464 28.4394 42.8957C29.6015 43.5658 31.2433 41.2204 31.19 40.9995C30.8595 39.6014 29.5832 37.1463 28.2338 34.6592C26.8844 32.1721 26.097 34.2754 26.2219 36.1517Z" fill="#AD6359"/>
<path d="M26.4836 38.2232C26.2749 37.5183 26.1808 36.7845 26.2048 36.0498C26.2581 36.7687 26.3998 37.5073 26.479 38.2232H26.4836Z" fill="#263238"/>
<path d="M26.0939 36.2783C26.1701 36.4931 26.1792 36.7093 26.2675 36.9165C26.0893 36.7642 26.0635 36.4961 26.0939 36.2783Z" fill="#263238"/>
<path d="M28.6512 42.9844C29.1614 43.2631 30.3905 43.1641 34.1539 41.3746C34.6747 41.1263 33.9163 36.9807 33.3467 37.2167C32.6293 37.5137 30.3646 38.6697 30.1773 38.79C28.6009 39.8089 28.0329 42.6417 28.6512 42.9844Z" fill="#AD6359"/>
<path d="M39.0551 35.8437C39.1708 36.3006 37.6387 36.7971 37.6387 36.7971C37.6387 36.7971 38.0621 36.9494 38.1458 37.2662C38.2418 37.6271 37.7681 38.0505 37.7681 38.0505C37.928 38.2073 38.0373 38.4083 38.0819 38.6277C38.1382 38.9811 37.6569 39.3664 37.6569 39.3664C37.7242 39.5914 37.708 39.8332 37.6112 40.0472C37.3325 40.6092 36.4096 41.0539 35.8141 41.1879C35.1775 41.3296 34.1616 41.5123 33.7458 41.5748L32.5898 37.554C32.5898 37.554 34.9916 36.0508 35.6999 35.897C36.3212 35.7629 38.8891 35.1888 39.0551 35.8437Z" fill="#AD6359"/>
<path d="M37.6357 36.7972C36.9738 36.8906 36.3258 37.0645 35.706 37.315C35.6923 37.315 35.706 37.3424 35.7137 37.3363C36.3229 37.1064 37.0204 37.0317 37.6418 36.8276C37.6458 36.8268 37.6494 36.8245 37.6517 36.821C37.654 36.8176 37.6548 36.8134 37.654 36.8094C37.6532 36.8053 37.6508 36.8018 37.6474 36.7995C37.6439 36.7972 37.6397 36.7964 37.6357 36.7972Z" fill="#263238"/>
<path d="M37.7513 38.0392C37.597 38.0375 37.4433 38.057 37.2944 38.097C37.1421 38.1275 36.9791 38.1625 36.8222 38.1991C36.5085 38.2722 36.1968 38.3534 35.8871 38.4428C35.8734 38.4428 35.8764 38.4687 35.8871 38.4641C36.2008 38.3925 36.5146 38.324 36.8299 38.2646L37.305 38.1793C37.4565 38.1637 37.6057 38.131 37.7498 38.0818C37.7541 38.0803 37.7579 38.0775 37.7607 38.0738C37.7635 38.0701 37.765 38.0656 37.7652 38.061C37.7654 38.0564 37.7641 38.0518 37.7616 38.0479C37.7591 38.044 37.7555 38.041 37.7513 38.0392Z" fill="#263238"/>
<path d="M37.6601 39.3652C37.5229 39.3662 37.3868 39.3909 37.258 39.4383L36.8301 39.545C36.5437 39.615 36.2589 39.6835 35.9711 39.7429C35.9574 39.7429 35.9604 39.7688 35.9711 39.7658C36.2635 39.7064 36.5559 39.6516 36.8483 39.5906L37.2778 39.4977C37.4113 39.4809 37.5407 39.4407 37.6601 39.3789V39.3652Z" fill="#263238"/>
<path d="M28.8867 40.9312C29.0116 40.0418 29.4822 39.1127 30.3077 38.6924C30.2224 38.7701 30.128 38.8295 30.0503 38.9132C29.4746 39.4539 29.1365 40.191 28.8867 40.9312Z" fill="#263238"/>
<path d="M39.0602 22.2625C39.0599 22.9394 38.8716 23.6029 38.5163 24.179C38.1611 24.7552 37.6528 25.2214 37.0482 25.5257C36.4435 25.83 35.7663 25.9604 35.0919 25.9025C34.4175 25.8445 33.7724 25.6004 33.2286 25.1973L31.4375 25.6542L32.1838 23.9789C31.8985 23.4491 31.7498 22.8566 31.7512 22.2549C31.7512 21.2854 32.1363 20.3557 32.8218 19.6702C33.5073 18.9847 34.4371 18.5996 35.4065 18.5996C36.3759 18.5996 37.3057 18.9847 37.9911 19.6702C38.6766 20.3557 39.0617 21.2854 39.0617 22.2549L39.0602 22.2625Z" fill="white"/>
<path d="M39.0603 22.2624C39.0862 24.3764 37.19 26.1218 35.0883 25.9405C34.405 25.8868 33.7501 25.6443 33.1967 25.24L33.2424 25.2491L31.4543 25.7197L31.3203 25.7547L31.3767 25.6268L32.1169 23.9515V24.0154C31.2746 22.5183 31.6843 20.4927 33.0154 19.419C35.4111 17.439 39.0573 19.1494 39.0588 22.2564L39.0603 22.2624ZM39.0603 22.2624C39.0725 19.9277 36.7864 18.1503 34.5278 18.7595C32.2966 19.3154 31.1452 21.9396 32.2478 23.9515L32.2646 23.985L32.2509 24.017L31.4985 25.6816L31.4224 25.5887L33.2104 25.1379H33.2363C33.9076 25.6566 34.742 25.9185 35.5893 25.8766C37.4916 25.8309 39.0694 24.1586 39.0557 22.2624H39.0603Z" fill="#263238"/>
<path d="M34.8146 24.4376L33.1758 22.7806L33.7271 22.2369L34.6836 23.204L36.6711 20.0879L37.323 20.5052L34.8146 24.4376Z" fill="#ECB800"/>
</svg>
